<svg xmlns="http://www.w3.org/2000/svg" xmlns:xlink="http://www.w3.org/1999/xlink" viewBox="0 0 702.49 941.9">
  <defs>
<style type="text/css">
      @import url(https://fonts.googleapis.com/css2?family=Syncopate:ital,wght@0,700;1,700);
      @import url(https://fonts.googleapis.com/css2?family=Arimo:ital,wght@0,700;1,700);
    </style>
    <linearGradient id="linear-gradient" x1="-1367.55" y1="-249.23" x2="-1367.55" y2="-249.23" gradientUnits="userSpaceOnUse">
      <stop offset="0" stop-color="#13214f"/>
      <stop offset="0.17" stop-color="#22356d"/>
      <stop offset="0.38" stop-color="#2f4888"/>
      <stop offset="0.58" stop-color="#39559c"/>
      <stop offset="0.79" stop-color="#3f5da8"/>
      <stop offset="1" stop-color="#4160ac"/>
    </linearGradient>
    <linearGradient id="linear-gradient-2" x1="0.07" y1="465.82" x2="702.56" y2="465.82" gradientUnits="userSpaceOnUse">
      <stop offset="0" stop-color="#1c2c59"/>
      <stop offset="0.07" stop-color="#1e2f5c"/>
      <stop offset="0.64" stop-color="#2d4174"/>
      <stop offset="1" stop-color="#32487d"/>
    </linearGradient>
    <linearGradient id="linear-gradient-3" x1="117.64" y1="875.38" x2="567.42" y2="96.33" gradientUnits="userSpaceOnUse">
      <stop offset="0" stop-color="#0c233f"/>
      <stop offset="0.2" stop-color="#172d53"/>
      <stop offset="0.46" stop-color="#223767"/>
      <stop offset="0.73" stop-color="#293d73"/>
      <stop offset="1" stop-color="#2b3f77"/>
    </linearGradient>
    <linearGradient id="linear-gradient-4" x1="689.38" y1="813.63" x2="689.38" y2="135.28" gradientUnits="userSpaceOnUse">
      <stop offset="0" stop-color="#0c233f"/>
      <stop offset="1" stop-color="#364e85"/>
    </linearGradient>
    <linearGradient id="linear-gradient-5" x1="11.93" y1="812.73" x2="11.93" y2="135.83" gradientUnits="userSpaceOnUse">
      <stop offset="0" stop-color="#1b3454"/>
      <stop offset="1" stop-color="#364e85"/>
    </linearGradient>
    <linearGradient id="linear-gradient-6" x1="0.07" y1="833.52" x2="85.33" y2="833.52" gradientUnits="userSpaceOnUse">
      <stop offset="0" stop-color="#0c233f"/>
      <stop offset="0.31" stop-color="#0e2542"/>
      <stop offset="0.55" stop-color="#13294c"/>
      <stop offset="0.77" stop-color="#1c325c"/>
      <stop offset="0.97" stop-color="#293d73"/>
      <stop offset="1" stop-color="#2b3f77"/>
    </linearGradient>
    <linearGradient id="linear-gradient-7" x1="63.55" y1="899.23" x2="350.67" y2="899.23" gradientUnits="userSpaceOnUse">
      <stop offset="0" stop-color="#0c233f"/>
      <stop offset="0.01" stop-color="#0c2340"/>
      <stop offset="0.66" stop-color="#233768"/>
      <stop offset="1" stop-color="#2b3f77"/>
    </linearGradient>
    <linearGradient id="linear-gradient-8" x1="350.67" y1="899.09" x2="639.4" y2="899.09" xlink:href="#linear-gradient-4"/>
    <linearGradient id="linear-gradient-9" x1="618.3" y1="860.07" x2="684.17" y2="794.19" gradientUnits="userSpaceOnUse">
      <stop offset="0" stop-color="#0c233f"/>
      <stop offset="0.12" stop-color="#182f53"/>
      <stop offset="0.29" stop-color="#253d69"/>
      <stop offset="0.48" stop-color="#2f4779"/>
      <stop offset="0.7" stop-color="#344c82"/>
      <stop offset="1" stop-color="#364e85"/>
    </linearGradient>
    <linearGradient id="linear-gradient-10" x1="-338.12" y1="968.38" x2="263.36" y2="-73.42" gradientUnits="userSpaceOnUse">
      <stop offset="0" stop-color="#4160ac" stop-opacity="0"/>
      <stop offset="1" stop-color="#00002f"/>
    </linearGradient>
    <linearGradient id="linear-gradient-11" x1="108.05" y1="1225.98" x2="709.53" y2="184.18" xlink:href="#linear-gradient-10"/>
    <linearGradient id="linear-gradient-12" x1="-11.39" y1="1157.02" x2="590.09" y2="115.22" xlink:href="#linear-gradient-10"/>
    <linearGradient id="linear-gradient-13" x1="282.07" y1="1162.7" x2="607.5" y2="599.04" xlink:href="#linear-gradient-10"/>
    <linearGradient id="linear-gradient-14" x1="59.01" y1="1130" x2="608.96" y2="177.45" xlink:href="#linear-gradient-10"/>
    <linearGradient id="linear-gradient-15" x1="202.59" y1="1159.96" x2="577.7" y2="510.26" xlink:href="#linear-gradient-10"/>
    <linearGradient id="linear-gradient-16" x1="-22.82" y1="812.76" x2="452.3" y2="-10.18" xlink:href="#linear-gradient-10"/>
    <linearGradient id="linear-gradient-17" x1="-159.66" y1="733.75" x2="315.46" y2="-89.18" xlink:href="#linear-gradient-10"/>
    <linearGradient id="linear-gradient-18" x1="94.55" y1="880.52" x2="569.67" y2="57.58" xlink:href="#linear-gradient-10"/>
    <linearGradient id="linear-gradient-19" x1="98.82" y1="577.47" x2="495.79" y2="-110.11" xlink:href="#linear-gradient-10"/>
    <linearGradient id="linear-gradient-20" x1="379.16" y1="59.57" x2="526.87" y2="-196.27" xlink:href="#linear-gradient-10"/>
    <linearGradient id="linear-gradient-21" x1="294.94" y1="251.66" x2="526.36" y2="-149.18" xlink:href="#linear-gradient-10"/>
    <linearGradient id="linear-gradient-22" x1="95.74" y1="694.41" x2="516.49" y2="-34.34" xlink:href="#linear-gradient-10"/>
    <linearGradient id="linear-gradient-23" x1="-54.42" y1="607.71" x2="366.32" y2="-121.04" xlink:href="#linear-gradient-10"/>
    <linearGradient id="linear-gradient-24" x1="-22.67" y1="573.89" x2="385.79" y2="-133.58" xlink:href="#linear-gradient-10"/>
    <linearGradient id="linear-gradient-25" x1="103.37" y1="646.66" x2="511.82" y2="-60.81" xlink:href="#linear-gradient-10"/>
    <linearGradient id="linear-gradient-26" x1="242.6" y1="1161.49" x2="591.24" y2="557.62" xlink:href="#linear-gradient-10"/>
    <linearGradient id="linear-gradient-27" x1="-383.65" y1="945.95" x2="205.82" y2="-75.05" xlink:href="#linear-gradient-10"/>
    <linearGradient id="linear-gradient-28" x1="256.12" y1="1160.43" x2="594.29" y2="574.71" xlink:href="#linear-gradient-10"/>
    <linearGradient id="linear-gradient-29" x1="238.66" y1="797.96" x2="404.15" y2="797.96" gradientUnits="userSpaceOnUse">
      <stop offset="0.02" stop-color="#243f8b"/>
      <stop offset="1" stop-color="#1c2d5c" stop-opacity="0"/>
    </linearGradient>
    <linearGradient id="linear-gradient-30" x1="208.81" y1="778.01" x2="423.25" y2="778.01" xlink:href="#linear-gradient-29"/>
    <linearGradient id="linear-gradient-31" x1="176.94" y1="760.48" x2="433.35" y2="760.48" xlink:href="#linear-gradient-29"/>
    <linearGradient id="linear-gradient-32" x1="144.92" y1="744.9" x2="441.66" y2="744.9" xlink:href="#linear-gradient-29"/>
    <linearGradient id="linear-gradient-33" x1="114.05" y1="729.23" x2="451.43" y2="729.23" xlink:href="#linear-gradient-29"/>
    <linearGradient id="linear-gradient-34" x1="92.4" y1="701.48" x2="459.63" y2="701.48" xlink:href="#linear-gradient-29"/>
    <linearGradient id="linear-gradient-35" x1="71.13" y1="675.77" x2="467.26" y2="675.77" xlink:href="#linear-gradient-29"/>
    <linearGradient id="linear-gradient-36" x1="39.83" y1="632.16" x2="477.76" y2="632.16" xlink:href="#linear-gradient-29"/>
    <linearGradient id="linear-gradient-37" x1="39.87" y1="603.46" x2="482.18" y2="603.46" xlink:href="#linear-gradient-29"/>
    <linearGradient id="linear-gradient-38" x1="42.01" y1="657.9" x2="472.46" y2="657.9" xlink:href="#linear-gradient-29"/>
    <linearGradient id="linear-gradient-39" x1="39.88" y1="585.27" x2="452.52" y2="585.27" xlink:href="#linear-gradient-29"/>
    <linearGradient id="linear-gradient-40" x1="39.91" y1="574.61" x2="413.69" y2="574.61" xlink:href="#linear-gradient-29"/>
    <linearGradient id="linear-gradient-41" x1="39.9" y1="564.83" x2="376.36" y2="564.83" xlink:href="#linear-gradient-29"/>
    <linearGradient id="linear-gradient-42" x1="39.86" y1="553.93" x2="340.85" y2="553.93" xlink:href="#linear-gradient-29"/>
    <linearGradient id="linear-gradient-43" x1="39.82" y1="544.43" x2="299.35" y2="544.43" xlink:href="#linear-gradient-29"/>
    <linearGradient id="linear-gradient-44" x1="39.88" y1="535.81" x2="262.31" y2="535.81" xlink:href="#linear-gradient-29"/>
    <linearGradient id="linear-gradient-45" x1="39.88" y1="528.23" x2="228.04" y2="528.23" xlink:href="#linear-gradient-29"/>
    <linearGradient id="linear-gradient-46" x1="39.86" y1="521.52" x2="190.77" y2="521.52" xlink:href="#linear-gradient-29"/>
    <linearGradient id="linear-gradient-47" x1="39.83" y1="514.55" x2="158.78" y2="514.55" xlink:href="#linear-gradient-29"/>
    <linearGradient id="linear-gradient-48" x1="39.87" y1="507.59" x2="123.26" y2="507.59" xlink:href="#linear-gradient-29"/>
    <linearGradient id="linear-gradient-49" x1="497.1" y1="666.49" x2="592.41" y2="666.49" gradientUnits="userSpaceOnUse">
      <stop offset="0" stop-color="#a3aaad"/>
      <stop offset="0.24" stop-color="#bec3c5"/>
      <stop offset="0.51" stop-color="#d4d7d8"/>
      <stop offset="0.77" stop-color="#e1e3e4"/>
      <stop offset="1" stop-color="#e6e7e8"/>
    </linearGradient>
    <linearGradient id="linear-gradient-50" x1="398.81" y1="699.2" x2="517.14" y2="699.2" xlink:href="#linear-gradient-49"/>
    <linearGradient id="linear-gradient-51" x1="450.49" y1="676.64" x2="555.26" y2="676.64" xlink:href="#linear-gradient-49"/>
    <linearGradient id="linear-gradient-52" x1="298.54" y1="843.87" x2="372.9" y2="843.87" xlink:href="#linear-gradient-49"/>
    <linearGradient id="linear-gradient-53" x1="581.57" y1="647.88" x2="660.83" y2="647.88" xlink:href="#linear-gradient-49"/>
    <linearGradient id="linear-gradient-54" x1="540.88" y1="656.28" x2="632" y2="656.28" xlink:href="#linear-gradient-49"/>
    <linearGradient id="linear-gradient-55" x1="77.73" y1="190.66" x2="100.01" y2="190.66" gradientUnits="userSpaceOnUse">
      <stop offset="0" stop-color="#e6e7e8"/>
      <stop offset="0.23" stop-color="#e1e3e4"/>
      <stop offset="0.49" stop-color="#d3d6d8"/>
      <stop offset="0.77" stop-color="#bcc1c3"/>
      <stop offset="1" stop-color="#a3aaad"/>
    </linearGradient>
    <linearGradient id="linear-gradient-56" x1="84.65" y1="224.16" x2="156.31" y2="224.16" xlink:href="#linear-gradient-55"/>
    <linearGradient id="linear-gradient-57" x1="94" y1="328.72" x2="137.85" y2="328.72" xlink:href="#linear-gradient-55"/>
    <linearGradient id="linear-gradient-58" x1="345.79" y1="814.33" x2="446.96" y2="814.33" xlink:href="#linear-gradient-49"/>
  </defs>
  <g id="BG">
    <path d="M-1367.55-249.23" transform="translate(-0.07 -0.16)" style="fill: url(#linear-gradient)"/>
    <path d="M.07,136V812.91l23.69-2.85c4.45-1,17.43-3.33,29.08,3.78,15.64,9.55,22.72,32.35,15,55.09l-.95,8.68,285.28,53.88,287.44-50.24v-17.8c.06-5.3.93-26.54,17.44-43a58.58,58.58,0,0,1,22.23-13.77l6.56-4.79,16.74-666.62H668.21s-83,4.27-170-75.45c0,0-136.91-134.25-293.72,0C204.45,59.83,117.91,148.23.07,136Z" transform="translate(-0.07 -0.16)" style="fill: url(#linear-gradient-2)"/>
    <path d="M23.83,159.14H45.75S129,161.63,222.37,74.31c0,0,49.31-49.2,129.16-47.85,0,0,71.29-2.91,127.83,49.59S602.87,159.12,653,159.12h23.14l.18,627.29a62.82,62.82,0,0,0-8.69.52,58.63,58.63,0,0,0-25.39,9.19c-14.68,9.89-20.2,24.08-22,28.91-3.63,9.72-4.65,20.44-5,24-.29,3-.4,5.58-.45,7.37L350.74,913.35,85.33,856.73a74.89,74.89,0,0,0-.93-15c-.8-4.93-5.65-31.5-25.78-44.91a61.41,61.41,0,0,0-17.52-7.93,76.49,76.49,0,0,0-8.9-1.7A73.7,73.7,0,0,0,24,786.6Z" transform="translate(-0.07 -0.16)" style="fill: url(#linear-gradient-3)"/>
    <path d="M676.19,159.12l26.37-23.84V813.63l-26.19-27.26Z" transform="translate(-0.07 -0.16)" style="fill: url(#linear-gradient-4)"/>
    <polygon points="23.87 159.04 0 135.83 0 812.73 23.87 786.4 23.87 159.04" style="fill: url(#linear-gradient-5)"/>
    <path d="M.07,812.89l23.87-26.33s60.23-4.45,61.39,70.17l-21.71,23.8s9.05-68.24-49.22-68.24C14.4,812.29.07,812.86.07,812.89Z" transform="translate(-0.07 -0.16)" style="fill: url(#linear-gradient-6)"/>
    <polygon points="350.67 913.18 350.67 941.9 63.55 880.37 85.26 856.57 350.67 913.18" style="fill: url(#linear-gradient-7)"/>
    <polygon points="350.67 913.18 350.67 941.9 639.4 881.09 614.75 856.27 350.67 913.18" style="fill: url(#linear-gradient-8)"/>
    <path d="M674.86,159.1l1,267.17.63-267.39-.3.24A6.28,6.28,0,0,0,674.86,159.1Z" transform="translate(-0.07 -0.16)" style="fill: #fff"/>
    <path d="M639.48,881.25V870.73s-2.94-57.1,46.57-57.1h16.51Q689.45,800,676.33,786.35c-5.53-.07-24.18.38-40.41,14-24.74,20.81-21.42,53.37-21.1,56.06Z" transform="translate(-0.07 -0.16)" style="fill: url(#linear-gradient-9)"/>
  </g>
  <g id="Waves">
    <g style="opacity: 0.25">
      <path d="M69.19,187.8c-8.87,12.63-16.92,25.84-25.74,38.51-1.38,2-2.78,4-4.17,6,0,29.16,0,67.53,0,110.42,10.47-16,21-32,31.78-47.7,22.67-33,45.58-65.77,69.21-98,10.61-14.48,23.2-27.51,34.95-41.16a177.4,177.4,0,0,0,24.84-38C153.05,153,110.45,167,81,172.41,76.87,177.38,72.91,182.49,69.19,187.8Z" transform="translate(-0.07 -0.16)" style="fill: url(#linear-gradient-10)"/>
      <path d="M644.17,498.51c-13.44-3.85-20.69-13.29-21.16-27.34-.41-12.24,3.43-23.43,8.54-34.26,3.32-7,7.12-13.83,10.39-20.88a44.22,44.22,0,0,0,3.2-10.11c1.2-6.25-1.27-10.53-7.26-12.93-7.53-3-15.43-3.06-23.34-2.34-18.79,1.7-36.53,7.14-52.32,17.41-24.72,16.07-51.19,28.49-78.13,40.19C471,454,457.92,460,445.42,467c-15.69,8.73-28.16,21.61-40.44,34.51S381.16,527.6,368.56,540c-7.49,7.35-16.16,13.56-24.66,19.79-17.32,12.68-34.19,25.91-49.94,40.51-16.3,15.1-27.85,33.64-38.6,52.8q-24.95,44.46-50.1,88.82c-7.75,13.74-17.65,25.86-28.33,37.37a172.41,172.41,0,0,0-31.31,46.92,235.48,235.48,0,0,1-13.71,25.91l40.62,8.61.93-1.44c7-11,13.15-22.43,20.09-33.42,8.34-13.23,19.2-24.43,29.84-35.81,16.17-17.29,29-37.08,42.43-56.46,8.79-12.7,17.53-25.46,26.87-37.75,13.14-17.3,30.47-29.74,49.27-40.2,29.58-16.46,60.62-29.69,92.41-41.18a79.16,79.16,0,0,1,8.36-2.24c8.64-2.07,16.58-.52,24.35,3.87,11.5,6.49,23.31,12.46,35,18.63a84.72,84.72,0,0,0,55.58,8.65c22.23-3.89,44.23-8.68,65.23-17.28,13.66-5.6,26.13-13.22,38.22-21.54V500.69A59.06,59.06,0,0,1,644.17,498.51Z" transform="translate(-0.07 -0.16)" style="fill: url(#linear-gradient-11)"/>
      <path d="M557,239.76c-18.52,3-35.19,10.45-51.32,19.72-21.21,12.19-41.25,25.85-58.43,43.41-3.33,3.41-6.5,7-9.51,10.72C424.44,330,408,342.81,391.16,355.29c-8.92,6.63-17.67,13.5-26.36,20.42-6.92,5.51-13.06,11.83-17.3,19.67-9,16.68-21.08,31-33.75,44.95-15.93,17.5-32.11,34.8-47.64,52.66a537.49,537.49,0,0,0-53,73.06c-12,19.67-25.59,38.18-39.59,56.48S146.87,660,133.92,679c-12.64,18.57-25.68,36.83-39.95,54.2a236.51,236.51,0,0,0-29.59,46.51,69.17,69.17,0,0,1,23.91,21c9.07-18.78,20-36.5,33.81-52.52,10.7-12.44,19.45-26.23,27.21-40.67,4.42-8.21,8.75-16.51,13.67-24.42,9.73-15.66,19.39-31.4,29.92-46.53,13.51-19.39,25-39.91,36.16-60.67,16.41-30.62,36.51-58.41,61.86-82.23,14.56-13.68,26.73-29.47,40.09-44.2,16.28-17.94,32.62-35.94,50.35-52.39,11.71-10.86,26-19,39-28.4,13.52-9.74,27.28-19.18,40.33-29.52,6.36-5.05,11.85-11.47,16.85-18,14.37-18.64,33-31.82,53.2-43.22a136.5,136.5,0,0,1,45.1-15.55c26.37-4.4,51.9-11.91,77.18-20.49,2.66-.91,5.35-1.74,8.07-2.52V212.78q-3.76.9-7.47,1.93c-20,5.6-39.68,12.25-59.71,17.66C581.85,235.64,569.41,237.73,557,239.76Z" transform="translate(-0.07 -0.16)" style="fill: url(#linear-gradient-12)"/>
      <path d="M598.28,845.89c5.6-67.55,62.83-75.23,62.83-75.23v-43Q655.49,731.71,650,736c-31.93,25-64.15,49.65-96.41,74.24-15.16,11.56-31.67,20.76-50.7,24.09-9.59,1.67-19.38,2.31-29.11,3-17.16,1.26-34.34,2.47-51.53,3.23A220.93,220.93,0,0,0,372,848.28c-18.67,5.26-37.21,11.27-55.29,18.27a68.2,68.2,0,0,0-27.24,18.92l62.07,13.15Z" transform="translate(-0.07 -0.16)" style="fill: url(#linear-gradient-13)"/>
      <path d="M591,281.48a141.86,141.86,0,0,0-72.54,33.41,65.91,65.91,0,0,0-9.84,10.41c-13,17.51-29.51,30.95-47.61,42.8s-36.2,24.25-54.11,36.66c-22.53,15.59-42.07,34.65-60.58,54.64-18,19.43-35.88,38.87-55.55,56.64-20.51,18.52-36.66,40.56-49.39,65-15.51,29.8-32.57,58.64-50.9,86.79-10.36,15.91-19.79,32.45-29,49.08-9.71,17.63-22,33.33-33.94,49.42a401.18,401.18,0,0,0-31,48.83,95.49,95.49,0,0,1,8.07,31.14l14.27,3c6.4-10.32,12.35-21,17.8-31.78,9-17.91,19.74-34.5,33.35-49.23,12.39-13.41,21.84-28.83,30.71-44.68,18.49-33.06,37.35-65.93,55.62-99.12,12.59-22.89,29.4-41.95,49.75-58.11,16.19-12.85,33-25,48.33-38.85,12.27-11,22.9-23.89,34-36.16C401,477.56,413,463,428.92,452.91c12.37-7.85,25.39-14.68,38.28-21.65,13.19-7.13,26.54-14,39.91-20.76,20.31-10.32,38.52-23.84,57-36.95,13.15-9.31,26.27-18.81,41.61-24.33a207.39,207.39,0,0,1,55.37-11.85V266l-.61.2C637.9,273.92,614.44,277.83,591,281.48Z" transform="translate(-0.07 -0.16)" style="fill: url(#linear-gradient-14)"/>
      <path d="M620.05,647.89c-18.35,7.33-36.71,14.64-55.26,21.44-25,9.17-50.36,8.51-75.52.31a202.26,202.26,0,0,0-48.65-9.2c-8.44-.59-17.41.89-25.6,3.29-23.31,6.81-46.4,14.43-69.48,22a77.84,77.84,0,0,0-33.79,21.88c-6.85,7.56-13.32,15.51-19.63,23.54C279,748,266.22,765.09,252.83,781.69c-5.9,7.33-12.79,13.91-19.55,20.5a174.88,174.88,0,0,0-35.3,49c-2.23,4.58-4.66,9-7.22,13.39l53.6,11.36c.16-.4.32-.8.47-1.19a99.54,99.54,0,0,1,29.49-40.17c17.71-14.76,36.41-28.14,57-38.65a114,114,0,0,1,43-12c18.32-1.51,36.66-.65,54.94-1.42,23.58-1,47.35-1,70.47-7.11,19.31-5.06,37.41-13.26,55.68-21.1A251.27,251.27,0,0,0,625,709.16a197.28,197.28,0,0,1,36.07-25.68V626.74A271.31,271.31,0,0,1,620.05,647.89Z" transform="translate(-0.07 -0.16)" style="fill: url(#linear-gradient-15)"/>
      <path d="M122,586.72A609.07,609.07,0,0,0,173,518.86c10.43-16,21.44-31.66,32.66-47.12,13.32-18.36,27.37-36.17,40.67-54.53,15.78-21.78,24.33-47.37,36.61-71a13.35,13.35,0,0,0,.74-3l-.94-.64c-2,1.94-4.35,3.64-6,5.86-6.2,8.53-12.92,16.81-18.09,25.95-16.79,29.63-37.4,56.5-58.63,82.95C187.56,472.91,174.44,488,162.37,504c-18,23.76-35.93,47.49-58,67.78-19.73,18.11-38.87,36.87-58.54,55.06q-3,2.81-6.17,5.51c0,20.39.07,39.39.1,56.39,4.24-5.7,8.54-11.37,12.94-16.94C75.31,643.05,98,614.29,122,586.72Z" transform="translate(-0.07 -0.16)" style="fill: url(#linear-gradient-16)"/>
      <path d="M116.25,278.56c5.85-9,10.66-18.69,15.82-28.15.93-1.7,1.19-3.78,1.76-5.68L132.6,244c-2.29,2.31-4.78,4.45-6.82,6.95-12.23,15-24.88,29.67-36.4,45.2-17.09,23-33.7,46.41-50.1,69.93q0,15.92,0,32.38c6-11.19,12.51-22.09,19.48-32.75C77.81,336.55,97.3,307.73,116.25,278.56Z" transform="translate(-0.07 -0.16)" style="fill: url(#linear-gradient-17)"/>
      <path d="M527.94,176.9c-28,4.64-54.43,13.9-78.42,29.36-17.46,11.27-34.47,23.26-52.12,34.21-18.84,11.68-32.41,27.81-41.32,47.67a240.66,240.66,0,0,1-36.14,57.31A181.2,181.2,0,0,0,296.45,381c-2.2,4.36-4.65,8.61-7.18,12.79-12,19.79-27.32,37-42.37,54.41a859.11,859.11,0,0,0-63.27,82.1c-11.06,16.38-22.07,33-35,47.9-21.76,25.15-43.63,50.16-63.93,76.52-15.34,19.92-30.87,39.7-45,60.53,0,17.55.06,31.73.08,41.5A338.83,338.83,0,0,1,75,702.28c19.76-24.89,38.27-50.78,57.79-75.87,11.46-14.74,24.44-28.31,35.64-43.23,13.07-17.4,25-35.66,37.31-53.64,24.62-36,54.29-67.87,83.21-100.3,12.74-14.3,23.83-29.46,32-46.9,3.53-7.54,8.6-14.53,13.86-21.06a216.09,216.09,0,0,1,18.95-20.17,217.27,217.27,0,0,0,38.75-50.26c5-8.81,11.17-16.7,19.37-22.67,17.88-13,35.7-26.14,54-38.58a171.3,171.3,0,0,1,75.22-28.91c13.88-1.79,27.88-3.3,41.45-6.54,22-5.25,43.74-11.71,65.53-17.86,1.29-.36,2.58-.71,3.87-1a258.21,258.21,0,0,1-59.3-11.07C571.24,169.16,549.66,173.29,527.94,176.9Z" transform="translate(-0.07 -0.16)" style="fill: url(#linear-gradient-18)"/>
      <path d="M281.33,61c-5.59,13.9-11.17,27.81-16.4,41.85-2.86,7.68-5.07,15.62-7.46,23.47-5,16.32-13.88,30.71-21.87,45.57-12.94,24-30.17,45-47.19,66.13-20.51,25.41-42.2,49.89-62.2,75.7-18.5,23.89-35.61,48.92-49.25,76-5.81,11.55-10.34,23.83-14.56,36.09-4.11,12-8.73,23.58-16.59,33.58a71,71,0,0,0-6.43,9.82c0,24.5.07,49,.1,72.94a22.3,22.3,0,0,0,6.3.09c9.26-1.12,17.47-4.94,25.31-9.69,14-8.47,25.13-20,35.84-32.16,14.6-16.61,29.64-32.84,44.58-49.15,13.8-15.08,28.78-29.23,40-46.44,7.36-11.32,13.56-23.46,19.63-35.55,18.69-37.19,40.5-72.3,67.5-104.09,4.31-5.08,8.16-10.56,12.16-15.89a88.44,88.44,0,0,1,22.91-21.15C330.27,217.32,347,207,365.28,199c13.7-6,25.65-15.09,37-24.82a278.18,278.18,0,0,1,54.88-37,294.33,294.33,0,0,0,27.13-15.64q6.5-4.25,13.22-7.83c-3.29-2.58-6.28-5-9-7.33-32,18.25-63.72,37-90.86,62.51-15.29,14.39-33.55,24.13-52.73,32.64-18,8-35.74,17.16-51.36,29.39-7.61,6-13.7,13.89-20.35,21.05-20.35,21.9-40.57,43.94-61,65.75a143.84,143.84,0,0,1-14.89,13.32,24.44,24.44,0,0,1-8,3.89c-2.73.86-5.16-.57-5.38-3.44a36.76,36.76,0,0,1,.56-11.14c3.34-14.06,10.39-26.48,18.51-38.19,12.67-18.27,25.95-36.11,38.76-54.28C250,216.2,257.83,204.17,266,192.4a123.31,123.31,0,0,1,9-11.19c10.08-11.43,14.51-25.08,15.62-39.94a448.41,448.41,0,0,1,13.24-78.72,71.16,71.16,0,0,1,5.89-15.28A164.74,164.74,0,0,0,283.53,56C282.76,57.61,282,59.28,281.33,61Z" transform="translate(-0.07 -0.16)" style="fill: url(#linear-gradient-19)"/>
      <path d="M374.38,56.17c6.37,1.68,12.63.42,18.75-1.22,4.51-1.21,9-2.46,13.5-3.72a199.8,199.8,0,0,0-40.76-7.88C364.65,49.75,367.94,54.47,374.38,56.17Z" transform="translate(-0.07 -0.16)" style="fill: url(#linear-gradient-20)"/>
      <path d="M326.58,44.13a47.65,47.65,0,0,0-6.5,15.3c-5.46,24.63-8.21,49.48-5.77,74.75,1.7,17.56-1.5,34-13,47.91-5,6-10.89,11.39-16.53,16.89-8.61,8.38-15.95,17.63-20.53,28.84A32.1,32.1,0,0,0,263,233l1,.79c2.1-1.26,4.29-2.42,6.31-3.81,7.48-5.18,14.49-11.22,22.45-15.49,15.85-8.48,32-16.58,48.42-23.77a158.06,158.06,0,0,0,49.82-33.92c21.9-22.14,45.68-41.67,72.77-57.44q5.28-3.09,10.65-5.89c-2.11-2.11-3.21-3.32-3.21-3.32A129.6,129.6,0,0,0,453,74a307.84,307.84,0,0,0-37,16.15c-9.4,5-18.06,11.32-27.13,16.92-5.47,3.37-10.85,7-16.69,9.64-9.31,4.15-16.93,2-23.57-5.75-6.21-7.25-9.25-15.89-10.37-25.22-.8-6.61-1.34-13.26-1.74-19.91-.51-8.71,2.05-16.2,6.25-23C337.18,43,331.78,43.45,326.58,44.13Z" transform="translate(-0.07 -0.16)" style="fill: url(#linear-gradient-21)"/>
      <path d="M334.4,239.9c10.35-7.68,20.07-16.21,32-21.59,16.89-7.64,32.39-17.58,47.41-28.34,16.58-11.87,33.91-22.38,53.12-29.59,11.64-4.37,23.28-8.8,34.64-13.83,9.09-4,18.27-7.72,27.59-11q-5.42-3.25-10.36-6.52-12,4.9-23.65,11c-11.8,6.12-24.24,11-36.48,16.28-18,7.72-34.21,18.39-49.8,30.1-15,11.25-31.1,20.46-47.94,28.7-9.79,4.79-18.66,11.52-27.72,17.71-5.86,4-11.92,8-16.77,13.1A171,171,0,0,0,299,267.69c-14.27,20.93-28.55,41.88-42,63.36-8.51,13.63-15.72,28.1-23.08,42.42-13.74,26.72-30.82,51.19-49.55,74.55-13.42,16.73-27.23,33.13-40.77,49.76-11.51,14.12-22.21,29-34.51,42.34-11.08,12.07-23.52,23-36,33.68-10.76,9.24-22,18-33.6,26.14q0,8.79,0,17.33c2.11-1.63,4.17-3.33,6.19-5.08,13.94-12.06,27.32-24.77,41.1-37a392.06,392.06,0,0,0,54-58.39c12.24-16.37,24.5-32.78,37.63-48.42,21.13-25.18,40.58-51.51,57.23-79.83,8.77-14.94,16.36-30.58,25.35-45.37,14.14-23.27,29.33-45.89,43.46-69.16C312.58,260.79,321.92,249.16,334.4,239.9Z" transform="translate(-0.07 -0.16)" style="fill: url(#linear-gradient-22)"/>
      <path d="M138.49,269C115.71,297.78,93.38,326.83,73,357.38c-12.56,18.86-24.31,38.14-33.72,58.67q0,9.54,0,19.19,2.2-5.16,4.18-10.46c9.92-26.49,25-50.17,40.62-73.64,20.29-30.52,43.78-58.5,66.61-87,21.11-26.39,41.84-53.17,59.16-82.23,15.93-26.72,29.82-54.52,38.18-84.79,2.46-8.92,5.41-17.7,8.38-26.47A147.19,147.19,0,0,0,241.4,82.07C234,110.45,222.15,137.19,208.16,163A735,735,0,0,1,138.49,269Z" transform="translate(-0.07 -0.16)" style="fill: url(#linear-gradient-23)"/>
      <path d="M192.54,216.83c-23.5,31-48.64,60.68-72.66,91.25-23.06,29.33-44.8,59.8-61.12,93.61-4.91,10.17-8.95,20.79-12.94,31.37a120.06,120.06,0,0,1-6.46,14.43c0,3.25,0,6.49,0,9.74a113.21,113.21,0,0,0,14.22-29,237.52,237.52,0,0,1,23.08-50.49,755.86,755.86,0,0,1,72.53-99.55c23.48-27.15,46-55.17,66-85,17.51-26.16,31.93-54,40.89-84.54,4.53-15.41,10.53-30.41,16.35-45.41l1-2.61q-4.22,2.15-8,4.33c-1.19,3.32-2.35,6.65-3.52,10-6.25,17.68-11.28,35.85-18.5,53.11A405.05,405.05,0,0,1,192.54,216.83Z" transform="translate(-0.07 -0.16)" style="fill: url(#linear-gradient-24)"/>
      <path d="M413.06,173.86c-17.86,14.27-36.56,27-57.72,36.13-15.93,6.83-29.36,17.9-43.52,27.66a46.11,46.11,0,0,0-9.64,9.13c-6.95,8.66-13.37,17.75-20.26,26.45-20.49,25.87-38.66,53.19-53.49,82.72-7,13.89-14.2,27.68-21.87,41.19-11.32,19.95-27.06,36.57-41.79,53.93-15.88,18.71-31.88,37.33-47.37,56.37-15.68,19.29-33.32,36.37-54,50.22-7.51,5-15.3,9.5-23.89,12.11q0,8.78,0,17.36a101.64,101.64,0,0,0,12.84-7.85c27.75-19.57,53.08-41.83,73.4-69.24,14.64-19.76,30.49-38.49,46.64-57a418.55,418.55,0,0,0,63.07-95.72c13.55-28.4,31.15-54.31,49.92-79.46,3.86-5.16,7.7-10.36,11.18-15.77,8.22-12.77,19.37-22.29,31.7-31,13.59-9.59,28-17.48,42.75-25a232.13,232.13,0,0,0,35.35-22.52A293.86,293.86,0,0,1,471,146c10.82-4.56,21.18-10.28,31.52-15.89q5.07-2.75,10.26-5.12-3.13-2.18-6-4.29-3.39,1.68-6.72,3.52c-13,7.21-26,14.57-39.42,20.91C443.71,153.11,427.63,162.23,413.06,173.86Z" transform="translate(-0.07 -0.16)" style="fill: url(#linear-gradient-25)"/>
      <path d="M305.94,837.72c16.18-8.15,32.38-16.24,49.94-21.09,14.51-4,29.45-5.47,44.39-6.46,14.18-.95,28.41-1,42.61-1.66,13.41-.59,26.86-1,40.22-2.14A121,121,0,0,0,533.41,790c21.53-12.48,43.36-24.54,64.1-38.24,15.42-10.18,29.67-22.27,43.83-34.22a171.16,171.16,0,0,1,19.77-14.38v-9.56A186.64,186.64,0,0,0,635,712.26c-12.65,10.81-25.61,21.39-39.25,30.9-20.64,14.4-43.71,24.6-66.16,35.79-15.21,7.58-31.2,13-48.19,14.55-15.14,1.37-30.33,2.19-45.51,2.89-16.53.76-33.09.85-49.6,1.71-12.64.65-25.22,2.15-37.31,6.28-23.36,8-44.36,20.38-64.31,34.64a92.9,92.9,0,0,0-31.48,38.76l8.68,1.84C271.4,861.36,286.3,847.6,305.94,837.72Z" transform="translate(-0.07 -0.16)" style="fill: url(#linear-gradient-26)"/>
      <path d="M47.68,204.3a351.06,351.06,0,0,1,20-29.88c-4.18.5-7.95.81-11.27,1-6.08,9-11.62,18.3-17.07,27.67q0,6.67,0,14.74Q43.54,211.1,47.68,204.3Z" transform="translate(-0.07 -0.16)" style="fill: url(#linear-gradient-27)"/>
      <path d="M335.81,844.3c16.68-6.6,33.75-11.87,51.65-13.79,12.89-1.38,25.84-2.33,38.79-3.16,16.39-1.05,32.79-1.86,49.2-2.62,18.6-.86,36.74-3.87,53.23-13,9.61-5.3,18.78-11.43,27.94-17.51,31.77-21.08,63-42.82,92.12-67.6q6-5.11,12.37-9.64v-7.37a164.63,164.63,0,0,0-17.26,13.16c-28.56,25-60.13,45.64-92.37,65.42-13.57,8.32-26.94,16.86-42.29,21.64a125.64,125.64,0,0,1-32.05,5.57c-23.3,1-46.6,1.87-69.9,2.88C368.86,820,333.36,831.53,300,849.94A80.42,80.42,0,0,0,268.46,881l8.07,1.7c8.52-12.65,20.29-22.49,35.73-29.15C320,850.25,328,847.41,335.81,844.3Z" transform="translate(-0.07 -0.16)" style="fill: url(#linear-gradient-28)"/>
    </g>
  </g>
  <g id="Dust">
    <g style="opacity: 0.32">
      <path d="M278.56,247.67c-1.34,1-.73,2.67-1.35,3.93-.9,1.82-1.37,1.81-3.22-.23l0-.1a2,2,0,0,0,.86-1.83.52.52,0,0,0,.38-.69,2.27,2.27,0,0,0,1.14-1.81l0,.05,2.29.5Z" transform="translate(-0.07 -0.16)" style="fill: #fff"/>
      <path d="M268.72,358.22l.36,1.26c0,.8,0,1.61,0,2.41l-.27,1.39a3.13,3.13,0,0,1-2.56.05l-.21-3.93a2,2,0,0,0,.11-1.2.77.77,0,0,0,.28-.9l1.17-.45Z" transform="translate(-0.07 -0.16)" style="fill: #fff"/>
      <path d="M162,375.7c-.51-1.56.61-2.59,1.21-3.78v0l1.25.05h0a10.06,10.06,0,0,1,.17,1.21c.07.46.13.91.2,1.36.29.39.59.78.89,1.16,0,.37,0,.75-.05,1.12a11.89,11.89,0,0,0-1.16.35l-1.32.31a.4.4,0,0,1,0-.64A1.47,1.47,0,0,0,162,375.7Z" transform="translate(-0.07 -0.16)" style="fill: #fff"/>
      <path d="M457.61,318.24c1.69-.54,2.8-.22,2.67,1.86-.06,1-.18,2-.27,3l0,0c-1.22.19-1.48-1.13-2.34-1.5a.68.68,0,0,0-.23-1l.18-2.46Z" transform="translate(-0.07 -0.16)" style="fill: #fff"/>
      <path d="M369.45,477c-1.63-.85-1.3-1.72,0-2.6a1.53,1.53,0,0,0,1.21-1.17c.81,0,1.91,0,2.07.87.25,1.43-1.09,1.45-2.05,1.69A1.55,1.55,0,0,0,369.45,477Z" transform="translate(-0.07 -0.16)" style="fill: #fff"/>
      <path d="M361.3,598.39v-.07c1.26,1.79,1.71,3.47-.56,4.84l0,0c-.59-1.13-1.56-2.15-1-3.6l-.16.18Z" transform="translate(-0.07 -0.16)" style="fill: #fff"/>
      <path d="M150.64,275.08a7,7,0,0,0-.77.87c-.62.94-1.49,1.39-2.39.65s-.46-1.7.21-2.48c.25-.3.49-.61.73-.91h0c1.14.12,1.49,1.26,2.29,1.81Z" transform="translate(-0.07 -0.16)" style="fill: #fff"/>
      <path d="M257.69,289.43l-1.31.07c-.16-1-.08-2.09-1.2-2.64,0-.8.08-1.83,1-2,1.41-.19,1.31,1.18,1.64,2.06C257.76,287.78,257.73,288.61,257.69,289.43Z" transform="translate(-0.07 -0.16)" style="fill: #fff"/>
      <path d="M514.27,371.81h-1.61l-.45-2.38h0l2.47-1.19,0,0,1.08,2.41.15-.1Z" transform="translate(-0.07 -0.16)" style="fill: #fff"/>
      <path d="M86.16,311l0,.38a3.53,3.53,0,0,1-3.52.33l.15.14a5.16,5.16,0,0,1,0-3.57l-.14.21C84.4,308.5,85.38,309.6,86.16,311Z" transform="translate(-0.07 -0.16)" style="fill: #fff"/>
      <path d="M190.68,523.09c-.27-2.4-.61-4.81.37-7.14h.32C191.7,518.38,193.28,520.94,190.68,523.09Z" transform="translate(-0.07 -0.16)" style="fill: #fff"/>
      <path d="M379.17,805c0,.52,0,1,0,1.55a3.87,3.87,0,0,1-3.46.19l.13.15c0-.73.05-1.47.08-2.2l-.13.14A3.88,3.88,0,0,1,379.17,805Z" transform="translate(-0.07 -0.16)" style="fill: #fff"/>
      <path d="M287.26,762a12.56,12.56,0,0,1-1.45-1.14c-.59-.62-1.08-1.46-.18-2.08s1.49,0,1.94.81C287.46,760.34,287.36,761.15,287.26,762Z" transform="translate(-0.07 -0.16)" style="fill: #fff"/>
      <path d="M398,343.18c3.4.77,3.82,1.37,2.57,3.72l-1.32-1.25v0L398,344.45l0,0C397.94,344,398,343.6,398,343.18Z" transform="translate(-0.07 -0.16)" style="fill: #fff"/>
      <path d="M605.79,547.08c-.21,1.1-.43,2.21-.65,3.31l.07,0L603,549.19c0-.56,0-1.12.07-1.69a2.37,2.37,0,0,0,1-.57Z" transform="translate(-0.07 -0.16)" style="fill: #fff"/>
      <path d="M340.82,129.47c0,1.57,0,3.14,0,4.71-.67.16-1.16,0-1.23-.77-.06-1,.28-2.26-1.13-2.74,0-.42,0-.83,0-1.25l-.07.07Z" transform="translate(-0.07 -0.16)" style="fill: #fff"/>
      <path d="M551.91,639.42c1.59.25,1.08,1.6,1.32,2.56.1.44.2.88.31,1.32l-.38.19-.29-.31a1.08,1.08,0,0,1-.81,0c-1.41-.27-1.2-1.38-1.23-2.37A1.69,1.69,0,0,0,551.91,639.42Z" transform="translate(-0.07 -0.16)" style="fill: #fff"/>
      <path d="M121.15,642.84v-.51l1.14-1.6c2.15.19,2.93,1,1.2,2.82Z" transform="translate(-0.07 -0.16)" style="fill: #fff"/>
      <path d="M585.08,523.09h-.4l-.66-2.33a1,1,0,0,0,.34-.85l2.39-.62-.06,2.57Z" transform="translate(-0.07 -0.16)" style="fill: #fff"/>
      <path d="M440.22,511.83v-1l1.18-1.38,0,0,1.78-1.06.16,0c.2.79.41,1.58.61,2.38l0,0a1.54,1.54,0,0,0-1.25,1.19h0Z" transform="translate(-0.07 -0.16)" style="fill: #fff"/>
      <path d="M272.55,606.86c-.4.75-1,1.31-1.83.85-.62-.33-.49-1-.22-1.57s.54-1.06.82-1.58l1.24-.07Z" transform="translate(-0.07 -0.16)" style="fill: #fff"/>
      <path d="M177.86,441c-.32.19-.68.58-.94.52a.78.78,0,0,1-.52-1.3,1.07,1.07,0,0,1,1-.25C177.68,440.1,177.72,440.62,177.86,441Z" transform="translate(-0.07 -0.16)" style="fill: #fff"/>
      <path d="M257.68,475.32c-.69-.06-1.12-.43-1-1.12a.91.91,0,0,1,1.24-.81,1.24,1.24,0,0,1,.71.76C258.78,474.85,258.33,475.21,257.68,475.32Z" transform="translate(-0.07 -0.16)" style="fill: #fff"/>
      <path d="M391.66,100.68a1.21,1.21,0,0,1,.1,1.18,1.19,1.19,0,0,1-.07.83.55.55,0,0,1,.13.7c-.73-.67-1.58-.36-2.4-.29,0-.82-.08-1.64-.13-2.46Z" transform="translate(-0.07 -0.16)" style="fill: #fff"/>
      <path d="M379.23,504.43c-.93-.11-2-.18-1.82-1.48.13-.82,1-.91,1.78-1C379.21,502.8,379.22,503.62,379.23,504.43Z" transform="translate(-0.07 -0.16)" style="fill: #fff"/>
      <path d="M324.71,109.41l-1.24,0c0-.88-.55-1.17-1.27-1.32a11.46,11.46,0,0,1,.06-1.17l2.43-.11C326.25,107.65,324.87,108.53,324.71,109.41Z" transform="translate(-0.07 -0.16)" style="fill: #fff"/>
      <path d="M319.81,119.78c.23.27.66.54.66.8a.78.78,0,0,1-1.18.76,1.09,1.09,0,0,1-.38-1C319,120.08,319.49,120,319.81,119.78Z" transform="translate(-0.07 -0.16)" style="fill: #fff"/>
      <path d="M201.4,137.21c-.31.18-.67.55-.93.5a.76.76,0,0,1-.51-1.27,1,1,0,0,1,1-.23C201.21,136.36,201.26,136.86,201.4,137.21Z" transform="translate(-0.07 -0.16)" style="fill: #fff"/>
      <path d="M348.34,156.88l-.06-2.49c1,.11,2.2,0,2,1.49C350.13,156.74,349.14,156.83,348.34,156.88Z" transform="translate(-0.07 -0.16)" style="fill: #fff"/>
      <path d="M123.2,549.71c-.3.21-.61.62-.88.59a.78.78,0,0,1-.65-1.25,1.11,1.11,0,0,1,1-.35C123,548.81,123,549.35,123.2,549.71Z" transform="translate(-0.07 -0.16)" style="fill: #fff"/>
      <path d="M319.32,199.56c-.29.21-.61.61-.88.58a.79.79,0,0,1-.65-1.25,1,1,0,0,1,1-.31C319.07,198.7,319.16,199.22,319.32,199.56Z" transform="translate(-0.07 -0.16)" style="fill: #fff"/>
      <path d="M172,204.3c.06-.82.13-1.85,1-2,1.49-.17,1.37,1.1,1.42,2.1Z" transform="translate(-0.07 -0.16)" style="fill: #fff"/>
      <path d="M570.29,208.58c.27.12.75.18.88.42a.81.81,0,0,1-.52,1.25,1,1,0,0,1-.91-.39A.85.85,0,0,1,570.29,208.58Z" transform="translate(-0.07 -0.16)" style="fill: #fff"/>
      <path d="M174.45,564.69c-1.22-.53-1.29-1.59-1.22-2.71C175.15,562.2,176.21,562.8,174.45,564.69Z" transform="translate(-0.07 -0.16)" style="fill: #fff"/>
      <path d="M471.23,568.24c0-.82,0-1.85.9-2,1.39-.25,1.49,1,1.58,2Z" transform="translate(-0.07 -0.16)" style="fill: #fff"/>
      <path d="M108.4,246.84l-.36-.06-.36.05c-.11-.81-.22-1.62-.32-2.42v0l1.52-1.14a1.09,1.09,0,0,0,.67,0l.3,2.41h0Z" transform="translate(-0.07 -0.16)" style="fill: #fff"/>
      <path d="M652.57,256.72c.11,1.07,0,2.06-1.07,2.64l-1.38-1.43,0-2.15a4.17,4.17,0,0,1,1.22-.16l0,0Z" transform="translate(-0.07 -0.16)" style="fill: #fff"/>
      <path d="M155.81,270.65c-1.11.81-2.2,1.64-3.71,1.22q0-.57,0-1.14l1.27-1.3,0,0,2.44.11A6.5,6.5,0,0,0,155.81,270.65Z" transform="translate(-0.07 -0.16)" style="fill: #fff"/>
      <path d="M107.37,595.73c0-.83,0-1.66,0-2.5.79.06,1.8.12,1.93,1C109.57,595.65,108.32,595.6,107.37,595.73Z" transform="translate(-0.07 -0.16)" style="fill: #fff"/>
      <path d="M112.38,280.52c.08-.8.08-1.84,1-1.94,1.42-.15,1.37,1.09,1.45,2.08Z" transform="translate(-0.07 -0.16)" style="fill: #fff"/>
      <path d="M400.29,604.46h2.64c0,.83-.05,1.66-.08,2.49l-2.1-.07C400.6,606.08,400.44,605.27,400.29,604.46Z" transform="translate(-0.07 -0.16)" style="fill: #fff"/>
      <path d="M255.17,288.12a2.46,2.46,0,0,1-1.26,2.59C251.92,288.66,253.55,288.39,255.17,288.12Z" transform="translate(-0.07 -0.16)" style="fill: #fff"/>
      <path d="M262.13,614.34h-1.54c-.11-.77-.23-1.55-.34-2.32l-.08.08,2.41-.05,0,0C262.4,612.78,262.27,613.56,262.13,614.34Z" transform="translate(-0.07 -0.16)" style="fill: #fff"/>
      <path d="M479.88,304.4c-.92-.14-2.34-.17-2-1.41s1.4-.73,2,.18C479.92,303.58,479.9,304,479.88,304.4Z" transform="translate(-0.07 -0.16)" style="fill: #fff"/>
      <path d="M315.92,621.67c-.27-.23-.72-.42-.78-.69a.91.91,0,1,1,1.73.13C316.77,621.38,316.25,621.49,315.92,621.67Z" transform="translate(-0.07 -0.16)" style="fill: #fff"/>
      <path d="M445.59,623.14c.27-.24.54-.67.81-.67a.79.79,0,0,1,.75,1.2,1.09,1.09,0,0,1-1,.37C445.9,624,445.77,623.46,445.59,623.14Z" transform="translate(-0.07 -0.16)" style="fill: #fff"/>
      <path d="M410.39,320.28a.88.88,0,0,1-.72-1.2,1.06,1.06,0,0,1,.89-.48.82.82,0,0,1,.7,1.17C411.18,320,410.69,320.12,410.39,320.28Z" transform="translate(-0.07 -0.16)" style="fill: #fff"/>
      <path d="M320.5,635.55c-.13.33-.19.82-.43,1a.81.81,0,0,1-1.26-.54,1.09,1.09,0,0,1,.4-1C319.75,634.7,320.24,635,320.5,635.55Z" transform="translate(-0.07 -0.16)" style="fill: #fff"/>
      <path d="M504.71,337.12c0,.83.05,1.65.08,2.47l-2.41-.53a1,1,0,0,0-.28-.91l.18-1.22h0Z" transform="translate(-0.07 -0.16)" style="fill: #fff"/>
      <path d="M240.26,640.76l-2.47-.09v-2.35h2.45C240.25,639.14,240.25,640,240.26,640.76Z" transform="translate(-0.07 -0.16)" style="fill: #fff"/>
      <path d="M402.92,340.49c1.09.12,2.21.18,2.66,1.46l-.15.13-1.27,1.1-.58,0H403l-1.28-1.33Z" transform="translate(-0.07 -0.16)" style="fill: #fff"/>
      <path d="M199.37,642.18l2.39-.19c0,.8.07,1.88-.75,2.07C199.65,644.39,199.49,643.2,199.37,642.18Z" transform="translate(-0.07 -0.16)" style="fill: #fff"/>
      <path d="M328.44,647.35c.24.27.68.55.67.82a.78.78,0,0,1-1.18.77,1.13,1.13,0,0,1-.39-1C327.6,647.67,328.12,647.54,328.44,647.35Z" transform="translate(-0.07 -0.16)" style="fill: #fff"/>
      <path d="M133.36,663.21c-.78-.07-1.85,0-2-.92-.17-1.38,1.07-1.41,2-1.55C133.42,661.56,133.38,662.38,133.36,663.21Z" transform="translate(-0.07 -0.16)" style="fill: #fff"/>
      <path d="M117.2,664.92l0,1.71-2.4.37c0-.82,0-1.63,0-2.44Z" transform="translate(-0.07 -0.16)" style="fill: #fff"/>
      <path d="M515.79,669.49c.13-1-.35-2.36,1.37-2.47l0,0,1.13,1.76V669l-2.19,1.2A.55.55,0,0,0,515.79,669.49Z" transform="translate(-0.07 -0.16)" style="fill: #fff"/>
      <path d="M301.19,669.67l2.39-.18c0,.8.07,1.88-.76,2.07C301.47,671.87,301.32,670.68,301.19,669.67Z" transform="translate(-0.07 -0.16)" style="fill: #fff"/>
      <path d="M324.71,677c-.92-.15-2.37-.15-2-1.42s1.42-.76,2.1.12C324.78,676.16,324.74,676.59,324.71,677Z" transform="translate(-0.07 -0.16)" style="fill: #fff"/>
      <path d="M620.06,729.58c.42.43.88.84,1.27,1.3a1.15,1.15,0,0,1,0,1.63c-.92.94-1.43-.17-1.92-.6-.73-.64-.24-1.52-.12-2.3A1.19,1.19,0,0,0,620.06,729.58Z" transform="translate(-0.07 -0.16)" style="fill: #fff"/>
      <path d="M66.71,503.07c-.86-2.21,0-2.87,2.1-2.26l0-.05a7.87,7.87,0,0,0,.13,1.2v0l-1.42,1.17L67.1,503Z" transform="translate(-0.07 -0.16)" style="fill: #fff"/>
      <path d="M642.71,280.63l-.06-2.45a2.41,2.41,0,0,1,2.38,1l-1.24,1.45-.54-.05Z" transform="translate(-0.07 -0.16)" style="fill: #fff"/>
      <path d="M118.4,283.53c-.12.68.46,1.68-.59,1.93-.39.09-1-.49-1.43-.76h-.16l1.62-1.38A.4.4,0,0,0,118.4,283.53Z" transform="translate(-0.07 -0.16)" style="fill: #fff"/>
      <path d="M127.27,285.58a2.63,2.63,0,0,1,1-2.36l1.46,1.17a3.85,3.85,0,0,0-.06,1.07Z" transform="translate(-0.07 -0.16)" style="fill: #fff"/>
      <path d="M97.54,528.18c0-.72-.19-1.66.79-1.7.82,0,1.17.76,1.23,1.57Z" transform="translate(-0.07 -0.16)" style="fill: #fff"/>
      <path d="M518.41,323.25l-.24-1.38a2.17,2.17,0,0,0,.34-1l1-.15,1.3,1.47a.86.86,0,0,0,0,.65Z" transform="translate(-0.07 -0.16)" style="fill: #fff"/>
      <path d="M488.61,551.91l1.3,1.32-1.3,1.26,0,0c-.4-.41-.81-.81-1.22-1.22l0,0c0-.42,0-.84,0-1.26h0Z" transform="translate(-0.07 -0.16)" style="fill: #fff"/>
      <path d="M606.59,367c.5-.95,1.25-1.65,2.11-.6.52.64-.12,1.38-.81,1.81Z" transform="translate(-0.07 -0.16)" style="fill: #fff"/>
      <path d="M429,581.9c-1,.05-2.27.53-2.46-1.19l0,0,1.37-1.17h1c0,.81,0,1.62,0,2.43Z" transform="translate(-0.07 -0.16)" style="fill: #fff"/>
      <path d="M91.57,583.32c.62-.32,1-1.34,1.93-.68a1.15,1.15,0,0,1,.09,1.12c-.55.9-1.38.39-2.11.24A.55.55,0,0,0,91.57,583.32Z" transform="translate(-0.07 -0.16)" style="fill: #fff"/>
      <path d="M596.65,587a2.38,2.38,0,0,1,1.07-2.51l1.39,1.3a6.16,6.16,0,0,0,0,1Z" transform="translate(-0.07 -0.16)" style="fill: #fff"/>
      <path d="M390.55,590.73c-.56-.15-1.51-.16-1.62-.46-.42-1.27.7-1.59,1.54-2C390.5,589.06,390.53,589.89,390.55,590.73Z" transform="translate(-0.07 -0.16)" style="fill: #fff"/>
      <path d="M203,809.51c-.8-.44-1.39-1.13-.64-1.89s1.43-.16,1.88.63Z" transform="translate(-0.07 -0.16)" style="fill: #fff"/>
      <path d="M93.38,600.44c-1.31-1-.93-2.11-.37-3.28l.12,0a2.76,2.76,0,0,1,.21,3.42Z" transform="translate(-0.07 -0.16)" style="fill: #fff"/>
      <path d="M237.78,146.84c0-.42,0-.84,0-1.26.43-.39.86-.78,1.28-1.18,1.15.46,1.24,1.44,1.21,2.48Z" transform="translate(-0.07 -0.16)" style="fill: #fff"/>
      <path d="M166.18,154.51l.52,0,1.51,1.25a3,3,0,0,0,0,1l-2.44.23h0Z" transform="translate(-0.07 -0.16)" style="fill: #fff"/>
      <path d="M412.73,200.62a2.81,2.81,0,0,1-2.25-.85l1.45-1.53.54,0C412.56,199.05,412.64,199.83,412.73,200.62Z" transform="translate(-0.07 -0.16)" style="fill: #fff"/>
      <path d="M517.84,452.52c-.32.16-.66.49-.94.44a.78.78,0,0,1-.57-1.25,1,1,0,0,1,.92-.14C517.54,451.75,517.65,452.19,517.84,452.52Z" transform="translate(-0.07 -0.16)" style="fill: #fff"/>
      <path d="M303.59,668.21,302.25,667l.09-1.31,2.47.12C304.78,666.81,304.66,667.75,303.59,668.21Z" transform="translate(-0.07 -0.16)" style="fill: #fff"/>
      <path d="M251.47,812.11l-2.42-.32a1.08,1.08,0,0,0,0-.73l1.3-1.51a5.18,5.18,0,0,0,.88,0c.1.83.21,1.65.31,2.47Z" transform="translate(-0.07 -0.16)" style="fill: #fff"/>
      <path d="M333.38,668.21a4.23,4.23,0,0,1,1.23,0,1,1,0,0,0,1.18,1.17c.16.18.31.35.45.53a2.51,2.51,0,0,0-.34.83l-2.18-.11c-.12-.8-.25-1.61-.37-2.41Z" transform="translate(-0.07 -0.16)" style="fill: #fff"/>
      <path d="M150.86,465.6c0-.38,0-.76,0-1.14l1.31-1.22,0,.05.57,0,.58,0v-.07c0,.81,0,1.64,0,2.46v0Z" transform="translate(-0.07 -0.16)" style="fill: #fff"/>
      <path d="M482.44,673.33c.79-.49,1.31-1.46,2.43-1.32.27,2.7.27,2.7-2.37,2.27A1.41,1.41,0,0,0,482.44,673.33Z" transform="translate(-0.07 -0.16)" style="fill: #fff"/>
      <path d="M447.36,471.86c-.16.34-.25.85-.51,1s-.69-.18-1-.3a4.43,4.43,0,0,1,.6-1C446.82,471.18,447.18,471.34,447.36,471.86Z" transform="translate(-0.07 -0.16)" style="fill: #fff"/>
      <path d="M450.05,241.93l1.34-1.39,1.22.1v1.3l-1.2,1.23,0,0Z" transform="translate(-0.07 -0.16)" style="fill: #fff"/>
      <path d="M95,244.45l2.4,1.36a.85.85,0,0,0,0,.76l-2.39.35h0c0-.83,0-1.65.05-2.48Z" transform="translate(-0.07 -0.16)" style="fill: #fff"/>
      <path d="M583,483.16c.61-.82,1.38-1.62,2.17-.4.45.7-.2,1.4-1,1.7Z" transform="translate(-0.07 -0.16)" style="fill: #fff"/>
      <path d="M232.76,793.43a3.29,3.29,0,0,0,0,1l-1.74,1.16-.86-1.14c0-.41.08-.82.14-1.22h0Z" transform="translate(-0.07 -0.16)" style="fill: #fff"/>
      <path d="M286.21,494.4c.44-.78,1.13-1.33,1.87-.63s.18,1.42-.55,1.91Z" transform="translate(-0.07 -0.16)" style="fill: #fff"/>
      <path d="M257.68,728.35l-2.48-.19C256.13,726.83,257,726.63,257.68,728.35Z" transform="translate(-0.07 -0.16)" style="fill: #fff"/>
      <path d="M519.62,726.88c-.67,0-1.34-.17-1.15-1,.23-1,.81-.57,1.3-.14A7.42,7.42,0,0,0,519.62,726.88Z" transform="translate(-0.07 -0.16)" style="fill: #fff"/>
      <path d="M317.3,113.12l0-2.45a6.32,6.32,0,0,1,1.23,0c0,.44,0,.89,0,1.33a2.89,2.89,0,0,1-.11,1.13H317.3Z" transform="translate(-0.07 -0.16)" style="fill: #fff"/>
      <path d="M312.28,123.13l2.47.05c0,.36,0,.72,0,1.08l-2.45.12C312.27,124,312.26,123.54,312.28,123.13Z" transform="translate(-0.07 -0.16)" style="fill: #fff"/>
      <path d="M196.81,125.68l2.47,0v1.3l-2.45-.18C196.82,126.4,196.81,126,196.81,125.68Z" transform="translate(-0.07 -0.16)" style="fill: #fff"/>
      <path d="M130.88,714.53c.06.83.11,1.66.17,2.49l-1.34,0c0-.83.11-1.65.16-2.47A8.51,8.51,0,0,0,130.88,714.53Z" transform="translate(-0.07 -0.16)" style="fill: #fff"/>
      <path d="M291.66,135.43c-.18-.78-.36-1.55-.55-2.33,2.88-.12.87,1.43.78,2.32Z" transform="translate(-0.07 -0.16)" style="fill: #fff"/>
      <path d="M383.09,139.46l2.24.45.07.15-2.31.47A9.55,9.55,0,0,1,383.09,139.46Z" transform="translate(-0.07 -0.16)" style="fill: #fff"/>
      <path d="M381.43,156.79c-.61-.91-1.33-1.85.38-2.39C381.68,155.2,381.56,156,381.43,156.79Z" transform="translate(-0.07 -0.16)" style="fill: #fff"/>
      <path d="M139.76,165.59c-.07-1-.07-2,1.14-2.4C140.9,164.17,140.82,165.12,139.76,165.59Z" transform="translate(-0.07 -0.16)" style="fill: #fff"/>
      <path d="M244,174.55l2.44-.19v1.34l-2.45-.21A5.93,5.93,0,0,0,244,174.55Z" transform="translate(-0.07 -0.16)" style="fill: #fff"/>
      <path d="M306.08,181.92l2.47,0v1.26l-2.47-.07Z" transform="translate(-0.07 -0.16)" style="fill: #fff"/>
      <path d="M432.66,196.89c-1.33-.91-1.62-1.76.14-2.5C432.75,195.22,432.7,196.06,432.66,196.89Z" transform="translate(-0.07 -0.16)" style="fill: #fff"/>
      <path d="M224.17,202.07c.9.05,1.4.55,1.23,1.43a1.12,1.12,0,0,1-1.26.82Z" transform="translate(-0.07 -0.16)" style="fill: #fff"/>
      <path d="M655,213c-1.09-.24-1.77-.79-.86-1.82.34-.39.88.22,1.12.72A3.16,3.16,0,0,0,655,213Z" transform="translate(-0.07 -0.16)" style="fill: #fff"/>
      <path d="M339.68,214.61l2.39-.18,0,1.32-2.46-.28A4.13,4.13,0,0,0,339.68,214.61Z" transform="translate(-0.07 -0.16)" style="fill: #fff"/>
      <path d="M234.05,229.41l2.38.22a4.74,4.74,0,0,0,0,.84l-2.44.26C234,230.29,234,229.85,234.05,229.41Z" transform="translate(-0.07 -0.16)" style="fill: #fff"/>
      <path d="M222.9,233.23l2.46-.09c0,.42,0,.83,0,1.24l-2.45-.12Z" transform="translate(-0.07 -0.16)" style="fill: #fff"/>
      <path d="M263.85,239.41c0-.83,0-1.66,0-2.49H265l0,2.49h-1.22Z" transform="translate(-0.07 -0.16)" style="fill: #fff"/>
      <path d="M455.09,238.16l1.26,0,0,2.55h0a2.71,2.71,0,0,1-1.2-.12C455.11,239.74,455.1,239,455.09,238.16Z" transform="translate(-0.07 -0.16)" style="fill: #fff"/>
      <path d="M461.32,248.15l0-2.49C462.72,246.47,462.7,247.31,461.32,248.15Z" transform="translate(-0.07 -0.16)" style="fill: #fff"/>
      <path d="M215.4,250.59l2.37.34a1.79,1.79,0,0,0,0,.69l-2.41.4C215.4,251.54,215.4,251.07,215.4,250.59Z" transform="translate(-0.07 -0.16)" style="fill: #fff"/>
      <path d="M168.23,265.67c0-.83,0-1.66,0-2.49C169.61,264,169.65,264.86,168.23,265.67Z" transform="translate(-0.07 -0.16)" style="fill: #fff"/>
      <path d="M575.58,263.22c1.74.16,1.38,1.31,1.14,2.42a1.86,1.86,0,0,1-1.39-1.25c.11-.4.2-.8.28-1.2Z" transform="translate(-0.07 -0.16)" style="fill: #fff"/>
      <path d="M131.72,698.49c.16.75.33,1.5.5,2.25-1.9-.22-.95-1.34-.72-2.24Z" transform="translate(-0.07 -0.16)" style="fill: #fff"/>
      <path d="M354.53,278.05c0,.86-.09,1.71-.13,2.56C353.08,279.7,353.11,278.84,354.53,278.05Z" transform="translate(-0.07 -0.16)" style="fill: #fff"/>
      <path d="M639.07,279.87c.92-.18,2.08-1,2.31.8v0l-2.36-.51Z" transform="translate(-0.07 -0.16)" style="fill: #fff"/>
      <path d="M127.44,294.33c-.07-.81-.15-1.62-.23-2.43l0,0,1.27-.05.09.08-.3,2.46A4.91,4.91,0,0,0,127.44,294.33Z" transform="translate(-0.07 -0.16)" style="fill: #fff"/>
      <path d="M523.36,694.43l-2.46.08v-1.32l2.46.15Z" transform="translate(-0.07 -0.16)" style="fill: #fff"/>
      <path d="M68.79,302c.1-.82.19-1.63.29-2.45a2.75,2.75,0,0,0,.86,0c.08.83.17,1.65.25,2.47Z" transform="translate(-0.07 -0.16)" style="fill: #fff"/>
      <path d="M636.46,303.15c0-.8.06-1.61.1-2.41.33,0,.66,0,1-.05.09.83.18,1.67.26,2.5Z" transform="translate(-0.07 -0.16)" style="fill: #fff"/>
      <path d="M225.35,305.66l2.48,0c0,.39,0,.78,0,1.17l-2.47.06Z" transform="translate(-0.07 -0.16)" style="fill: #fff"/>
      <path d="M165.8,326.9v-2.45C167.26,325.27,167.26,326.08,165.8,326.9Z" transform="translate(-0.07 -0.16)" style="fill: #fff"/>
      <path d="M175.62,329.26l-1.14.27c-.68.17-1.06-.25-1.43-.71a7.41,7.41,0,0,1,1.43-.78,2.78,2.78,0,0,1,1.14.16A3.43,3.43,0,0,0,175.62,329.26Z" transform="translate(-0.07 -0.16)" style="fill: #fff"/>
      <path d="M92.46,329.41l2.46.1-1.19,1.31A1.83,1.83,0,0,1,92.46,329.41Z" transform="translate(-0.07 -0.16)" style="fill: #fff"/>
      <path d="M318.49,346.94H321c0,.39,0,.79,0,1.18l-2.47,0Z" transform="translate(-0.07 -0.16)" style="fill: #fff"/>
      <path d="M523.38,350.69c0-.83.06-1.65.1-2.47.31,0,.62,0,.93,0,.07.81.15,1.62.22,2.44h0l-1.25,0Z" transform="translate(-0.07 -0.16)" style="fill: #fff"/>
      <path d="M462.58,685.72c0,.83-.07,1.66-.11,2.49C461.09,687.31,460.92,686.47,462.58,685.72Z" transform="translate(-0.07 -0.16)" style="fill: #fff"/>
      <path d="M447.45,686.56l-2.27.35c0-.36,0-.72,0-1.08l2.33.41Z" transform="translate(-0.07 -0.16)" style="fill: #fff"/>
      <path d="M156.32,355.47c-.16-.35-.31-.71-.48-1.06a.83.83,0,0,1,.6-1.27.81.81,0,0,1,.57,1.26c-.18.35-.32.71-.48,1.07Z" transform="translate(-0.07 -0.16)" style="fill: #fff"/>
      <path d="M318.88,356.67l-.39-2.24h0a3,3,0,0,1,1.2.13A2.64,2.64,0,0,1,318.88,356.67Z" transform="translate(-0.07 -0.16)" style="fill: #fff"/>
      <path d="M190.59,358.2l2.45,0c0,.35,0,.69,0,1l-2.42.06A8.53,8.53,0,0,1,190.59,358.2Z" transform="translate(-0.07 -0.16)" style="fill: #fff"/>
      <path d="M563.15,360.68c-1.23-.4-1.2-1.43-1.2-2.45l0,0c.36,0,.72,0,1.07,0Z" transform="translate(-0.07 -0.16)" style="fill: #fff"/>
      <path d="M606.61,359.49l2.46,0q0,.62,0,1.23l-2.46-.09C606.6,360.22,606.61,359.85,606.61,359.49Z" transform="translate(-0.07 -0.16)" style="fill: #fff"/>
      <path d="M363.23,364.41c0-.82,0-1.65,0-2.48C364.77,362.73,364.76,363.56,363.23,364.41Z" transform="translate(-0.07 -0.16)" style="fill: #fff"/>
      <path d="M364.34,367.94c-1.32-.26-1.36-1.22-1.21-2.28C364.57,365.86,364.36,367,364.34,367.94Z" transform="translate(-0.07 -0.16)" style="fill: #fff"/>
      <path d="M172,370.68c-1.56-.82-1.51-1.65,0-2.5Z" transform="translate(-0.07 -0.16)" style="fill: #fff"/>
      <path d="M65.17,369.47c1.24.39,1.23,1.38,1.14,2.41C65.27,371.39,65.16,370.46,65.17,369.47Z" transform="translate(-0.07 -0.16)" style="fill: #fff"/>
      <path d="M388.25,393.09c0-.7-.66-1.95.18-2,1.57-.08.48,1.26.61,2l-.4,0Z" transform="translate(-0.07 -0.16)" style="fill: #fff"/>
      <path d="M229.17,398.15c0-.82,0-1.64-.08-2.46C230.81,396.46,230.55,397.28,229.17,398.15Z" transform="translate(-0.07 -0.16)" style="fill: #fff"/>
      <path d="M331,407l2.45-.1c0,.42,0,.84,0,1.26l-2.45-.09C330.94,407.75,330.94,407.4,331,407Z" transform="translate(-0.07 -0.16)" style="fill: #fff"/>
      <path d="M75.09,421.94l2.47,0c0,.38,0,.75,0,1.13l-2.46.12Z" transform="translate(-0.07 -0.16)" style="fill: #fff"/>
      <path d="M195.56,424.44c0-.83,0-1.66,0-2.49h1.18c0,.83,0,1.66.07,2.5Z" transform="translate(-0.07 -0.16)" style="fill: #fff"/>
      <path d="M379.56,428.64l2.25-.41c0,.35,0,.71,0,1.07l-2.32-.38Z" transform="translate(-0.07 -0.16)" style="fill: #fff"/>
      <path d="M75,434.43c-1.58-.77-1.36-1.6-.07-2.46C75,432.79,75,433.61,75,434.43Z" transform="translate(-0.07 -0.16)" style="fill: #fff"/>
      <path d="M466.28,434.47l2.47,0v1.26l-2.48,0C466.27,435.27,466.27,434.87,466.28,434.47Z" transform="translate(-0.07 -0.16)" style="fill: #fff"/>
      <path d="M468.71,439.46c0-.77.07-1.54.1-2.31C470.14,438,470.39,438.77,468.71,439.46Z" transform="translate(-0.07 -0.16)" style="fill: #fff"/>
      <path d="M70.25,444.4l-.18-2.47,1.27,0-.18,2.44H70.7Z" transform="translate(-0.07 -0.16)" style="fill: #fff"/>
      <path d="M471.28,447c-1.79-.68-1.37-1.55-.19-2.47C471.15,445.3,471.22,446.13,471.28,447Z" transform="translate(-0.07 -0.16)" style="fill: #fff"/>
      <path d="M384.33,447c.75-.08,1.86-.17,1.82.67s-1.21.64-2,.55A7.15,7.15,0,0,0,384.33,447Z" transform="translate(-0.07 -0.16)" style="fill: #fff"/>
      <path d="M393,452c-1.49-.77-1.33-1.6-.1-2.48C392.92,450.3,393,451.12,393,452Z" transform="translate(-0.07 -0.16)" style="fill: #fff"/>
      <path d="M457.57,449.44l2.47,0c0,.37,0,.74,0,1.11l-2.46.15Z" transform="translate(-0.07 -0.16)" style="fill: #fff"/>
      <path d="M145.18,455.5c-.17-.76-.33-1.52-.5-2.28l0,0,.61-.05h.62a3.22,3.22,0,0,1-.6,2.36Z" transform="translate(-0.07 -0.16)" style="fill: #fff"/>
      <path d="M153.25,470.75l.09,2.5C152,472.47,151.92,471.63,153.25,470.75Z" transform="translate(-0.07 -0.16)" style="fill: #fff"/>
      <path d="M457.66,470.93c1.44.81,1.49,1.57-.09,2.27Z" transform="translate(-0.07 -0.16)" style="fill: #fff"/>
      <path d="M117.31,473.23a8.15,8.15,0,0,1,0,1.21l-2.45-.1,1.24-1.25Z" transform="translate(-0.07 -0.16)" style="fill: #fff"/>
      <path d="M311.59,480.5c-.27-.9-1.36-2,.67-2.25l0,0c-.18.78-.37,1.55-.55,2.33Z" transform="translate(-0.07 -0.16)" style="fill: #fff"/>
      <path d="M138.48,479.58l2.42-.1a5.43,5.43,0,0,1,0,1.21l-2.44-.18C138.48,480.2,138.49,479.89,138.48,479.58Z" transform="translate(-0.07 -0.16)" style="fill: #fff"/>
      <path d="M369.54,481.79c0-.78-.08-1.55-.11-2.33l1.3,0C371,480.57,371,481.55,369.54,481.79Z" transform="translate(-0.07 -0.16)" style="fill: #fff"/>
      <path d="M507.25,479.48l2.46,0c0,.38,0,.76,0,1.14l-2.48.09C507.25,480.31,507.25,479.89,507.25,479.48Z" transform="translate(-0.07 -0.16)" style="fill: #fff"/>
      <path d="M237.84,480.86l2.42-.18c0,.42,0,.85,0,1.27l-2.43-.22A5.06,5.06,0,0,0,237.84,480.86Z" transform="translate(-0.07 -0.16)" style="fill: #fff"/>
      <path d="M75.07,483.14l2.45.2a4.51,4.51,0,0,0,0,.9l-2.43.24,0,0c0-.42,0-.85,0-1.27Z" transform="translate(-0.07 -0.16)" style="fill: #fff"/>
      <path d="M85.06,483.19c0,.82,0,1.64-.07,2.46-1.31-.37-1.35-1.35-1.19-2.44Z" transform="translate(-0.07 -0.16)" style="fill: #fff"/>
      <path d="M579.17,484.43l2.55.12c0,.33,0,.66,0,1l-2.43.11C579.25,485.24,579.22,484.83,579.17,484.43Z" transform="translate(-0.07 -0.16)" style="fill: #fff"/>
      <path d="M195.49,491.94c-1.31-.85-1.38-1.68,0-2.48C195.52,490.29,195.51,491.11,195.49,491.94Z" transform="translate(-0.07 -0.16)" style="fill: #fff"/>
      <path d="M353.27,489.45l-.15,2.58a3.78,3.78,0,0,0-.95,0l-.15-2.58Z" transform="translate(-0.07 -0.16)" style="fill: #fff"/>
      <path d="M174.43,494.46l.09-2.47h1c.05.82.11,1.65.16,2.47Z" transform="translate(-0.07 -0.16)" style="fill: #fff"/>
      <path d="M460.08,494.45c0-.83,0-1.65,0-2.48.37,0,.73,0,1.1,0l.05,2.46-.58,0Z" transform="translate(-0.07 -0.16)" style="fill: #fff"/>
      <path d="M600.38,495.7l2.48,0v1.19l-2.48,0C600.37,496.53,600.37,496.11,600.38,495.7Z" transform="translate(-0.07 -0.16)" style="fill: #fff"/>
      <path d="M213,503.25l2.37.18a4.44,4.44,0,0,0,.07.9l-2.47.27Z" transform="translate(-0.07 -0.16)" style="fill: #fff"/>
      <path d="M229.1,663.23c-.08.78-.17,1.58-.25,2.37C227.88,664.69,227.5,663.85,229.1,663.23Z" transform="translate(-0.07 -0.16)" style="fill: #fff"/>
      <path d="M307.57,531.84l-.27-2.39h1.26v0c-.1.81-.2,1.61-.31,2.42l-.34,0Z" transform="translate(-0.07 -0.16)" style="fill: #fff"/>
      <path d="M208,533.23h2.47c0,.4,0,.8,0,1.21l-2.46,0C208,534,208,533.62,208,533.23Z" transform="translate(-0.07 -0.16)" style="fill: #fff"/>
      <path d="M583.13,540.62a1.92,1.92,0,0,1,2.36-1.18c0,.46,0,.92,0,1.38l-2.47-.23Z" transform="translate(-0.07 -0.16)" style="fill: #fff"/>
      <path d="M287.45,659.49l-2.42-.18a3.45,3.45,0,0,0,0-.85l2.44-.28,0,0,0,1.27Z" transform="translate(-0.07 -0.16)" style="fill: #fff"/>
      <path d="M157,544.46c-1.33-.86-1.41-1.7,0-2.5C157.05,542.79,157,543.63,157,544.46Z" transform="translate(-0.07 -0.16)" style="fill: #fff"/>
      <path d="M147.08,658.16l-2.46.11C145.37,656.69,146.2,656.83,147.08,658.16Z" transform="translate(-0.07 -0.16)" style="fill: #fff"/>
      <path d="M135.7,657.69a4.73,4.73,0,0,1-1.7.28c-.59-.12-.58-.73,0-.82a4.82,4.82,0,0,1,1.69.37Z" transform="translate(-0.07 -0.16)" style="fill: #fff"/>
      <path d="M184.58,554.34c-.08-.79-.17-1.59-.25-2.39l0,0,1.25.05A2.2,2.2,0,0,1,184.58,554.34Z" transform="translate(-0.07 -0.16)" style="fill: #fff"/>
      <path d="M176.94,553.27l2.43,0c0,.34,0,.68,0,1l-2.44.07A7.11,7.11,0,0,1,176.94,553.27Z" transform="translate(-0.07 -0.16)" style="fill: #fff"/>
      <path d="M434,553.18l2.31.17a2.06,2.06,0,0,1-2.33,1.2C434,554.09,434,553.64,434,553.18Z" transform="translate(-0.07 -0.16)" style="fill: #fff"/>
      <path d="M169.53,563.37c.75-.12,1.94-.24,1.94.5s-1.2.59-1.95.46C169.52,564,169.52,563.69,169.53,563.37Z" transform="translate(-0.07 -0.16)" style="fill: #fff"/>
      <path d="M231.72,571.87l-.24-2.43C233.1,570.1,232.9,570.93,231.72,571.87Z" transform="translate(-0.07 -0.16)" style="fill: #fff"/>
      <path d="M438.93,574.48c0-.82.07-1.64.1-2.46C440.3,572.9,440.38,573.72,438.93,574.48Z" transform="translate(-0.07 -0.16)" style="fill: #fff"/>
      <path d="M261.19,581.93c-1.07-.94-1.62-1.84.26-2.47C261.36,580.28,261.28,581.11,261.19,581.93Z" transform="translate(-0.07 -0.16)" style="fill: #fff"/>
      <path d="M357.17,586.14c1-.38,2-1.14,2.21.77l.05,0-2.3-.44Z" transform="translate(-0.07 -0.16)" style="fill: #fff"/>
      <path d="M556.94,598.28l2.46-.06C558.61,599.68,557.79,599.65,556.94,598.28Z" transform="translate(-0.07 -0.16)" style="fill: #fff"/>
      <path d="M352.2,602.4c.38-.11.76-.2,1.13-.33.75-.25,1.05.11.93.79-.1.51-.48.56-.95.31a6.88,6.88,0,0,0-1.11-.37Z" transform="translate(-0.07 -0.16)" style="fill: #fff"/>
      <path d="M272.56,604.49l1.26,0c.1.43.21.86.32,1.3l-1.59,1.12Z" transform="translate(-0.07 -0.16)" style="fill: #fff"/>
      <path d="M535.68,632c.12.79.22,2.05-.5,2.05s-.61-1.26-.49-2.05C535,632,535.35,632,535.68,632Z" transform="translate(-0.07 -0.16)" style="fill: #fff"/>
      <path d="M530.85,637c.62.11,1.6-.37,1.56.82,0,.14-1,.25-1.56.38A8,8,0,0,1,530.85,637Z" transform="translate(-0.07 -0.16)" style="fill: #fff"/>
      <path d="M420.26,644.51c.06-.82.12-1.64.19-2.46C421.67,643,422,643.82,420.26,644.51Z" transform="translate(-0.07 -0.16)" style="fill: #fff"/>
      <path d="M493.69,644.44l-.06-2.44a7.75,7.75,0,0,1,1.18,0v2.46h-1.12Z" transform="translate(-0.07 -0.16)" style="fill: #fff"/>
      <path d="M315.15,650.56c-.13-.77-.25-1.54-.37-2.31,1.9.18,1,1.37.79,2.29Z" transform="translate(-0.07 -0.16)" style="fill: #fff"/>
      <path d="M431.51,829.51c0,.83-.05,1.65-.08,2.48h-1l-.12-2.46A10.1,10.1,0,0,1,431.51,829.51Z" transform="translate(-0.07 -0.16)" style="fill: #fff"/>
      <path d="M293.66,827l-.18,2.43a6.56,6.56,0,0,0-.89,0c-.07-.82-.13-1.64-.2-2.46Z" transform="translate(-0.07 -0.16)" style="fill: #fff"/>
      <path d="M281.23,795.76c-.05.81-.11,1.62-.16,2.42-.3,0-.59,0-.88,0l-.22-2.46,0,0,1.24,0Z" transform="translate(-0.07 -0.16)" style="fill: #fff"/>
      <path d="M258.86,784.6c-.88,1.23-1.71,1.4-2.46-.11Z" transform="translate(-0.07 -0.16)" style="fill: #fff"/>
      <path d="M290,779.49l-.3,2.39h-.36l-.35,0c-.12-.81-.23-1.62-.34-2.43Z" transform="translate(-0.07 -0.16)" style="fill: #fff"/>
      <path d="M334.3,777.17c.1.78.21,1.55.31,2.33l-1.08,0c.09-.78.19-1.57.28-2.35Z" transform="translate(-0.07 -0.16)" style="fill: #fff"/>
      <path d="M229.05,775.81c-.84,1.32-1.67,1.38-2.45,0Z" transform="translate(-0.07 -0.16)" style="fill: #fff"/>
      <path d="M353.28,774.55c1.82.1,1.32,1.33,1.15,2.4l0,0a4,4,0,0,1-1.14-.14C353.32,776,353.29,775.29,353.28,774.55Z" transform="translate(-0.07 -0.16)" style="fill: #fff"/>
      <path d="M124.55,768.35l.3,2.43-1.34,0c.09-.81.19-1.62.28-2.43A2.16,2.16,0,0,0,124.55,768.35Z" transform="translate(-0.07 -0.16)" style="fill: #fff"/>
      <path d="M80,762l-2.45,0a7.62,7.62,0,0,1,0-1.17l2.42,0C80,761.21,80.05,761.58,80,762Z" transform="translate(-0.07 -0.16)" style="fill: #fff"/>
      <path d="M388,749.55l-.33,2.27-.43.07-.45-2.4,0,0a12.09,12.09,0,0,1,1.21.11Z" transform="translate(-0.07 -0.16)" style="fill: #fff"/>
      <path d="M139.35,748.41c.1.77.19,1.55.29,2.33h-1.15c.07-.81.14-1.61.22-2.42A1,1,0,0,0,139.35,748.41Z" transform="translate(-0.07 -0.16)" style="fill: #fff"/>
      <path d="M145.72,739.59l.21,2.43C144.32,741.34,144.55,740.51,145.72,739.59Z" transform="translate(-0.07 -0.16)" style="fill: #fff"/>
      <path d="M275.05,738.31c1.79.12,1.5,1.27,1.19,2.43C274.93,740.38,275,739.33,275.05,738.31Z" transform="translate(-0.07 -0.16)" style="fill: #fff"/>
      <path d="M311.08,85.74c.3.12.83.19.87.37.15.7-.38.73-.89.72A8,8,0,0,1,311.08,85.74Z" transform="translate(-0.07 -0.16)" style="fill: #fff"/>
      <path d="M422.79,100.61a1.15,1.15,0,0,1,1.28,1.29A1.37,1.37,0,0,1,422.79,100.61Z" transform="translate(-0.07 -0.16)" style="fill: #fff"/>
      <path d="M364.43,109.37c-.54,0-1.1,0-.94-.74,0-.18.59-.26.91-.38C364.42,108.62,364.43,109,364.43,109.37Z" transform="translate(-0.07 -0.16)" style="fill: #fff"/>
      <path d="M456.3,118.15c0,.85-.35,1.27-1.21,1.23A1.21,1.21,0,0,1,456.3,118.15Z" transform="translate(-0.07 -0.16)" style="fill: #fff"/>
      <path d="M217.94,122a3.09,3.09,0,0,1,1.17-.08c0,.78-.39,1.21-1.2,1.18A10.17,10.17,0,0,1,217.94,122Z" transform="translate(-0.07 -0.16)" style="fill: #fff"/>
      <path d="M424,144.31c-.48,0-1.08,0-.92-.73,0-.17.6-.23.92-.35A6.49,6.49,0,0,1,424,144.31Z" transform="translate(-0.07 -0.16)" style="fill: #fff"/>
      <path d="M404.16,150.61c.92-.07,1.33.38,1.27,1.29A1.28,1.28,0,0,1,404.16,150.61Z" transform="translate(-0.07 -0.16)" style="fill: #fff"/>
      <path d="M222.87,151.89a1.44,1.44,0,0,1-1.23,1.23A1.53,1.53,0,0,1,222.87,151.89Z" transform="translate(-0.07 -0.16)" style="fill: #fff"/>
      <path d="M261.37,151.91c.57,0,1.2,0,1,.79,0,.19-.66.25-1,.38C261.38,152.69,261.37,152.3,261.37,151.91Z" transform="translate(-0.07 -0.16)" style="fill: #fff"/>
      <path d="M365.7,167c.34.12.93.18,1,.36.17.77-.44.77-1,.78A10.84,10.84,0,0,1,365.7,167Z" transform="translate(-0.07 -0.16)" style="fill: #fff"/>
      <path d="M90,176.91a1.51,1.51,0,0,1,1.23,1.23A1.56,1.56,0,0,1,90,176.91Z" transform="translate(-0.07 -0.16)" style="fill: #fff"/>
      <path d="M82.52,190.58c-1.07-.37-1-.75,0-1.12A10.46,10.46,0,0,1,82.52,190.58Z" transform="translate(-0.07 -0.16)" style="fill: #fff"/>
      <path d="M286.21,214.4c0-.41,0-.83,0-1.24h1.24c0,.39,0,.77,0,1.16a4.82,4.82,0,0,1-1.2,0Z" transform="translate(-0.07 -0.16)" style="fill: #fff"/>
      <path d="M73.83,238.09l-.9-.55c.3-.18.6-.36.89-.55A10.09,10.09,0,0,1,73.83,238.09Z" transform="translate(-0.07 -0.16)" style="fill: #fff"/>
      <path d="M457.59,238.2h-1.32c0-.89.41-1.29,1.28-1.22C457.55,237.38,457.57,237.79,457.59,238.2Z" transform="translate(-0.07 -0.16)" style="fill: #fff"/>
      <path d="M258.91,239.43a5.8,5.8,0,0,1,1.18.06c0,.37,0,.74,0,1.12A1.3,1.3,0,0,1,258.91,239.43Z" transform="translate(-0.07 -0.16)" style="fill: #fff"/>
      <path d="M168.25,248.22c.35.12.95.17,1,.36.17.8-.46.78-1,.78A10.84,10.84,0,0,1,168.25,248.22Z" transform="translate(-0.07 -0.16)" style="fill: #fff"/>
      <path d="M101.26,252a9,9,0,0,1,1.16,0c0,.86-.39,1.27-1.25,1.25A4.9,4.9,0,0,1,101.26,252Z" transform="translate(-0.07 -0.16)" style="fill: #fff"/>
      <path d="M245.24,258.21a1.33,1.33,0,0,1,1.18,1.19A1.49,1.49,0,0,1,245.24,258.21Z" transform="translate(-0.07 -0.16)" style="fill: #fff"/>
      <path d="M109.84,274.34c-.49,0-1,0-.86-.72,0-.17.55-.23.85-.35A7.64,7.64,0,0,1,109.84,274.34Z" transform="translate(-0.07 -0.16)" style="fill: #fff"/>
      <path d="M135.91,291.93a1.12,1.12,0,0,1-1.21,1.25A1.31,1.31,0,0,1,135.91,291.93Z" transform="translate(-0.07 -0.16)" style="fill: #fff"/>
      <path d="M430.25,296.91l-1-.52.92-.58C430.23,296.18,430.24,296.54,430.25,296.91Z" transform="translate(-0.07 -0.16)" style="fill: #fff"/>
      <path d="M217.88,314.36c-.47,0-1-.05-.84-.7,0-.17.53-.24.81-.36A7.47,7.47,0,0,1,217.88,314.36Z" transform="translate(-0.07 -0.16)" style="fill: #fff"/>
      <path d="M324.7,314.42c0-.41,0-.83,0-1.25h1.24c0,.39,0,.78,0,1.18a5.52,5.52,0,0,1-1.22.05Z" transform="translate(-0.07 -0.16)" style="fill: #fff"/>
      <path d="M419,315.55c-.3-.12-.82-.19-.85-.37-.16-.69.37-.75.89-.72C419.07,314.82,419.06,315.19,419,315.55Z" transform="translate(-0.07 -0.16)" style="fill: #fff"/>
      <path d="M297.41,329.42c-.05-.87.35-1.29,1.21-1.25h0a4.1,4.1,0,0,1-.15,1.21C298.12,329.41,297.76,329.42,297.41,329.42Z" transform="translate(-0.07 -0.16)" style="fill: #fff"/>
      <path d="M414.11,330.69a1.4,1.4,0,0,1,1.25,1.24A1.61,1.61,0,0,1,414.11,330.69Z" transform="translate(-0.07 -0.16)" style="fill: #fff"/>
      <path d="M97.43,339.37l-1-.54.94-.56C97.43,338.64,97.44,339,97.43,339.37Z" transform="translate(-0.07 -0.16)" style="fill: #fff"/>
      <path d="M374.38,338.2a1.12,1.12,0,0,1,1.22,1.22h0a4.8,4.8,0,0,1-1.2-.12C374.39,338.93,374.38,338.56,374.38,338.2Z" transform="translate(-0.07 -0.16)" style="fill: #fff"/>
      <path d="M446.27,342c-.11.3-.17.81-.33.84-.66.16-.64-.4-.68-.84A5.68,5.68,0,0,1,446.27,342Z" transform="translate(-0.07 -0.16)" style="fill: #fff"/>
      <path d="M564.36,341.93a1.19,1.19,0,0,1-1.25,1.29A1.42,1.42,0,0,1,564.36,341.93Z" transform="translate(-0.07 -0.16)" style="fill: #fff"/>
      <path d="M170.72,345.7l1.36.62a1.17,1.17,0,0,1-1.35.57C170.72,346.49,170.71,346.1,170.72,345.7Z" transform="translate(-0.07 -0.16)" style="fill: #fff"/>
      <path d="M453.88,353.16c0-.81.35-1.29,1.22-1.25,0,.38,0,.76-.05,1.14a2.4,2.4,0,0,1-1.19.08Z" transform="translate(-0.07 -0.16)" style="fill: #fff"/>
      <path d="M298.64,357c.5,0,1,.08.84.73-.05.18-.54.24-.83.36C298.63,357.73,298.63,357.36,298.64,357Z" transform="translate(-0.07 -0.16)" style="fill: #fff"/>
      <path d="M365.73,363.31c.3.12.83.19.86.37.15.7-.41.7-.9.71C365.69,364,365.7,363.67,365.73,363.31Z" transform="translate(-0.07 -0.16)" style="fill: #fff"/>
      <path d="M266.35,365.73c.34.12.94.18,1,.38.17.79-.44.81-1,.81C266.33,366.52,266.34,366.13,266.35,365.73Z" transform="translate(-0.07 -0.16)" style="fill: #fff"/>
      <path d="M395.51,370.75c.51,0,1.12,0,.95.76,0,.18-.62.23-.95.35A6.86,6.86,0,0,1,395.51,370.75Z" transform="translate(-0.07 -0.16)" style="fill: #fff"/>
      <path d="M481.13,401.84c-.31-.11-.86-.17-.9-.34-.16-.72.42-.71.91-.72A7.51,7.51,0,0,1,481.13,401.84Z" transform="translate(-0.07 -0.16)" style="fill: #fff"/>
      <path d="M98.73,409.33a8.69,8.69,0,0,1,0-1.14c.88,0,1.33.34,1.26,1.26A5.55,5.55,0,0,1,98.73,409.33Z" transform="translate(-0.07 -0.16)" style="fill: #fff"/>
      <path d="M210.47,414.46a5.17,5.17,0,0,1,1.18.08,7.5,7.5,0,0,1,0,1.06A1.16,1.16,0,0,1,210.47,414.46Z" transform="translate(-0.07 -0.16)" style="fill: #fff"/>
      <path d="M284.88,425.72c0,.5,0,1.11-.73.95-.17,0-.23-.62-.34-.94A6.37,6.37,0,0,1,284.88,425.72Z" transform="translate(-0.07 -0.16)" style="fill: #fff"/>
      <path d="M503.51,429.45a1.14,1.14,0,0,1-1.23,1.23A1.35,1.35,0,0,1,503.51,429.45Z" transform="translate(-0.07 -0.16)" style="fill: #fff"/>
      <path d="M507.26,434.46a4,4,0,0,1,1.19.08c0,.39,0,.78,0,1.16A1.14,1.14,0,0,1,507.26,434.46Z" transform="translate(-0.07 -0.16)" style="fill: #fff"/>
      <path d="M127.26,447a1.37,1.37,0,0,1,1.19,1.21h0a5.43,5.43,0,0,1-1.21,0C127.26,447.73,127.26,447.35,127.26,447Z" transform="translate(-0.07 -0.16)" style="fill: #fff"/>
      <path d="M306.09,454.5c.49,0,1.1,0,.94.74,0,.18-.6.24-.93.36C306.08,455.23,306.08,454.87,306.09,454.5Z" transform="translate(-0.07 -0.16)" style="fill: #fff"/>
      <path d="M340.87,467a5.9,5.9,0,0,1,1.19,0,1.33,1.33,0,0,1-1.2,1.19C340.85,467.78,340.85,467.4,340.87,467Z" transform="translate(-0.07 -0.16)" style="fill: #fff"/>
      <path d="M222.87,478.2V477h1.24v1.25h-1.24Z" transform="translate(-0.07 -0.16)" style="fill: #fff"/>
      <path d="M548.27,483.32c.31.12.86.18.9.36.15.73-.42.72-.93.72A9.74,9.74,0,0,1,548.27,483.32Z" transform="translate(-0.07 -0.16)" style="fill: #fff"/>
      <path d="M85,511.88c-.47,0-1,0-.89-.72,0-.17.57-.23.88-.35A7.64,7.64,0,0,1,85,511.88Z" transform="translate(-0.07 -0.16)" style="fill: #fff"/>
      <path d="M646.33,525.71c.83,0,1.17.43,1.16,1.22A1.21,1.21,0,0,1,646.33,525.71Z" transform="translate(-0.07 -0.16)" style="fill: #fff"/>
      <path d="M168.27,528.32c.59,0,1.15.14.91.89-.06.19-.63.22-1,.32C168.24,529.13,168.26,528.72,168.27,528.32Z" transform="translate(-0.07 -0.16)" style="fill: #fff"/>
      <path d="M569.41,530.74l1,.64-1,.57A5.43,5.43,0,0,1,569.41,530.74Z" transform="translate(-0.07 -0.16)" style="fill: #fff"/>
      <path d="M168.31,536.94c.4-1.19.78-1.06,1.14,0Z" transform="translate(-0.07 -0.16)" style="fill: #fff"/>
      <path d="M347,536.89a1.26,1.26,0,0,1,1.25,1.32A1.51,1.51,0,0,1,347,536.89Z" transform="translate(-0.07 -0.16)" style="fill: #fff"/>
      <path d="M388,540.59c-.55,0-1.09-.15-.87-.86.06-.19.61-.22.94-.32C388,539.8,388,540.19,388,540.59Z" transform="translate(-0.07 -0.16)" style="fill: #fff"/>
      <path d="M138.44,560.73a4,4,0,0,1,1.19.08,10.73,10.73,0,0,1,0,1.13C138.82,562,138.42,561.57,138.44,560.73Z" transform="translate(-0.07 -0.16)" style="fill: #fff"/>
      <path d="M75.09,565.71A1.08,1.08,0,0,1,76.34,567a5.14,5.14,0,0,1-1.17-.1l0,0A5.18,5.18,0,0,1,75.09,565.71Z" transform="translate(-0.07 -0.16)" style="fill: #fff"/>
      <path d="M139.68,572l.88.54-.85.57A10.29,10.29,0,0,1,139.68,572Z" transform="translate(-0.07 -0.16)" style="fill: #fff"/>
      <path d="M116.1,574.55a4,4,0,0,1,1.2-.06,1.2,1.2,0,0,1-1.2,1.15A9.91,9.91,0,0,1,116.1,574.55Z" transform="translate(-0.07 -0.16)" style="fill: #fff"/>
      <path d="M225.38,790.75a1.42,1.42,0,0,1,1.21-1.24A1.56,1.56,0,0,1,225.38,790.75Z" transform="translate(-0.07 -0.16)" style="fill: #fff"/>
      <path d="M132.23,789.53a1.18,1.18,0,0,1,1.29,1.25A1.42,1.42,0,0,1,132.23,789.53Z" transform="translate(-0.07 -0.16)" style="fill: #fff"/>
      <path d="M425.26,735.67l-.92-.59.94-.56C425.28,734.9,425.27,735.29,425.26,735.67Z" transform="translate(-0.07 -0.16)" style="fill: #fff"/>
      <path d="M302.38,782.11c.31.11.85.17.89.34.16.71-.41.71-.9.73A7.63,7.63,0,0,1,302.38,782.11Z" transform="translate(-0.07 -0.16)" style="fill: #fff"/>
      <path d="M422.83,772.09c.3.11.81.16.86.35.19.65-.36.7-.82.79A7.24,7.24,0,0,1,422.83,772.09Z" transform="translate(-0.07 -0.16)" style="fill: #fff"/>
      <path d="M539.62,832.05l1,.64-1,.5A5.45,5.45,0,0,1,539.62,832.05Z" transform="translate(-0.07 -0.16)" style="fill: #fff"/>
      <path d="M426.49,770.66c-.32-.12-.87-.19-.91-.38-.16-.73.44-.71.94-.74C426.52,769.91,426.51,770.28,426.49,770.66Z" transform="translate(-0.07 -0.16)" style="fill: #fff"/>
      <path d="M275,685.73a1.46,1.46,0,0,1,1.2,1.24A1.51,1.51,0,0,1,275,685.73Z" transform="translate(-0.07 -0.16)" style="fill: #fff"/>
      <path d="M133.46,764.5a1.16,1.16,0,0,1,1.3,1.27A1.39,1.39,0,0,1,133.46,764.5Z" transform="translate(-0.07 -0.16)" style="fill: #fff"/>
      <path d="M268.81,648.2a1.41,1.41,0,0,1-1.22-1.21h0a7.12,7.12,0,0,1,1.22,0C268.81,647.43,268.81,647.81,268.81,648.2Z" transform="translate(-0.07 -0.16)" style="fill: #fff"/>
      <path d="M232.76,673.14l-.58.08h-.6a1.13,1.13,0,0,1,1.21-1.2A10.54,10.54,0,0,1,232.76,673.14Z" transform="translate(-0.07 -0.16)" style="fill: #fff"/>
      <path d="M117.34,759.58l1.24.69-1.29.56C117.32,760.41,117.34,760,117.34,759.58Z" transform="translate(-0.07 -0.16)" style="fill: #fff"/>
      <path d="M524.61,640.71l-.6,0-.59-.1c0-.38,0-.77,0-1.15C524.25,639.45,524.61,639.9,524.61,640.71Z" transform="translate(-0.07 -0.16)" style="fill: #fff"/>
      <path d="M442.69,638.3c.52,0,1.11,0,.95.74,0,.18-.61.24-.94.35A9.93,9.93,0,0,1,442.69,638.3Z" transform="translate(-0.07 -0.16)" style="fill: #fff"/>
      <path d="M439,793.28a1.1,1.1,0,0,1,1.25,1.24A1.3,1.3,0,0,1,439,793.28Z" transform="translate(-0.07 -0.16)" style="fill: #fff"/>
      <path d="M88.66,624.52a5.31,5.31,0,0,1,.08,1.2,1.28,1.28,0,0,1-1.22-1.24C87.9,624.48,88.28,624.49,88.66,624.52Z" transform="translate(-0.07 -0.16)" style="fill: #fff"/>
      <path d="M406.72,623.2c0-.48,0-1,.7-.86.17,0,.24.55.36.84l-.53,0Z" transform="translate(-0.07 -0.16)" style="fill: #fff"/>
      <path d="M124.73,753.15a4,4,0,0,1-1.19.09,1.12,1.12,0,0,1,1.21-1.19A10.1,10.1,0,0,1,124.73,753.15Z" transform="translate(-0.07 -0.16)" style="fill: #fff"/>
      <path d="M107.37,611.94c.33.1.91.14,1,.34.22.75-.32.88-.92.87C107.4,612.74,107.39,612.34,107.37,611.94Z" transform="translate(-0.07 -0.16)" style="fill: #fff"/>
      <path d="M419.1,605.79l.85.55-.85.55C419.09,606.53,419.08,606.16,419.1,605.79Z" transform="translate(-0.07 -0.16)" style="fill: #fff"/>
      <path d="M619,735.65c-.83.08-1.13-.38-1.14-1.13C618.6,734.48,618.92,734.92,619,735.65Z" transform="translate(-0.07 -0.16)" style="fill: #fff"/>
      <path d="M539.51,638.22a2.22,2.22,0,0,1-.74,2,1.18,1.18,0,0,1-1,.11c-.84-.42-.14-.87.09-1.28a8.39,8.39,0,0,1,.67-.93h.5Z" transform="translate(-0.07 -0.16)" style="fill: #fff"/>
      <path d="M539.55,633.22c-.08.78-.17,1.56-1.28,1.19-.17-.06-.44-.29-.42-.37.23-.93.9-1,1.69-.83Z" transform="translate(-0.07 -0.16)" style="fill: #fff"/>
      <path d="M537.1,643.21c.06-.54.28-.76.64-.63,0,0,0,.33-.11.4a2,2,0,0,1-.55.2Z" transform="translate(-0.07 -0.16)" style="fill: #fff"/>
      <path d="M534.49,640.76l.71-.94c.74,1-.13.89-.68,1Z" transform="translate(-0.07 -0.16)" style="fill: #fff"/>
      <path d="M539.51,638.22l-.51-.06h-.5c-.08-.61.1-1,.79-.84C539.44,637.37,539.44,637.91,539.51,638.22Z" transform="translate(-0.07 -0.16)" style="fill: #fff"/>
      <path d="M94.83,586.89c.17.77.17,1.94-.49,2s-.8-1.08-.64-1.86A4.76,4.76,0,0,0,94.83,586.89Z" transform="translate(-0.07 -0.16)" style="fill: #fff"/>
      <path d="M94.83,586.89a4.76,4.76,0,0,1-1.13.1c-.14-1,.33-1.34,1.25-1.25h0A2.55,2.55,0,0,1,94.83,586.89Z" transform="translate(-0.07 -0.16)" style="fill: #fff"/>
      <path d="M102.37,290.6c-.73,0-1.8.74-2.07-.34a1.41,1.41,0,0,1,1.7-1.75c1,.26.28,1.38.35,2.12Z" transform="translate(-0.07 -0.16)" style="fill: #fff"/>
      <path d="M498.54,648.21c-1.24-.14-1.73-.74-1.16-1.94.23-.48.57-.51.89-.23.78.65.23,1.45.26,2.18Z" transform="translate(-0.07 -0.16)" style="fill: #fff"/>
      <path d="M278.72,255.6l-1-.46.53-.5c.13.33.27.66.41,1Z" transform="translate(-0.07 -0.16)" style="fill: #fff"/>
      <path d="M163.38,259.35c.18-1.06-.35-2.51,1.43-2.69a1,1,0,0,1,1.1,1c.06.89.59,2.1-.59,2.49-.51.16-1.31-.57-2-.89Z" transform="translate(-0.07 -0.16)" style="fill: #fff"/>
      <path d="M141,532.09l2.11.13c.08.91.74,2.24-.74,2.39C140.52,534.79,140.91,533.27,141,532.09Z" transform="translate(-0.07 -0.16)" style="fill: #fff"/>
      <path d="M489.82,454.35a1,1,0,0,1,1.35.54c0,.11-.18.46-.3.47-.68.09-1-.33-1.08-.94Z" transform="translate(-0.07 -0.16)" style="fill: #fff"/>
      <path d="M403.12,429.63a4.92,4.92,0,0,0,.86,0c.1,1.54.77,3.08,0,5.08C402.09,433,403,431.24,403.12,429.63Z" transform="translate(-0.07 -0.16)" style="fill: #fff"/>
      <path d="M604,546.93c.05-.38.1-.77.16-1.15a1.56,1.56,0,0,0,1.22-1.25c1.93.57,1.44,1.51.39,2.55Z" transform="translate(-0.07 -0.16)" style="fill: #fff"/>
      <path d="M609.09,542a1.55,1.55,0,0,1,1.23,1.24A1.6,1.6,0,0,1,609.09,542Z" transform="translate(-0.07 -0.16)" style="fill: #fff"/>
      <path d="M90,269.42c1.68,0,2.73.63,2.53,2.54C89.87,272.3,89.76,272.19,90,269.42Z" transform="translate(-0.07 -0.16)" style="fill: #fff"/>
      <path d="M91.25,275.7c-.83,0-1.94.87-2.3-.65-.16-.7.48-1.13,1-1.22,1.56-.28,1.17,1,1.32,1.85Z" transform="translate(-0.07 -0.16)" style="fill: #fff"/>
      <path d="M109.71,373.65l-.46.79c-.13-.14-.39-.3-.37-.4a4.14,4.14,0,0,1,.39-.79Z" transform="translate(-0.07 -0.16)" style="fill: #fff"/>
      <path d="M422.8,419.44l-1-.5.57-.57c.14.36.29.72.43,1.07Z" transform="translate(-0.07 -0.16)" style="fill: #fff"/>
      <path d="M91.11,287.5c-.24.21-.56.7-.77.66a6.34,6.34,0,0,1-1.44-.74,6.48,6.48,0,0,1,1.47-.68C90.56,286.71,90.86,287.23,91.11,287.5Z" transform="translate(-0.07 -0.16)" style="fill: #fff"/>
      <path d="M128.33,223.32a2.4,2.4,0,0,0,.12,1.06c-.71.47-1,1.83-2.2,1.21a1.69,1.69,0,0,1-.35-1.55C126.33,222.83,127.41,223.24,128.33,223.32Z" transform="translate(-0.07 -0.16)" style="fill: #fff"/>
      <path d="M328.39,108.09l-.55-.53c.12,0,.27,0,.33.1a1.54,1.54,0,0,1,.2.45Z" transform="translate(-0.07 -0.16)" style="fill: #fff"/>
      <path d="M255.1,457c0,.78.38,1.68-.58,2.13-.14.07-.7-.35-.76-.61-.24-1.08.49-1.38,1.37-1.49Z" transform="translate(-0.07 -0.16)" style="fill: #fff"/>
      <path d="M256.37,461.93l-.59,0-.6,0a1.36,1.36,0,0,1,1.2-1.21A7,7,0,0,1,256.37,461.93Z" transform="translate(-0.07 -0.16)" style="fill: #fff"/>
      <path d="M211.73,465.66a4.66,4.66,0,0,1,0-1.18c.52,0,1.05.1.88.78C212.55,465.46,212,465.53,211.73,465.66Z" transform="translate(-0.07 -0.16)" style="fill: #fff"/>
      <path d="M220.35,279.44c-.1-.63.06-1.13.73-1.29.12,0,.46.23.45.34-.07.67-.56.9-1.16,1Z" transform="translate(-0.07 -0.16)" style="fill: #fff"/>
      <path d="M296.17,103.12c.19-.21.39-.41.58-.61,0,.13,0,.31-.1.38a1.6,1.6,0,0,1-.5.21Z" transform="translate(-0.07 -0.16)" style="fill: #fff"/>
      <path d="M92.43,291.73a1.6,1.6,0,0,1,0-1.1c1.52.2,1.11,1.22.9,2.15l-.46,0-.46,0A6.14,6.14,0,0,1,92.43,291.73Z" transform="translate(-0.07 -0.16)" style="fill: #fff"/>
      <path d="M230.32,669.49c0,.55-.25,1-.86,1-.11,0-.35-.31-.33-.4.17-.6.64-.72,1.19-.64Z" transform="translate(-0.07 -0.16)" style="fill: #fff"/>
      <path d="M326,678.14c0-.81-.07-1.61-.11-2.42.74,0,1.49,0,1.46,1A1.36,1.36,0,0,1,326,678.14Z" transform="translate(-0.07 -0.16)" style="fill: #fff"/>
      <path d="M91.28,394.52c.82.14,1.5.46,1.24,1.47-.07.25-.62.64-.72.57-.84-.49-.48-1.34-.49-2.08Z" transform="translate(-0.07 -0.16)" style="fill: #fff"/>
      <path d="M323.5,399.4l1.17-2.52c.86.27,1.5.84,1.29,1.76C325.61,400.17,324.42,399.44,323.5,399.4Z" transform="translate(-0.07 -0.16)" style="fill: #fff"/>
      <path d="M265.91,774.28l-.79-.43c.13-.13.29-.39.4-.37a3.91,3.91,0,0,1,.81.37Z" transform="translate(-0.07 -0.16)" style="fill: #fff"/>
      <path d="M278.53,628.78l-.2.37-.54-.41.39-.35Z" transform="translate(-0.07 -0.16)" style="fill: #fff"/>
      <path d="M452.14,731.83l-.76-.43c.13-.13.3-.38.4-.36a4.75,4.75,0,0,1,.79.38Z" transform="translate(-0.07 -0.16)" style="fill: #fff"/>
      <path d="M253.39,624.31l-.72-.43c.13-.13.3-.38.39-.35a3.35,3.35,0,0,1,.75.39Z" transform="translate(-0.07 -0.16)" style="fill: #fff"/>
      <path d="M124.12,585.72a3.62,3.62,0,0,1,.34.79c0,.1-.24.25-.37.37a3.43,3.43,0,0,1-.34-.79C123.73,586,124,585.85,124.12,585.72Z" transform="translate(-0.07 -0.16)" style="fill: #fff"/>
      <path d="M108.3,741.08l.06,1.91c-1.08.08-2.67.79-2.47-1.2C106,740.41,107.39,741,108.3,741.08Z" transform="translate(-0.07 -0.16)" style="fill: #fff"/>
      <path d="M446.85,742.31c.12,0,.29,0,.37,0,.32.25.24.52-.23.71-.05,0-.27-.22-.33-.37S446.78,742.43,446.85,742.31Z" transform="translate(-0.07 -0.16)" style="fill: #fff"/>
      <path d="M442.21,818l-.78-.43c.14-.13.3-.39.39-.37a3.61,3.61,0,0,1,.8.37Z" transform="translate(-0.07 -0.16)" style="fill: #fff"/>
      <path d="M638.66,598.88c-.14.12-.29.35-.42.34s-.25-.25-.37-.39c.14-.12.29-.35.42-.34S638.54,598.74,638.66,598.88Z" transform="translate(-0.07 -0.16)" style="fill: #fff"/>
      <path d="M293.46,392.47l-.21.44-.61-.46.42-.44C293.19,392.16,293.33,392.31,293.46,392.47Z" transform="translate(-0.07 -0.16)" style="fill: #fff"/>
      <path d="M356.45,406.81l-.4-.22c.14-.21.29-.41.44-.61.13.14.36.3.36.44S356.59,406.68,356.45,406.81Z" transform="translate(-0.07 -0.16)" style="fill: #fff"/>
      <path d="M570,588.07l-.43-.22.46-.61c.15.14.29.29.43.43Z" transform="translate(-0.07 -0.16)" style="fill: #fff"/>
      <path d="M123.48,309.38l-2.3-.1c-.05-.93-.57-2.21.9-2.34C124,306.77,123.7,308.16,123.48,309.38Z" transform="translate(-0.07 -0.16)" style="fill: #fff"/>
      <path d="M348.4,640.84l2.18.09c0,.91.53,2.19-.89,2.32C347.74,643.43,348.3,642,348.4,640.84Z" transform="translate(-0.07 -0.16)" style="fill: #fff"/>
      <path d="M632.51,643.68c-.13.24-.27.5-.42.76-.12-.14-.38-.3-.35-.4a3.83,3.83,0,0,1,.37-.8Z" transform="translate(-0.07 -0.16)" style="fill: #fff"/>
      <path d="M400.49,680.81l.87.43-.48.46-.36-.92Z" transform="translate(-0.07 -0.16)" style="fill: #fff"/>
      <path d="M211.68,229.42c0,.43,0,.85,0,1.28C210.54,230.3,210.5,229.88,211.68,229.42Z" transform="translate(-0.07 -0.16)" style="fill: #fff"/>
      <path d="M212.89,231.87l-.59,0h-.59c0-.42,0-.84,0-1.27A1.36,1.36,0,0,1,212.89,231.87Z" transform="translate(-0.07 -0.16)" style="fill: #fff"/>
      <path d="M633.91,504.46h1.24l0,2.48-2.46,0C633.08,506.13,633.49,505.29,633.91,504.46Z" transform="translate(-0.07 -0.16)" style="fill: #fff"/>
      <path d="M251.4,799.44l-1-.42.52-.52.42,1Z" transform="translate(-0.07 -0.16)" style="fill: #fff"/>
      <path d="M487.33,630.76l-.6.61c0-.13,0-.32.1-.39a1.71,1.71,0,0,1,.52-.2Z" transform="translate(-0.07 -0.16)" style="fill: #fff"/>
      <path d="M98.74,509.4a3.42,3.42,0,0,1,0-1.15l1,.57Z" transform="translate(-0.07 -0.16)" style="fill: #fff"/>
      <path d="M360.71,635.73c.82,0,1.18.49,1.25,1.26C361.09,637,360.74,636.54,360.71,635.73Z" transform="translate(-0.07 -0.16)" style="fill: #fff"/>
      <path d="M292.44,663.29l1,.52c-.89.82-.82,0-.95-.55Z" transform="translate(-0.07 -0.16)" style="fill: #fff"/>
      <path d="M549.52,449.39a1.22,1.22,0,0,1,1.19-1.19A1.23,1.23,0,0,1,549.52,449.39Z" transform="translate(-0.07 -0.16)" style="fill: #fff"/>
      <path d="M256.41,514.45c.15-.35.29-.71.44-1.07l.55.58-1,.49Z" transform="translate(-0.07 -0.16)" style="fill: #fff"/>
      <path d="M147,732c-.12.33-.24.66-.37,1l-.53-.51.94-.46Z" transform="translate(-0.07 -0.16)" style="fill: #fff"/>
      <path d="M267.82,354.69a1,1,0,0,0,.73,0c0,.91,1,2.28-1,2.29Z" transform="translate(-0.07 -0.16)" style="fill: #fff"/>
      <path d="M316,627l1,.53c-.93.89-.77-.11-.94-.54Z" transform="translate(-0.07 -0.16)" style="fill: #fff"/>
      <path d="M90.92,300.38a1.3,1.3,0,0,0-1.21,1.18c-2.89-1.52,0-2.12.48-3.12C91,298.86,90.7,299.73,90.92,300.38Z" transform="translate(-0.07 -0.16)" style="fill: #fff"/>
      <path d="M463.8,742l0-2.42c.73.12,1.47.26,1.47,1.23S464.52,741.86,463.8,742Z" transform="translate(-0.07 -0.16)" style="fill: #fff"/>
      <path d="M155.81,475.71a1.44,1.44,0,0,1-1.21,1.21A1.37,1.37,0,0,1,155.81,475.71Z" transform="translate(-0.07 -0.16)" style="fill: #fff"/>
      <path d="M303.64,213.18l-1.31,1.2c-.91,0-1.83,0-2.26-1.09l1-1.39C302.2,211.8,303.66,211,303.64,213.18Z" transform="translate(-0.07 -0.16)" style="fill: #fff"/>
      <path d="M616.49,618.27a5.62,5.62,0,0,1,0,1.16c-.31-.12-.86-.19-.91-.38C615.4,618.33,616,618.29,616.49,618.27Z" transform="translate(-0.07 -0.16)" style="fill: #fff"/>
      <path d="M95,728.28c1.26-.18,2.6-.65,3.34,1C97,729.59,95.56,730.55,95,728.28Z" transform="translate(-0.07 -0.16)" style="fill: #fff"/>
      <path d="M68.9,291.93l-2.29-.22c0-.66.07-1.33.1-2C68.58,289.32,69.59,289.77,68.9,291.93Z" transform="translate(-0.07 -0.16)" style="fill: #fff"/>
      <path d="M238.94,291.86l-.57.06-.57,0c0-.49,0-1.06.74-.91C238.73,291,238.81,291.55,238.94,291.86Z" transform="translate(-0.07 -0.16)" style="fill: #fff"/>
      <path d="M550.67,633.27a7.75,7.75,0,0,1,0,1.18l-.85-.58Z" transform="translate(-0.07 -0.16)" style="fill: #fff"/>
      <path d="M535.77,539.43l-.59,0-.59,0c0-.52,0-1.17.79-1C535.57,538.48,535.64,539.08,535.77,539.43Z" transform="translate(-0.07 -0.16)" style="fill: #fff"/>
      <path d="M339.55,133.41a3.85,3.85,0,0,1-1.2-.26c0-.83,0-1.65.07-2.48C339.83,131.15,339.49,132.36,339.55,133.41Z" transform="translate(-0.07 -0.16)" style="fill: #fff"/>
      <path d="M411.66,692a4.74,4.74,0,0,1,1.13,0c-.13.29-.21.8-.4.84C411.72,693.06,411.67,692.52,411.66,692Z" transform="translate(-0.07 -0.16)" style="fill: #fff"/>
      <path d="M320.88,109.44a1.2,1.2,0,0,0,.39-1,.91.91,0,0,0,.93-.36c.72.15,1.3.44,1.27,1.32Z" transform="translate(-0.07 -0.16)" style="fill: #fff"/>
      <path d="M319.69,109.34l1.34,0c.17,1.08-.27,1.55-1.35,1.39C319.68,110.25,319.69,109.8,319.69,109.34Z" transform="translate(-0.07 -0.16)" style="fill: #fff"/>
      <path d="M319.77,111.93l-1.28,0c0-.44,0-.89,0-1.33l1.28-.06C319.77,111,319.77,111.49,319.77,111.93Z" transform="translate(-0.07 -0.16)" style="fill: #fff"/>
      <path d="M391.69,102.69a1.19,1.19,0,0,0,.07-.83c.56-.06,1.21.19,1.14.67S392.16,103,391.69,102.69Z" transform="translate(-0.07 -0.16)" style="fill: #fff"/>
      <path d="M273.72,604.55c0-.45,0-.9,0-1.34l1.27.66Z" transform="translate(-0.07 -0.16)" style="fill: #fff"/>
      <path d="M287.46,263.18c.41,0,.81,0,1.21,0C288.27,264.26,287.87,264.27,287.46,263.18Z" transform="translate(-0.07 -0.16)" style="fill: #fff"/>
      <path d="M353.16,494.35l-.53.06-.54,0c0-.78.05-1.57.08-2.35a3.78,3.78,0,0,1,.95,0C353.13,492.8,353.14,493.58,353.16,494.35Z" transform="translate(-0.07 -0.16)" style="fill: #fff"/>
      <path d="M203,146.94a2,2,0,0,1-.91,2.08C201.91,148.13,201.13,147,203,146.94Z" transform="translate(-0.07 -0.16)" style="fill: #fff"/>
      <path d="M453.88,291.88c.11,1.05.42,2.2-1.17,2.42C452.63,293.26,451.87,291.89,453.88,291.88Z" transform="translate(-0.07 -0.16)" style="fill: #fff"/>
      <path d="M92.43,291.73a6.14,6.14,0,0,0,0,1c-1,.52-1.1-.17-1.21-.88A2.5,2.5,0,0,1,92.43,291.73Z" transform="translate(-0.07 -0.16)" style="fill: #fff"/>
      <path d="M106.1,324.46c.18,1.11-.79,1.65-1.21,2.46-.87-.16-2,.12-2.31-1.12C103.58,324.89,104.56,323.92,106.1,324.46Z" transform="translate(-0.07 -0.16)" style="fill: #fff"/>
      <path d="M251.44,813.25c0,1-.08,2-1.22,2.46C250.2,814.68,250.23,813.66,251.44,813.25Z" transform="translate(-0.07 -0.16)" style="fill: #fff"/>
      <path d="M283.7,505.7h-1.2c0-.41,0-.82,0-1.22A1.44,1.44,0,0,1,283.7,505.7Z" transform="translate(-0.07 -0.16)" style="fill: #fff"/>
      <path d="M296.06,583.14l-.56.07-.57,0c0-.81.37-1.24,1.2-1.21A5.61,5.61,0,0,1,296.06,583.14Z" transform="translate(-0.07 -0.16)" style="fill: #fff"/>
      <path d="M419.06,110.62a1.18,1.18,0,0,1-1.21-1.22A1.18,1.18,0,0,1,419.06,110.62Z" transform="translate(-0.07 -0.16)" style="fill: #fff"/>
      <path d="M349.41,624.6c0,.7-.09,1.41-.14,2.12l-3.29.08-.09-2.25A4.1,4.1,0,0,1,349.41,624.6Z" transform="translate(-0.07 -0.16)" style="fill: #fff"/>
      <path d="M384.34,728.28l2.47,0-.09,2.45-2.28-.07C384.41,729.83,384.37,729.05,384.34,728.28Z" transform="translate(-0.07 -0.16)" style="fill: #fff"/>
      <path d="M154.63,463.26a3.3,3.3,0,0,1,1.13,0c-.11.69-.21,1.38-.32,2.07h-.53C154.81,464.64,154.72,464,154.63,463.26Z" transform="translate(-0.07 -0.16)" style="fill: #fff"/>
      <path d="M355.74,361.93H354.5v-1.25h1.24C355.75,361.1,355.75,361.51,355.74,361.93Z" transform="translate(-0.07 -0.16)" style="fill: #fff"/>
    </g>
  </g>
  <g id="Team_Color_Left" data-name="Team Color Left">
    <path d="M245.32,878.44l-6.66-1.74s.82-87.52,165.49-159.22l-5.29,9.29S255.35,785.46,245.32,878.44Z" transform="translate(-0.07 -0.16)" style="fill: url(#linear-gradient-29)"/>
    <path d="M208.81,870.44l6.31,1.86s3.15-105.45,201.64-177.84l6.49-10.73S227.55,747,208.81,870.44Z" transform="translate(-0.07 -0.16)" style="fill: url(#linear-gradient-30)"/>
    <path d="M182.75,862.85l-5.81-1.25s-3.31-113.72,256.41-203.5l-2.48,6.19S199.61,739.85,182.75,862.85Z" transform="translate(-0.07 -0.16)" style="fill: url(#linear-gradient-31)"/>
    <path d="M153.65,856.68l-8.73-1.79s2.94-132.46,296.74-221.76L439,640.06S188.57,704.4,153.65,856.68Z" transform="translate(-0.07 -0.16)" style="fill: url(#linear-gradient-32)"/>
    <path d="M124.07,850.43l-10-2.13S111.2,708.52,451.43,608l-3.21,8.5S143.79,697,124.07,850.43Z" transform="translate(-0.07 -0.16)" style="fill: url(#linear-gradient-33)"/>
    <path d="M98.58,819.87s-3.16-8.15-6.18-12.65c0,0,23.56-114.53,367.23-224.12l-2.89,8.72S147.7,681.89,98.58,819.87Z" transform="translate(-0.07 -0.16)" style="fill: url(#linear-gradient-34)"/>
    <path d="M79.89,790.68a70.71,70.71,0,0,0-8.76-6.76S98,668.83,467.26,560.86l-2.51,7.95S144.48,652.2,79.89,790.68Z" transform="translate(-0.07 -0.16)" style="fill: url(#linear-gradient-35)"/>
    <path d="M39.83,742.46V727.73s115-118.11,437.93-205.88l-2,6.68S197.84,598.86,39.83,742.46Z" transform="translate(-0.07 -0.16)" style="fill: url(#linear-gradient-36)"/>
    <path d="M39.87,692.11v11.46s222-146.44,440.31-192.33l2-7.88S273.36,551.55,39.87,692.11Z" transform="translate(-0.07 -0.16)" style="fill: url(#linear-gradient-37)"/>
    <path d="M52.72,774.82s-7.4-2.33-10.71-2.69C42,772.13,89.28,651,472.46,541l-2.47,8S170.62,617.05,52.72,774.82Z" transform="translate(-0.07 -0.16)" style="fill: url(#linear-gradient-38)"/>
    <path d="M39.88,676.26v-7.49S198,590.44,280.91,557s159.39-62.7,159.39-62.7h12.22S235.45,571.37,39.88,676.26Z" transform="translate(-0.07 -0.16)" style="fill: url(#linear-gradient-39)"/>
    <path d="M39.91,646.3v8.39s148.92-73.24,242.57-107.45,131.21-52.71,131.21-52.71H397.43S202.85,574.72,195,578.08,39.91,646.3,39.91,646.3Z" transform="translate(-0.07 -0.16)" style="fill: url(#linear-gradient-40)"/>
    <path d="M39.9,626.71v8.94s144.29-67,214.21-91.23A1136.74,1136.74,0,0,0,376.36,494h-17.6s-50.9,24.73-133.66,57.08S39.9,626.71,39.9,626.71Z" transform="translate(-0.07 -0.16)" style="fill: url(#linear-gradient-41)"/>
    <polygon points="39.86 604.14 39.86 613.49 340.85 494.38 324.35 494.38 39.86 604.14" style="fill: url(#linear-gradient-42)"/>
    <polygon points="39.82 588.33 39.82 594.78 299.36 494.07 287.1 494.07 39.82 588.33" style="fill: url(#linear-gradient-43)"/>
    <path d="M39.88,570.17v7.4l222.43-83.52H249.79S130.19,540,39.88,570.17Z" transform="translate(-0.07 -0.16)" style="fill: url(#linear-gradient-44)"/>
    <path d="M39.88,556.6v5.56s184-65.77,188.16-67.86h-9.3Z" transform="translate(-0.07 -0.16)" style="fill: url(#linear-gradient-45)"/>
    <path d="M39.86,543.46v5.32l150.91-54.51h-13.5S94.53,525.15,39.86,543.46Z" transform="translate(-0.07 -0.16)" style="fill: url(#linear-gradient-46)"/>
    <polygon points="39.83 529.38 39.83 535.03 158.78 494.08 151.44 494.08 39.83 529.38" style="fill: url(#linear-gradient-47)"/>
    <path d="M39.87,514.33v6.45s34.22-10.47,83.39-26.37h-9.35S69.22,507.13,39.87,514.33Z" transform="translate(-0.07 -0.16)" style="fill: url(#linear-gradient-48)"/>
  </g>
  <g id="Team_Color_1" data-name="Team Color 1">
    <path d="M497.1,867.2,507.2,865c6.41-15,12.64-30.81,18.56-47.38A847.19,847.19,0,0,0,561.49,684l4.34.82q7.68-44.21,13.92-91.87c5.73-44.19,9.83-86.64,12.66-127.12L580,469.23c-3.26,51.37-8,94.83-12.42,128.15-5,37.93-8.9,67.31-17.79,107.14a916.31,916.31,0,0,1-28,99.59C512.93,829.65,504.18,851,497.1,867.2Z" transform="translate(-0.07 -0.16)" style="fill: url(#linear-gradient-49)"/>
    <path d="M511.1,511.86l6-1.64A744.57,744.57,0,0,1,480.34,730a743.08,743.08,0,0,1-72.18,156.21l-9.35,2q7-10.71,13.71-21.94C480.91,751.85,507.25,628.27,511.1,511.86Z" transform="translate(-0.07 -0.16)" style="fill: url(#linear-gradient-50)"/>
    <path d="M450.49,877.13l9.17-1.91a992,992,0,0,0,43.52-107.56,1006,1006,0,0,0,52.08-291.52L545.14,479a990,990,0,0,1-12.76,135.32A998.45,998.45,0,0,1,450.49,877.13Z" transform="translate(-0.07 -0.16)" style="fill: url(#linear-gradient-51)"/>
    <path d="M301.73,887.85a347.72,347.72,0,0,0,25.32-25,350.49,350.49,0,0,0,45.85-63c-4.55,7.7-9.65,15.61-15.36,23.64a339.45,339.45,0,0,1-59,63.66Z" transform="translate(-0.07 -0.16)" style="fill: url(#linear-gradient-52)"/>
    <path d="M654.27,448.45l6.56-1.83v85L634.09,697.68l-5.09-1c-4.6,26.43-10.42,54.47-17.8,83.82-5.87,23.39-12.21,45.54-18.8,66.4l-10.83,2.22S634.53,699.07,654.27,448.45Z" transform="translate(-0.07 -0.16)" style="fill: url(#linear-gradient-53)"/>
    <path d="M616.41,459,632,454.75Q625.09,521,615.11,591.22q-7.33,51.18-15.76,99.9l-4.3-.81q-5.09,26.51-11.7,54.43c-9.47,39.74-20.33,76.73-31.85,110.85l-10.62,2.23S591.47,761.75,616.41,459Z" transform="translate(-0.07 -0.16)" style="fill: url(#linear-gradient-54)"/>
    <path d="M94.29,169.13a35,35,0,0,0,5.72-1.81L78.63,214l-.9-6.62Z" transform="translate(-0.07 -0.16)" style="fill: url(#linear-gradient-55)"/>
    <path d="M84.65,279.32l10.54-28,6.62,2.11s35.23-84.9,49.38-104.77l5.12-2.66s-46.77,87.19-69.66,156.33Z" transform="translate(-0.07 -0.16)" style="fill: url(#linear-gradient-56)"/>
    <path d="M132.3,266.27S104.54,333.44,94,376.73l2.22,14.43S115.09,314,137.85,268.49Z" transform="translate(-0.07 -0.16)" style="fill: url(#linear-gradient-57)"/>
    <path d="M345.79,897.16l5.06,1.06a511.48,511.48,0,0,0,40.3-53.61A515,515,0,0,0,447,730.44a505.28,505.28,0,0,1-21.06,49.07A514.4,514.4,0,0,1,345.79,897.16Z" transform="translate(-0.07 -0.16)" style="fill: url(#linear-gradient-58)"/>
  </g>
  <g id="TEXT_Name_position_number_" data-name="TEXT (Name, position, number)">
    <text transform="matrix(0.98, 0, -0.17, 0.98, 350, 300.53)" text-anchor="middle" style="font-size: 94px;fill: none;stroke: #fff;stroke-miterlimit: 10;stroke-width: 3px;font-family: Syncopate-Bold, Syncopate;font-weight: 700">30</text>
    <text transform="matrix(0.98, 0, -0.17, 0.98, 350, 564.04)" text-anchor="middle" style="font-size: 55px;fill: #fff;font-family: Arimo-Bold, Arimo;font-weight: 700">PG</text>
    <path d="M481,504.76H214.49l2.61-10.29,267.1-.09Q482.58,499.57,481,504.76Z" transform="translate(-0.07 -0.16)" style="fill: #fff"/>
    <text transform="translate(350 383.09)" text-anchor="middle" style="font-size: 65px;fill: #fff;font-family: Arimo-Bold, Arimo;font-weight: 700">STEPHEN</text>
    <text transform="translate(350 446.14)" text-anchor="middle" style="font-size: 65px;fill: #fff;font-family: Arimo-Bold, Arimo;font-weight: 700">CURRY</text>
  </g>
  <g id="Logo">
    <path d="M320.56,153.16s-4.47-8.94-4.47-18V99h67.76v37.26s.44,24.8-22.61,36.2l-11.48,5.69S335.2,171.66,329.94,166l6.61-11.53h16.33L369.28,126l-8.23-14.23-33-.11L336.49,126H353l-8.36,14.28H328.15Z" transform="translate(-0.07 -0.16)" style="fill: #fff"/>
  </g>
</svg>
