<?xml version="1.0" encoding="UTF-8"?>
<svg xmlns="http://www.w3.org/2000/svg" xmlns:xlink="http://www.w3.org/1999/xlink" viewBox="0 0 702.49 941.9">
  <defs>
    <style type="text/css">
      @import url(https://fonts.googleapis.com/css2?family=Syncopate:ital,wght@0,700;1,700);
      @import url(https://fonts.googleapis.com/css2?family=Arimo:ital,wght@0,700;1,700);
    </style>
    <linearGradient id="linear-gradient" x1="0" y1="465.66" x2="702.49" y2="465.66" gradientUnits="userSpaceOnUse">
      <stop offset="0" stop-color="#68252e" />
      <stop offset=".12" stop-color="#75262f" />
      <stop offset=".5" stop-color="#9c2c34" />
      <stop offset=".81" stop-color="#b42f37" />
      <stop offset="1" stop-color="#bd3139" />
    </linearGradient>
    <linearGradient id="linear-gradient-2" x1="117.57" y1="875.22" x2="567.35" y2="96.17" gradientUnits="userSpaceOnUse">
      <stop offset="0" stop-color="#68252e" />
      <stop offset=".14" stop-color="#7d2830" />
      <stop offset=".35" stop-color="#992c34" />
      <stop offset=".56" stop-color="#ad2f36" />
      <stop offset=".78" stop-color="#b93138" />
      <stop offset="1" stop-color="#bd3239" />
    </linearGradient>
    <linearGradient id="linear-gradient-3" x1="689.3" y1="813.46" x2="689.3" y2="135.12" gradientUnits="userSpaceOnUse">
      <stop offset="0" stop-color="#68252e" />
      <stop offset="1" stop-color="#bd3139" />
    </linearGradient>
    <linearGradient id="linear-gradient-4" x1="11.93" y1="812.73" x2="11.93" y2="135.83" gradientUnits="userSpaceOnUse">
      <stop offset="0" stop-color="#68252e" />
      <stop offset="1" stop-color="#bd3139" />
    </linearGradient>
    <linearGradient id="linear-gradient-5" x1="0" y1="833.36" x2="85.26" y2="833.36" gradientUnits="userSpaceOnUse">
      <stop offset="0" stop-color="#68252e" />
      <stop offset=".26" stop-color="#6b252e" />
      <stop offset=".47" stop-color="#74262f" />
      <stop offset=".65" stop-color="#852931" />
      <stop offset=".82" stop-color="#9c2c34" />
      <stop offset=".99" stop-color="#ba3038" />
      <stop offset="1" stop-color="#bd3139" />
    </linearGradient>
    <linearGradient id="linear-gradient-6" x1="63.55" y1="899.23" x2="350.67" y2="899.23" gradientUnits="userSpaceOnUse">
      <stop offset="0" stop-color="#68252e" />
      <stop offset=".32" stop-color="#872932" />
      <stop offset=".77" stop-color="#ae2e37" />
      <stop offset="1" stop-color="#bd3139" />
    </linearGradient>
    <linearGradient id="linear-gradient-7" x1="350.67" y1="899.09" x2="639.4" y2="899.09" gradientUnits="userSpaceOnUse">
      <stop offset="0" stop-color="#68252e" />
      <stop offset=".32" stop-color="#872932" />
      <stop offset=".77" stop-color="#ae2e37" />
      <stop offset="1" stop-color="#bd3139" />
    </linearGradient>
    <linearGradient id="linear-gradient-8" x1="618.22" y1="859.9" x2="684.1" y2="794.03" gradientUnits="userSpaceOnUse">
      <stop offset="0" stop-color="#68252e" />
      <stop offset=".03" stop-color="#6e252e" />
      <stop offset=".18" stop-color="#8a2932" />
      <stop offset=".34" stop-color="#a12d35" />
      <stop offset=".52" stop-color="#b02f37" />
      <stop offset=".72" stop-color="#ba3038" />
      <stop offset="1" stop-color="#bd3139" />
    </linearGradient>
    <linearGradient id="linear-gradient-9" x1="-11.47" y1="1156.85" x2="590.02" y2="115.06" gradientUnits="userSpaceOnUse">
      <stop offset="0" stop-color="#bd3039" stop-opacity="0" />
      <stop offset="1" stop-color="#6c262f" />
    </linearGradient>
    <linearGradient id="linear-gradient-10" x1="107.98" y1="1225.81" x2="709.46" y2="184.02" xlink:href="#linear-gradient-9" />
    <linearGradient id="linear-gradient-11" x1="-338.2" y1="968.22" x2="263.29" y2="-73.58" xlink:href="#linear-gradient-9" />
    <linearGradient id="linear-gradient-12" x1="282" y1="1162.54" x2="607.43" y2="598.88" xlink:href="#linear-gradient-9" />
    <linearGradient id="linear-gradient-13" x1="58.93" y1="1129.84" x2="608.89" y2="177.29" xlink:href="#linear-gradient-9" />
    <linearGradient id="linear-gradient-14" x1="202.52" y1="1159.8" x2="577.63" y2="510.09" xlink:href="#linear-gradient-9" />
    <linearGradient id="linear-gradient-15" x1="94.48" y1="880.36" x2="569.6" y2="57.42" xlink:href="#linear-gradient-9" />
    <linearGradient id="linear-gradient-16" x1="-159.73" y1="733.59" x2="315.39" y2="-89.35" xlink:href="#linear-gradient-9" />
    <linearGradient id="linear-gradient-17" x1="-22.9" y1="812.59" x2="452.23" y2="-10.34" xlink:href="#linear-gradient-9" />
    <linearGradient id="linear-gradient-18" x1="98.75" y1="577.31" x2="495.72" y2="-110.27" xlink:href="#linear-gradient-9" />
    <linearGradient id="linear-gradient-19" x1="379.09" y1="59.41" x2="526.8" y2="-196.43" xlink:href="#linear-gradient-9" />
    <linearGradient id="linear-gradient-20" x1="294.86" y1="251.49" x2="526.29" y2="-149.34" xlink:href="#linear-gradient-9" />
    <linearGradient id="linear-gradient-21" x1="95.67" y1="694.25" x2="516.41" y2="-34.5" xlink:href="#linear-gradient-9" />
    <linearGradient id="linear-gradient-22" x1="-54.49" y1="607.55" x2="366.25" y2="-121.2" xlink:href="#linear-gradient-9" />
    <linearGradient id="linear-gradient-23" x1="103.29" y1="646.49" x2="511.75" y2="-60.97" xlink:href="#linear-gradient-9" />
    <linearGradient id="linear-gradient-24" x1="-22.74" y1="573.73" x2="385.72" y2="-133.74" xlink:href="#linear-gradient-9" />
    <linearGradient id="linear-gradient-25" x1="242.53" y1="1161.32" x2="591.17" y2="557.46" xlink:href="#linear-gradient-9" />
    <linearGradient id="linear-gradient-26" x1="-383.72" y1="945.79" x2="205.75" y2="-75.21" xlink:href="#linear-gradient-9" />
    <linearGradient id="linear-gradient-27" x1="256.05" y1="1160.27" x2="594.22" y2="574.55" xlink:href="#linear-gradient-9" />
    <linearGradient id="linear-gradient-28" x1="238.59" y1="797.8" x2="404.08" y2="797.8" gradientUnits="userSpaceOnUse">
      <stop offset="0" stop-color="#bc3039" />
      <stop offset=".15" stop-color="#ba2f38" stop-opacity=".98" />
      <stop offset=".29" stop-color="#b52f38" stop-opacity=".92" />
      <stop offset=".44" stop-color="#ac2e37" stop-opacity=".81" />
      <stop offset=".58" stop-color="#a02c35" stop-opacity=".66" />
      <stop offset=".73" stop-color="#912a33" stop-opacity=".47" />
      <stop offset=".88" stop-color="#7e2831" stop-opacity=".23" />
      <stop offset="1" stop-color="#6c262f" stop-opacity="0" />
    </linearGradient>
    <linearGradient id="linear-gradient-29" x1="208.74" y1="777.85" x2="423.17" y2="777.85" xlink:href="#linear-gradient-28" />
    <linearGradient id="linear-gradient-30" x1="176.86" y1="760.32" x2="433.28" y2="760.32" xlink:href="#linear-gradient-28" />
    <linearGradient id="linear-gradient-31" x1="144.85" y1="744.74" x2="441.59" y2="744.74" xlink:href="#linear-gradient-28" />
    <linearGradient id="linear-gradient-32" x1="113.98" y1="729.07" x2="451.36" y2="729.07" xlink:href="#linear-gradient-28" />
    <linearGradient id="linear-gradient-33" x1="92.33" y1="701.32" x2="459.55" y2="701.32" xlink:href="#linear-gradient-28" />
    <linearGradient id="linear-gradient-34" x1="71.06" y1="675.61" x2="467.19" y2="675.61" xlink:href="#linear-gradient-28" />
    <linearGradient id="linear-gradient-35" x1="39.76" y1="631.99" x2="477.69" y2="631.99" xlink:href="#linear-gradient-28" />
    <linearGradient id="linear-gradient-36" x1="39.8" y1="603.3" x2="482.11" y2="603.3" xlink:href="#linear-gradient-28" />
    <linearGradient id="linear-gradient-37" x1="41.93" y1="657.74" x2="472.38" y2="657.74" xlink:href="#linear-gradient-28" />
    <linearGradient id="linear-gradient-38" x1="39.81" y1="585.11" x2="452.45" y2="585.11" xlink:href="#linear-gradient-28" />
    <linearGradient id="linear-gradient-39" x1="39.84" y1="574.45" x2="413.62" y2="574.45" xlink:href="#linear-gradient-28" />
    <linearGradient id="linear-gradient-40" x1="39.83" y1="564.66" x2="376.28" y2="564.66" xlink:href="#linear-gradient-28" />
    <linearGradient id="linear-gradient-41" x1="39.86" y1="553.93" x2="340.85" y2="553.93" xlink:href="#linear-gradient-28" />
    <linearGradient id="linear-gradient-42" x1="39.82" y1="544.43" x2="299.35" y2="544.43" xlink:href="#linear-gradient-28" />
    <linearGradient id="linear-gradient-43" x1="39.81" y1="535.65" x2="262.24" y2="535.65" xlink:href="#linear-gradient-28" />
    <linearGradient id="linear-gradient-44" x1="39.81" y1="528.07" x2="227.97" y2="528.07" xlink:href="#linear-gradient-28" />
    <linearGradient id="linear-gradient-45" x1="39.78" y1="521.36" x2="190.7" y2="521.36" xlink:href="#linear-gradient-28" />
    <linearGradient id="linear-gradient-46" x1="39.83" y1="514.55" x2="158.78" y2="514.55" xlink:href="#linear-gradient-28" />
    <linearGradient id="linear-gradient-47" x1="39.8" y1="507.43" x2="123.19" y2="507.43" xlink:href="#linear-gradient-28" />
    <linearGradient id="linear-gradient-48" x1="497.03" y1="666.33" x2="592.34" y2="666.33" gradientUnits="userSpaceOnUse">
      <stop offset="0" stop-color="#0e2948" />
      <stop offset=".08" stop-color="#0e2d4f" />
      <stop offset=".41" stop-color="#113b65" />
      <stop offset=".72" stop-color="#134472" />
      <stop offset="1" stop-color="#144777" />
    </linearGradient>
    <linearGradient id="linear-gradient-49" x1="398.74" y1="699.04" x2="517.07" y2="699.04" xlink:href="#linear-gradient-48" />
    <linearGradient id="linear-gradient-50" x1="450.42" y1="676.48" x2="555.19" y2="676.48" xlink:href="#linear-gradient-48" />
    <linearGradient id="linear-gradient-51" x1="298.47" y1="843.71" x2="372.83" y2="843.71" xlink:href="#linear-gradient-48" />
    <linearGradient id="linear-gradient-52" x1="581.5" y1="647.72" x2="660.76" y2="647.72" gradientUnits="userSpaceOnUse">
      <stop offset="0" stop-color="#0c233f" />
      <stop offset=".17" stop-color="#102d4f" />
      <stop offset=".46" stop-color="#153b65" />
      <stop offset=".75" stop-color="#184472" />
      <stop offset="1" stop-color="#1a4777" />
    </linearGradient>
    <linearGradient id="linear-gradient-53" x1="540.81" y1="656.12" x2="631.93" y2="656.12" xlink:href="#linear-gradient-48" />
    <linearGradient id="linear-gradient-54" x1="345.72" y1="814.17" x2="446.89" y2="814.17" xlink:href="#linear-gradient-48" />
  </defs>
  <g id="Layer_12" data-name="Layer 12">
    <circle cx="234.06" cy="287.51" r="50.75" style="fill: #fff;" />
  </g>
  <g id="BG">
    <path d="m0,135.83v676.92c7.9-.95,15.8-1.9,23.69-2.85,4.45-1.01,17.43-3.33,29.08,3.78,15.64,9.55,22.72,32.35,14.98,55.09-.32,2.89-.63,5.78-.95,8.67,95.09,17.96,190.19,35.92,285.28,53.88,95.81-16.75,191.62-33.49,287.43-50.24v-17.8c.07-5.3.94-26.54,17.45-42.99,7.98-7.95,16.65-11.84,22.23-13.77,2.19-1.6,4.37-3.19,6.56-4.79l16.75-666.63h-34.35s-83.02,4.27-170.04-75.45c0,0-136.91-134.25-293.72,0C204.38,59.66,117.84,148.07,0,135.83Z" style="fill: url(#linear-gradient);" />
    <path d="m23.76,158.98h21.93s83.23,2.49,176.61-84.83c0,0,49.31-49.2,129.17-47.85,0,0,71.29-2.91,127.82,49.58,56.53,52.49,123.51,83.07,173.67,83.07h23.14c.06,209.1.11,418.2.17,627.29-2.15-.02-5.15.06-8.68.52-3.77.49-14.71,1.98-25.4,9.18-14.67,9.89-20.19,24.08-22,28.91-3.63,9.72-4.65,20.44-4.99,24.04-.29,3.04-.4,5.58-.45,7.37-88.03,18.97-176.05,37.94-264.08,56.91-88.47-18.87-176.94-37.75-265.41-56.62.13-3.56.08-8.79-.93-14.97-.81-4.93-5.66-31.5-25.78-44.91-3.54-2.36-10.02-5.96-17.52-7.93-3.99-1.05-8.11-1.6-8.9-1.7-3.2-.42-5.99-.57-8.18-.62-.06-209.15-.12-418.3-.19-627.46Z" style="fill: url(#linear-gradient-2);" />
    <path d="m676.12,158.96c8.79-7.95,17.58-15.9,26.37-23.85v678.35l-26.2-27.25c-.06-209.08-.12-418.16-.18-627.25Z" style="fill: url(#linear-gradient-3);" />
    <polygon points="23.87 159.04 0 135.83 0 812.73 23.87 786.4 23.87 159.04" style="fill: url(#linear-gradient-4);" />
    <path d="m0,812.73l23.87-26.33s60.23-4.44,61.4,70.17l-21.71,23.81s9.05-68.24-49.22-68.24c0,0-14.33.57-14.33.6Z" style="fill: url(#linear-gradient-5);" />
    <polygon points="350.67 913.19 350.67 941.9 63.55 880.37 85.26 856.57 350.67 913.19" style="fill: url(#linear-gradient-6);" />
    <polygon points="350.67 913.19 350.67 941.9 639.4 881.09 614.75 856.27 350.67 913.19" style="fill: url(#linear-gradient-7);" />
    <path d="m674.79,158.94l.97,267.17.63-267.39-.3.24s-1.3-.11-1.3-.01Z" style="fill: #bd3239;" />
    <path d="m639.4,881.09v-10.52s-2.94-57.1,46.58-57.1h16.51c-8.74-9.09-17.49-18.18-26.23-27.28-5.53-.07-24.18.38-40.41,14.04-24.73,20.8-21.42,53.36-21.1,56.05l24.66,24.81Z" style="fill: url(#linear-gradient-8);" />
  </g>
  <g id="Waves">
    <g style="opacity: .25;">
      <path d="m556.97,239.6c-18.52,3.04-35.19,10.45-51.32,19.72-21.21,12.19-41.25,25.85-58.43,43.41-3.34,3.41-6.5,7.02-9.52,10.72-13.33,16.38-29.8,29.2-46.62,41.68-8.92,6.63-17.67,13.5-26.36,20.42-6.92,5.51-13.06,11.83-17.3,19.67-9.02,16.68-21.08,31.03-33.75,44.95-15.93,17.5-32.11,34.8-47.63,52.66-19.79,22.78-37.3,47.29-53.01,73.07-11.99,19.67-25.59,38.18-39.59,56.48-13.96,18.25-26.65,37.49-39.59,56.5-12.65,18.57-25.68,36.83-39.95,54.21-11.83,14.41-21.54,30-29.59,46.51,10.44,5.54,18.18,13.04,23.91,21.03,9.07-18.78,20.02-36.5,33.82-52.53,10.7-12.43,19.45-26.22,27.21-40.66,4.42-8.22,8.75-16.51,13.67-24.42,9.73-15.66,19.39-31.4,29.92-46.53,13.5-19.39,25.04-39.91,36.16-60.67,16.41-30.63,36.51-58.41,61.86-82.24,14.55-13.68,26.73-29.46,40.09-44.19,16.28-17.94,32.62-35.95,50.35-52.39,11.71-10.86,25.96-18.98,39.02-28.4,13.52-9.74,27.28-19.18,40.32-29.53,6.37-5.05,11.86-11.46,16.86-17.95,14.37-18.64,32.99-31.82,53.2-43.22,14.12-7.96,29.17-12.9,45.1-15.56,26.36-4.39,51.89-11.9,77.17-20.49,2.66-.9,5.36-1.74,8.07-2.52v-26.71c-2.5.6-4.99,1.24-7.46,1.93-19.99,5.6-39.68,12.24-59.71,17.66-12.08,3.27-24.51,5.36-36.89,7.39Z" style="fill: url(#linear-gradient-9);" />
      <path d="m644.1,498.35c-13.45-3.85-20.7-13.29-21.17-27.34-.41-12.24,3.43-23.43,8.54-34.26,3.32-7.03,7.12-13.83,10.39-20.88,1.48-3.18,2.53-6.65,3.2-10.11,1.2-6.25-1.27-10.53-7.26-12.93-7.53-3.02-15.44-3.06-23.34-2.34-18.79,1.71-36.53,7.14-52.32,17.41-24.71,16.07-51.19,28.5-78.12,40.19-13.13,5.7-26.18,11.74-38.67,18.69-15.69,8.73-28.16,21.61-40.44,34.52-12.18,12.8-23.82,26.14-36.42,38.51-7.49,7.35-16.16,13.56-24.66,19.78-17.32,12.69-34.18,25.91-49.94,40.51-16.29,15.1-27.85,33.63-38.6,52.8-16.63,29.65-33.4,59.21-50.1,88.82-7.75,13.74-17.64,25.86-28.32,37.38-12.95,13.96-23.52,29.5-31.32,46.91-4.01,8.96-8.64,17.56-13.7,25.92l40.62,8.61c.31-.48.62-.96.92-1.44,6.98-10.96,13.15-22.43,20.09-33.42,8.35-13.23,19.21-24.43,29.84-35.81,16.17-17.29,29.02-37.08,42.43-56.46,8.79-12.7,17.53-25.45,26.87-37.75,13.14-17.3,30.47-29.74,49.27-40.2,29.58-16.46,60.61-29.69,92.41-41.18,2.7-.98,5.55-1.56,8.35-2.24,8.64-2.08,16.58-.52,24.35,3.86,11.5,6.5,23.31,12.46,35,18.63,17.53,9.26,36.08,12.06,55.58,8.65,22.24-3.89,44.23-8.67,65.23-17.28,13.66-5.6,26.14-13.22,38.22-21.54v-103.84c-5.64.05-11.28-.56-16.93-2.18Z" style="fill: url(#linear-gradient-10);" />
      <path d="m69.12,187.63c-8.87,12.63-16.92,25.85-25.74,38.52-1.38,1.99-2.78,3.97-4.17,5.95-.04,29.16-.04,67.53-.02,110.42,10.47-15.98,20.95-31.96,31.78-47.7,22.67-32.96,45.58-65.77,69.21-98.04,10.61-14.48,23.2-27.51,34.94-41.16,10.07-11.7,18.21-24.48,24.84-38.04-46.99,35.24-89.58,49.25-119.05,54.66-4.12,4.97-8.07,10.07-11.8,15.38Z" style="fill: url(#linear-gradient-11);" />
      <path d="m598.21,845.73c5.6-67.55,62.83-75.23,62.83-75.23v-43.02c-3.75,2.71-7.45,5.51-11.12,8.38-31.92,25.02-64.15,49.65-96.41,74.24-15.16,11.56-31.67,20.76-50.7,24.09-9.59,1.68-19.38,2.32-29.11,3.03-17.16,1.26-34.33,2.47-51.52,3.23-17.06.75-33.94,3.08-50.28,7.68-18.67,5.26-37.21,11.27-55.29,18.27-11.09,4.3-20.13,10.75-27.24,18.92l62.07,13.15,246.77-52.73Z" style="fill: url(#linear-gradient-12);" />
      <path d="m590.88,281.32c-27.4,4.25-51.61,15.29-72.55,33.42-3.6,3.11-7.01,6.59-9.84,10.4-12.99,17.52-29.51,30.95-47.61,42.8-18.23,11.93-36.2,24.26-54.11,36.66-22.53,15.6-42.06,34.65-60.58,54.65-17.98,19.43-35.88,38.86-55.56,56.64-20.51,18.52-36.65,40.56-49.38,65-15.52,29.79-32.57,58.64-50.9,86.79-10.36,15.91-19.79,32.45-28.95,49.08-9.71,17.63-22.02,33.33-33.93,49.41-11.57,15.62-21.93,31.89-31.03,48.83,7.38,16.45,8.07,31.15,8.07,31.15l14.27,3.02c6.4-10.32,12.36-20.94,17.8-31.78,9-17.91,19.74-34.5,33.35-49.23,12.39-13.41,21.84-28.83,30.71-44.68,18.5-33.06,37.36-65.93,55.62-99.12,12.6-22.89,29.41-41.95,49.76-58.11,16.19-12.86,32.98-25.05,48.33-38.85,12.27-11.02,22.9-23.89,34.02-36.16,12.55-13.85,24.54-28.39,40.48-38.5,12.36-7.84,25.38-14.68,38.28-21.64,13.19-7.13,26.54-13.97,39.91-20.76,20.32-10.32,38.52-23.84,57.03-36.95,13.14-9.31,26.27-18.8,41.61-24.33,17.91-6.46,36.41-10.45,55.37-11.84v-71.35c-.2.07-.41.13-.61.2-22.6,7.7-46.06,11.62-69.54,15.26Z" style="fill: url(#linear-gradient-13);" />
      <path d="m619.98,647.73c-18.35,7.33-36.71,14.65-55.26,21.44-25.05,9.17-50.36,8.51-75.52.32-15.85-5.16-32.17-8.06-48.65-9.21-8.44-.59-17.41.9-25.6,3.29-23.31,6.82-46.4,14.43-69.48,22.03-13.1,4.31-24.52,11.64-33.79,21.88-6.85,7.57-13.32,15.51-19.63,23.54-13.18,16.78-25.9,33.91-39.29,50.51-5.91,7.33-12.79,13.91-19.55,20.5-14.64,14.28-26.37,30.63-35.31,48.98-2.23,4.58-4.66,9.02-7.21,13.39l53.6,11.36c.16-.4.31-.79.47-1.19,6.31-15.95,16.39-29.25,29.49-40.17,17.71-14.76,36.4-28.14,57-38.65,13.51-6.9,27.81-10.76,43-12.02,18.31-1.51,36.66-.66,54.94-1.42,23.58-.98,47.35-1.04,70.46-7.11,19.31-5.07,37.42-13.27,55.69-21.1,25.82-11.07,48.85-26.36,69.62-45.1,11.19-10.1,23.28-18.53,36.07-25.68v-56.75c-13.14,8.06-26.69,15.41-41.06,21.15Z" style="fill: url(#linear-gradient-14);" />
      <path d="m527.87,176.74c-28.01,4.65-54.44,13.9-78.42,29.37-17.47,11.26-34.47,23.26-52.13,34.21-18.84,11.68-32.41,27.81-41.32,47.66-9.38,20.89-21.4,39.9-36.14,57.32-9.23,10.9-17.05,22.75-23.49,35.52-2.2,4.36-4.65,8.61-7.18,12.79-11.99,19.79-27.32,37.04-42.37,54.41-22.69,26.17-43.89,53.39-63.27,82.1-11.06,16.38-22.06,33-34.95,47.9-21.76,25.15-43.64,50.17-63.93,76.52-15.34,19.92-30.88,39.7-44.97,60.53.03,17.55.06,31.74.08,41.51,10-19.19,21.58-37.34,35.16-54.44,19.77-24.89,38.27-50.78,57.79-75.88,11.46-14.73,24.44-28.3,35.64-43.22,13.07-17.41,25.02-35.66,37.31-53.64,24.62-36.02,54.28-67.87,83.21-100.3,12.74-14.29,23.83-29.46,32-46.89,3.53-7.55,8.6-14.54,13.86-21.07,5.77-7.17,12.3-13.78,18.95-20.16,15.45-14.84,28.23-31.66,38.76-50.27,4.98-8.8,11.17-16.69,19.37-22.67,17.88-13.02,35.69-26.14,53.97-38.58,22.74-15.47,47.77-25.36,75.22-28.9,13.87-1.79,27.88-3.3,41.45-6.54,22.01-5.25,43.74-11.71,65.53-17.86,1.29-.36,2.58-.71,3.87-1.04-21.34-1.42-41.18-5.46-59.3-11.07-21.4,4.98-42.98,9.11-64.7,12.71Z" style="fill: url(#linear-gradient-15);" />
      <path d="m116.18,278.4c5.85-9.01,10.67-18.69,15.82-28.14.93-1.71,1.19-3.78,1.76-5.69-.41-.25-.82-.5-1.23-.75-2.28,2.31-4.77,4.45-6.82,6.95-12.23,14.99-24.88,29.67-36.4,45.19-17.09,23.02-33.7,46.42-50.1,69.94,0,10.6.02,21.41.03,32.37,5.99-11.18,12.52-22.08,19.48-32.75,19.02-29.12,38.51-57.95,57.46-87.12Z" style="fill: url(#linear-gradient-16);" />
      <path d="m121.9,586.56c18.7-21.47,35.56-44.07,51.06-67.86,10.43-16.01,21.44-31.65,32.66-47.12,13.31-18.35,27.36-36.17,40.66-54.53,15.78-21.78,24.33-47.36,36.61-71,.46-.89.5-2.01.74-3.02-.31-.21-.62-.43-.94-.64-2.01,1.94-4.35,3.63-5.97,5.86-6.2,8.53-12.92,16.81-18.1,25.94-16.78,29.64-37.4,56.5-58.63,82.95-12.52,15.6-25.64,30.73-37.71,46.66-18.01,23.76-35.93,47.49-58.03,67.78-19.73,18.11-38.87,36.87-58.54,55.06-2.03,1.88-4.08,3.72-6.18,5.51.03,20.39.07,39.39.1,56.39,4.24-5.7,8.54-11.36,12.94-16.94,22.65-28.72,45.3-57.48,69.31-85.05Z" style="fill: url(#linear-gradient-17);" />
      <path d="m281.26,60.82c-5.59,13.9-11.17,27.81-16.4,41.84-2.86,7.68-5.07,15.62-7.45,23.48-4.96,16.32-13.89,30.71-21.88,45.57-12.93,24.04-30.16,45.04-47.18,66.13-20.51,25.42-42.21,49.9-62.2,75.71-18.5,23.88-35.62,48.91-49.25,75.99-5.82,11.55-10.34,23.83-14.56,36.09-4.12,11.97-8.73,23.58-16.59,33.58-2.48,3.16-4.6,6.44-6.43,9.82.03,24.49.06,49.02.1,72.93,1.91.33,4.01.37,6.29.09,9.26-1.12,17.47-4.93,25.31-9.69,13.96-8.47,25.13-19.99,35.83-32.16,14.61-16.6,29.64-32.84,44.58-49.15,13.81-15.08,28.79-29.22,39.97-46.44,7.36-11.32,13.56-23.46,19.64-35.55,18.69-37.19,40.5-72.3,67.5-104.09,4.31-5.08,8.16-10.55,12.16-15.89,6.34-8.46,14.05-15.39,22.91-21.14,16.59-10.78,33.35-21.12,51.6-29.07,13.7-5.96,25.64-15.1,36.99-24.82,16.87-14.46,35.06-26.87,54.88-36.99,9.29-4.74,18.41-9.94,27.14-15.65,4.32-2.83,8.73-5.43,13.21-7.82-3.28-2.58-6.28-5.04-8.97-7.34-32.01,18.25-63.72,36.99-90.86,62.52-15.29,14.38-33.55,24.13-52.73,32.64-18.04,8.01-35.75,17.16-51.37,29.38-7.61,5.96-13.69,13.9-20.34,21.05-20.36,21.91-40.57,43.94-61.03,65.75-4.54,4.84-9.71,9.15-14.89,13.33-2.26,1.82-5.18,3-7.99,3.89-2.74.86-5.17-.57-5.38-3.44-.28-3.69-.29-7.58.56-11.15,3.34-14.05,10.39-26.47,18.51-38.18,12.67-18.27,25.95-36.11,38.76-54.28,8.26-11.71,16.07-23.74,24.25-35.51,2.72-3.92,5.81-7.61,8.96-11.19,10.08-11.43,14.51-25.08,15.62-39.94,1.99-26.66,6.57-52.85,13.23-78.73,1.4-5.43,3.39-10.49,5.89-15.28-9.6,2.31-18.34,5.34-26.19,8.7-.77,1.65-1.51,3.32-2.2,5.02Z" style="fill: url(#linear-gradient-18);" />
      <path d="m374.31,56.01c6.37,1.68,12.63.42,18.75-1.22,4.51-1.21,9.01-2.46,13.5-3.72-15.67-4.81-30.14-6.95-40.76-7.88-1.22,6.4,2.07,11.12,8.51,12.82Z" style="fill: url(#linear-gradient-19);" />
      <path d="m326.51,43.97c-2.95,4.65-5.25,9.67-6.5,15.29-5.46,24.63-8.21,49.48-5.77,74.76,1.69,17.56-1.5,34.01-13.02,47.91-5.01,6.04-10.88,11.39-16.53,16.89-8.61,8.38-15.95,17.64-20.53,28.85-.67,1.63-.82,3.47-1.21,5.21.34.26.68.53,1.02.79,2.11-1.27,4.29-2.42,6.31-3.82,7.48-5.17,14.49-11.22,22.46-15.48,15.84-8.48,31.95-16.58,48.42-23.77,18.83-8.23,35.45-19.38,49.82-33.92,21.9-22.15,45.68-41.67,72.76-57.45,3.52-2.05,7.08-4.01,10.65-5.88-2.11-2.12-3.21-3.33-3.21-3.33-5.73-6.15-11.88-11.5-18.25-16.17-12.62,4.68-25.05,9.84-36.99,16.15-9.4,4.97-18.06,11.32-27.13,16.91-5.47,3.38-10.85,7.04-16.69,9.64-9.31,4.15-16.93,2.02-23.57-5.75-6.2-7.25-9.25-15.89-10.37-25.22-.8-6.61-1.34-13.26-1.73-19.91-.52-8.72,2.04-16.2,6.24-23.03-5.59.18-10.99.63-16.18,1.32Z" style="fill: url(#linear-gradient-20);" />
      <path d="m334.33,239.74c10.35-7.68,20.07-16.22,31.95-21.59,16.89-7.64,32.39-17.58,47.41-28.34,16.58-11.88,33.91-22.38,53.12-29.6,11.64-4.37,23.28-8.79,34.64-13.83,9.09-4.03,18.27-7.73,27.58-11.01-3.61-2.17-7.06-4.35-10.36-6.52-8.01,3.27-15.89,6.93-23.66,10.96-11.8,6.12-24.23,11.04-36.47,16.28-18.02,7.72-34.22,18.39-49.8,30.1-14.98,11.25-31.11,20.46-47.94,28.7-9.79,4.79-18.66,11.52-27.72,17.71-5.86,4-11.92,8.02-16.77,13.1-6.4,6.7-12.15,14.14-17.38,21.81-14.27,20.93-28.55,41.88-41.96,63.36-8.51,13.63-15.71,28.11-23.07,42.42-13.74,26.72-30.82,51.19-49.56,74.55-13.41,16.73-27.23,33.13-40.77,49.75-11.5,14.12-22.21,28.96-34.5,42.34-11.09,12.07-23.52,22.98-35.98,33.68-10.75,9.24-22.01,17.96-33.59,26.14,0,5.86.02,11.64.03,17.33,2.1-1.64,4.16-3.34,6.18-5.08,13.94-12.06,27.32-24.77,41.1-37.02,19.92-17.7,38.03-37.02,54-58.39,12.24-16.37,24.5-32.78,37.63-48.42,21.13-25.18,40.58-51.5,57.23-79.83,8.78-14.93,16.36-30.58,25.36-45.37,14.14-23.26,29.33-45.89,43.46-69.16,8.02-13.21,17.36-24.84,29.84-34.1Z" style="fill: url(#linear-gradient-21);" />
      <path d="m138.42,268.86c-22.78,28.76-45.11,57.81-65.46,88.37-12.56,18.86-24.31,38.13-33.71,58.67,0,6.36.01,12.76.02,19.18,1.47-3.43,2.85-6.92,4.18-10.45,9.92-26.49,25.01-50.18,40.62-73.65,20.29-30.52,43.78-58.5,66.61-87.04,21.11-26.39,41.84-53.17,59.16-82.23,15.93-26.72,29.82-54.53,38.18-84.8,2.46-8.92,5.41-17.7,8.39-26.47-6.63,4.43-11.7,8.51-15.08,11.46-7.44,28.39-19.25,55.12-33.24,80.89-20.23,37.26-43.33,72.81-69.67,106.06Z" style="fill: url(#linear-gradient-22);" />
      <path d="m412.99,173.7c-17.87,14.27-36.56,27.05-57.72,36.13-15.94,6.84-29.36,17.9-43.52,27.66-3.61,2.49-6.89,5.71-9.64,9.14-6.95,8.66-13.37,17.74-20.26,26.45-20.48,25.87-38.65,53.19-53.49,82.72-6.98,13.89-14.2,27.68-21.87,41.19-11.32,19.95-27.06,36.56-41.79,53.92-15.88,18.72-31.89,37.33-47.37,56.37-15.69,19.29-33.32,36.37-53.98,50.22-7.51,5.03-15.3,9.5-23.9,12.12,0,5.84.02,11.63.03,17.35,4.46-2.24,8.71-4.94,12.83-7.85,27.75-19.57,53.08-41.83,73.4-69.24,14.64-19.75,30.48-38.49,46.64-56.97,25.38-29.04,46.44-60.88,63.07-95.72,13.55-28.4,31.15-54.31,49.92-79.46,3.85-5.16,7.69-10.36,11.18-15.77,8.22-12.77,19.37-22.29,31.7-30.98,13.59-9.59,27.97-17.48,42.76-25,12.4-6.31,24.27-14.05,35.34-22.51,20.01-15.29,41.41-27.82,64.6-37.6,10.82-4.56,21.18-10.28,31.52-15.89,3.38-1.83,6.8-3.53,10.26-5.13-2.09-1.44-4.11-2.88-6.06-4.29-2.26,1.12-4.5,2.29-6.72,3.52-13.01,7.21-25.99,14.57-39.43,20.91-16.87,7.97-32.95,17.09-47.51,28.72Z" style="fill: url(#linear-gradient-23);" />
      <path d="m192.47,216.67c-23.51,31-48.65,60.68-72.67,91.25-23.06,29.34-44.79,59.8-61.12,93.61-4.91,10.17-8.96,20.79-12.94,31.37-1.88,4.98-3.97,9.81-6.46,14.43,0,3.24,0,6.49.01,9.74,6.12-8.94,10.82-18.57,14.22-28.96,5.78-17.68,13.36-34.63,23.08-50.49,21.52-35.1,45.55-68.35,72.53-99.55,23.48-27.15,46.03-55.17,66-85.01,17.51-26.16,31.93-54.02,40.9-84.54,4.53-15.41,10.53-30.41,16.35-45.41.34-.87.68-1.74,1.02-2.61-2.81,1.43-5.47,2.88-7.97,4.33-1.19,3.32-2.35,6.64-3.52,9.96-6.25,17.68-11.28,35.85-18.5,53.1-13.24,31.65-30.12,61.31-50.94,88.77Z" style="fill: url(#linear-gradient-24);" />
      <path d="m305.87,837.55c16.18-8.14,32.38-16.24,49.94-21.08,14.52-4,29.46-5.47,44.4-6.47,14.18-.95,28.41-1.04,42.61-1.66,13.41-.58,26.86-.95,40.22-2.14,17.94-1.59,34.76-7.31,50.31-16.33,21.53-12.48,43.36-24.54,64.1-38.23,15.42-10.18,29.67-22.27,43.83-34.23,6.33-5.34,12.93-10.1,19.76-14.38v-9.55c-9.13,5.4-17.86,11.56-26.13,18.62-12.66,10.81-25.61,21.39-39.25,30.9-20.64,14.4-43.71,24.6-66.17,35.79-15.21,7.58-31.2,13.01-48.19,14.55-15.13,1.37-30.33,2.19-45.51,2.89-16.52.76-33.08.85-49.6,1.71-12.64.65-25.22,2.16-37.31,6.28-23.36,7.97-44.36,20.38-64.3,34.64-14.2,10.15-24.63,23.17-31.49,38.76l8.68,1.84c9.56-18.26,24.47-32.03,44.11-41.91Z" style="fill: url(#linear-gradient-25);" />
      <path d="m47.61,204.14c6.21-10.27,12.8-20.31,20.01-29.88-4.18.49-7.95.8-11.27.99-6.08,8.95-11.61,18.3-17.07,27.67-.02,4.45-.03,9.37-.04,14.74,2.83-4.48,5.63-8.98,8.37-13.52Z" style="fill: url(#linear-gradient-26);" />
      <path d="m335.74,844.14c16.68-6.61,33.75-11.88,51.65-13.79,12.9-1.38,25.84-2.33,38.79-3.16,16.39-1.05,32.79-1.86,49.2-2.62,18.61-.86,36.75-3.88,53.24-12.97,9.61-5.3,18.78-11.43,27.94-17.51,31.77-21.08,63.04-42.82,92.12-67.6,4-3.4,8.12-6.62,12.37-9.64v-7.37c-5.97,3.97-11.74,8.34-17.25,13.16-28.57,24.98-60.14,45.64-92.38,65.41-13.56,8.32-26.94,16.87-42.29,21.64-10.44,3.25-21.13,5.11-32.05,5.57-23.3.98-46.6,1.88-69.9,2.88-38.38,1.65-73.88,13.21-107.29,31.63-13.91,7.67-24.12,18.26-31.48,31.08l8.06,1.71c8.52-12.65,20.29-22.5,35.73-29.15,7.74-3.34,15.7-6.17,23.55-9.28Z" style="fill: url(#linear-gradient-27);" />
    </g>
  </g>
  <g id="Dust">
    <g style="opacity: .35;">
      <path d="m278.49,247.51c-1.34,1-.73,2.67-1.35,3.93-.9,1.82-1.37,1.81-3.21-.23l-.03-.1c.67-.43.86-1.08.86-1.83.33-.11.46-.34.38-.69.74-.38,1-1.06,1.14-1.81l-.04.05c.76.17,1.53.33,2.29.5l-.03.18Z" style="fill: #fff;" />
      <path d="m268.65,358.06c.12.42.24.84.36,1.26.01.81.02,1.61.04,2.42-.09.46-.18.93-.27,1.39-.85.34-1.7.44-2.56.05-.07-1.31-.14-2.62-.21-3.92.17-.39.2-.79.11-1.21.3-.23.39-.53.28-.89.39-.15.78-.3,1.17-.45.36.45.72.91,1.08,1.36Z" style="fill: #fff;" />
      <path d="m161.96,375.54c-.51-1.55.6-2.58,1.2-3.78h.02c.42,0,.83.01,1.25.03h0c.08.39.14.8.17,1.21.07.45.13.91.19,1.36.3.39.59.77.89,1.16-.02.37-.04.75-.04,1.12-.39.1-.78.21-1.16.35-.44.1-.88.21-1.32.31-.2-.22-.19-.44.03-.64-.14-.67-.63-.94-1.22-1.11Z" style="fill: #fff;" />
      <path d="m457.54,318.08c1.69-.54,2.8-.22,2.67,1.86-.06,1.02-.18,2.03-.28,3.04l.03-.03c-1.22.2-1.49-1.12-2.35-1.5.2-.38.13-.7-.22-.95.06-.82.12-1.64.18-2.46l-.03.04Z" style="fill: #fff;" />
      <path d="m369.38,476.81c-1.63-.85-1.3-1.72-.03-2.59.66-.12,1.01-.57,1.21-1.18.81.04,1.92-.03,2.07.87.25,1.43-1.09,1.45-2.05,1.69-.67.13-1.01.59-1.2,1.2Z" style="fill: #fff;" />
      <path d="m361.23,598.22v-.06c1.25,1.78,1.7,3.47-.57,4.83l.04.04c-.58-1.13-1.55-2.15-1-3.6l-.16.18c.56-.46,1.13-.92,1.69-1.38Z" style="fill: #fff;" />
      <path d="m150.56,274.92c-.26.29-.56.55-.77.87-.62.94-1.48,1.39-2.39.65-.95-.78-.46-1.7.21-2.48.25-.3.48-.61.73-.91l-.04.02c1.14.12,1.49,1.25,2.29,1.81l-.03.05Z" style="fill: #fff;" />
      <path d="m257.62,289.27c-.44.02-.88.05-1.32.07-.16-.99-.08-2.09-1.2-2.64.05-.8.08-1.83.97-1.96,1.41-.2,1.31,1.18,1.63,2.06-.03.82-.06,1.64-.09,2.47Z" style="fill: #fff;" />
      <path d="m514.2,371.65c-.54,0-1.08,0-1.62,0-.15-.79-.3-1.59-.44-2.38h0c.82-.4,1.65-.79,2.47-1.19l-.04-.03c.36.8.71,1.6,1.07,2.4l.15-.09c-.53.43-1.06.86-1.59,1.28Z" style="fill: #fff;" />
      <path d="m86.09,310.83l-.03.38c-1.11.83-2.3.75-3.52.33l.15.14c-.41-1.19-.39-2.38.03-3.57l-.15.2c1.75.02,2.73,1.13,3.51,2.52Z" style="fill: #fff;" />
      <path d="m190.61,522.93c-.27-2.4-.61-4.8.37-7.14h.32c.33,2.44,1.91,4.99-.69,7.14Z" style="fill: #fff;" />
      <path d="m379.1,804.84c0,.52.01,1.04.02,1.55-1.12.64-2.28.64-3.46.19l.13.15c.02-.73.05-1.47.07-2.2l-.13.14c1.14-.45,2.27-.4,3.36.17Z" style="fill: #fff;" />
      <path d="m287.18,761.79c-.49-.38-1.03-.7-1.45-1.14-.59-.62-1.08-1.46-.17-2.09.82-.57,1.49.05,1.93.81-.11.8-.21,1.61-.31,2.41Z" style="fill: #fff;" />
      <path d="m397.9,343.02c3.4.76,3.82,1.36,2.57,3.71-.44-.41-.88-.83-1.32-1.24h.01c-.42-.39-.85-.8-1.27-1.21l-.02-.02c0-.42,0-.83.03-1.25Z" style="fill: #fff;" />
      <path d="m605.72,546.92c-.22,1.1-.43,2.21-.65,3.31l.07-.04-2.24-1.16c.02-.56.05-1.12.07-1.68.37-.12.7-.31.99-.58.59.05,1.18.1,1.77.15Z" style="fill: #fff;" />
      <path d="m340.75,129.31c-.01,1.57-.03,3.14-.04,4.71-.67.16-1.16.03-1.23-.77-.06-1.05.28-2.26-1.13-2.74.01-.42.03-.83.04-1.25l-.06.06c.81,0,1.62-.01,2.43-.01Z" style="fill: #fff;" />
      <path d="m551.84,639.26c1.59.26,1.08,1.6,1.31,2.56.1.44.21.88.31,1.32l-.38.18-.29-.31c-.26.12-.53.14-.81.04-1.41-.26-1.2-1.38-1.23-2.37.57-.32,1.06-.69,1.08-1.43Z" style="fill: #fff;" />
      <path d="m121.08,642.68v-.51c.38-.53.76-1.07,1.14-1.6,2.15.19,2.93.96,1.19,2.82-.78-.24-1.55-.47-2.33-.71Z" style="fill: #fff;" />
      <path d="m585.01,522.93h-.4c-.22-.78-.44-1.56-.66-2.34.26-.23.37-.51.34-.86.8-.2,1.59-.41,2.39-.62-.02.86-.04,1.71-.06,2.57-.54.41-1.07.83-1.61,1.24Z" style="fill: #fff;" />
      <path d="m440.15,511.67c0-.33,0-.67,0-1,.39-.46.79-.92,1.18-1.38h.02c.59-.37,1.18-.73,1.78-1.08l.16-.02c.2.79.41,1.58.61,2.37l-.04.04c-.66.14-1.08.53-1.25,1.2h0c-.82-.04-1.64-.09-2.46-.13Z" style="fill: #fff;" />
      <path d="m272.48,606.69c-.4.75-.96,1.32-1.82.85-.62-.33-.49-1-.22-1.57.25-.53.54-1.05.82-1.58.41-.02.83-.05,1.24-.07,0,.79,0,1.58-.01,2.37Z" style="fill: #fff;" />
      <path d="m177.79,440.82c-.32.19-.67.57-.94.52-.69-.14-.91-.73-.52-1.3.16-.23.79-.38,1.02-.25.26.15.3.67.44,1.03Z" style="fill: #fff;" />
      <path d="m257.6,475.16c-.68-.06-1.11-.43-1.01-1.12.1-.66.61-1,1.24-.81.29.09.64.46.71.76.16.7-.29,1.06-.94,1.17Z" style="fill: #fff;" />
      <path d="m391.58,100.51c.24.37.28.77.11,1.18.08.29.05.57-.08.83.22.2.26.44.13.7-.73-.67-1.58-.36-2.4-.3-.04-.82-.09-1.64-.13-2.46.79.01,1.57.02,2.36.03Z" style="fill: #fff;" />
      <path d="m379.15,504.27c-.93-.11-2.02-.18-1.82-1.48.13-.82,1.04-.91,1.79-.96.01.81.02,1.62.03,2.44Z" style="fill: #fff;" />
      <path d="m324.64,109.25c-.42,0-.83,0-1.25-.01.03-.89-.55-1.18-1.27-1.33,0-.39.03-.78.07-1.17.81-.04,1.62-.07,2.43-.11,1.56.86.18,1.74.02,2.62Z" style="fill: #fff;" />
      <path d="m319.74,119.62c.23.27.67.54.67.81,0,.73-.55,1.04-1.18.76-.24-.11-.46-.71-.38-1,.07-.25.58-.38.9-.56Z" style="fill: #fff;" />
      <path d="m201.33,137.05c-.31.18-.66.55-.93.5-.67-.14-.89-.71-.51-1.27.15-.22.77-.36,1-.23.25.15.3.65.44,1Z" style="fill: #fff;" />
      <path d="m348.27,156.72c-.02-.83-.04-1.66-.07-2.49.96.11,2.21.04,1.99,1.49-.13.87-1.13.95-1.92,1Z" style="fill: #fff;" />
      <path d="m123.13,549.54c-.3.21-.61.62-.88.6-.71-.07-.99-.63-.65-1.25.14-.25.77-.46,1.03-.35s.34.65.5,1Z" style="fill: #fff;" />
      <path d="m319.25,199.4c-.3.21-.61.61-.88.58-.69-.09-.97-.65-.66-1.25.13-.24.76-.42,1.02-.31.26.12.35.64.52.98Z" style="fill: #fff;" />
      <path d="m171.91,204.13c.06-.82.13-1.85,1.04-1.95,1.49-.17,1.36,1.1,1.42,2.1-.82-.05-1.64-.1-2.47-.14Z" style="fill: #fff;" />
      <path d="m570.22,208.42c.27.12.75.18.88.42.3.54.08,1.09-.52,1.25-.26.07-.79-.15-.91-.39-.26-.52-.12-1.04.55-1.28Z" style="fill: #fff;" />
      <path d="m174.38,564.53c-1.22-.53-1.29-1.59-1.21-2.71,1.92.21,2.98.82,1.21,2.71Z" style="fill: #fff;" />
      <path d="m471.16,568.08c-.01-.82.04-1.85.9-2,1.39-.25,1.49.95,1.58,1.97l-2.49.03Z" style="fill: #fff;" />
      <path d="m108.33,246.68l-.36-.06-.36.05c-.11-.81-.21-1.62-.32-2.42l.02-.02c.5-.38,1.01-.76,1.51-1.14.22.07.44.07.67,0,.1.8.2,1.61.3,2.41h0c-.49.39-.98.79-1.47,1.18Z" style="fill: #fff;" />
      <path d="m652.5,256.56c.11,1.07.02,2.05-1.07,2.63-.46-.48-.92-.95-1.38-1.43-.01-.72-.02-1.43-.03-2.15.4-.11.81-.17,1.22-.17l.04.03c.41.36.81.72,1.22,1.08Z" style="fill: #fff;" />
      <path d="m155.74,270.49c-1.1.81-2.2,1.64-3.7,1.22-.01-.38-.01-.76,0-1.14.42-.43.84-.87,1.27-1.3l-.03.03c.81.04,1.62.07,2.44.11-.02.36,0,.73.03,1.09Z" style="fill: #fff;" />
      <path d="m107.3,595.57c.01-.83.03-1.66.04-2.49.79.05,1.8.12,1.93.98.23,1.43-1.02,1.38-1.97,1.51Z" style="fill: #fff;" />
      <path d="m112.31,280.36c.07-.79.08-1.83.99-1.93,1.42-.16,1.37,1.09,1.45,2.08-.82-.05-1.63-.1-2.45-.14Z" style="fill: #fff;" />
      <path d="m400.21,604.3c.88,0,1.76,0,2.65.01-.03.83-.05,1.66-.08,2.48l-2.1-.07c-.16-.81-.31-1.62-.47-2.43Z" style="fill: #fff;" />
      <path d="m255.09,287.95c.01,1.08-.15,2.07-1.25,2.59-1.99-2.05-.36-2.32,1.25-2.59Z" style="fill: #fff;" />
      <path d="m262.06,614.18c-.51,0-1.03,0-1.54,0-.11-.77-.22-1.55-.34-2.32l-.08.08c.81-.02,1.61-.04,2.42-.05l-.05-.05c-.13.78-.27,1.56-.41,2.34Z" style="fill: #fff;" />
      <path d="m479.81,304.24c-.92-.14-2.34-.17-1.97-1.41.41-1.36,1.4-.73,2.02.18-.01.41-.03.82-.06,1.23Z" style="fill: #fff;" />
      <path d="m315.85,621.51c-.27-.23-.72-.42-.79-.69-.17-.74.31-1.17.99-1.12.7.05.98.64.75,1.25-.1.27-.62.38-.95.56Z" style="fill: #fff;" />
      <path d="m445.52,622.98c.27-.24.54-.67.81-.67.73,0,1.02.56.75,1.19-.11.24-.71.46-.99.38-.25-.07-.38-.59-.56-.9Z" style="fill: #fff;" />
      <path d="m410.32,320.12c-.63-.17-.93-.62-.72-1.2.09-.24.59-.5.88-.48.65.06.9.6.71,1.17-.08.24-.57.34-.87.51Z" style="fill: #fff;" />
      <path d="m320.43,635.39c-.14.32-.19.81-.43.95-.55.3-1.11.09-1.26-.54-.07-.28.15-.82.4-.95.55-.3,1.03-.04,1.3.55Z" style="fill: #fff;" />
      <path d="m504.64,336.96c.03.82.05,1.64.08,2.47-.8-.18-1.6-.35-2.41-.53.06-.35-.04-.65-.28-.91.07-.41.13-.82.18-1.22h0c.81.07,1.62.13,2.43.19Z" style="fill: #fff;" />
      <path d="m240.19,640.6c-.82-.03-1.65-.06-2.47-.09,0-.79,0-1.57,0-2.35.82,0,1.63,0,2.45,0,0,.81.02,1.62.03,2.43Z" style="fill: #fff;" />
      <path d="m402.85,340.33c1.09.12,2.2.17,2.65,1.46l-.14.12c-.42.37-.85.73-1.27,1.1l-.58-.02h-.58c-.43-.44-.85-.89-1.28-1.33.4-.44.8-.89,1.2-1.33Z" style="fill: #fff;" />
      <path d="m199.3,642.02c.8-.06,1.59-.13,2.38-.19.01.8.07,1.88-.75,2.07-1.35.32-1.51-.86-1.64-1.88Z" style="fill: #fff;" />
      <path d="m328.36,647.19c.24.27.68.54.68.81,0,.74-.55,1.05-1.19.77-.25-.11-.46-.72-.39-1.02.06-.25.58-.38.9-.56Z" style="fill: #fff;" />
      <path d="m133.28,663.04c-.78-.07-1.84-.01-1.95-.92-.17-1.38,1.07-1.41,2.05-1.55-.03.82-.06,1.65-.09,2.47Z" style="fill: #fff;" />
      <path d="m117.13,664.76c0,.57.02,1.14.03,1.71-.8.12-1.6.24-2.39.36,0-.81,0-1.62.01-2.44.79.12,1.57.24,2.35.36Z" style="fill: #fff;" />
      <path d="m515.71,669.33c.13-1.01-.34-2.36,1.38-2.47l-.02-.02c.37.59.75,1.17,1.12,1.76v.26c-.73.4-1.45.8-2.18,1.2.11-.33,0-.57-.3-.73Z" style="fill: #fff;" />
      <path d="m301.12,669.51c.8-.06,1.59-.12,2.39-.17,0,.8.06,1.88-.76,2.07-1.35.31-1.5-.88-1.63-1.89Z" style="fill: #fff;" />
      <path d="m324.64,676.86c-.93-.15-2.37-.14-2-1.42.4-1.37,1.42-.76,2.1.12-.03.43-.06.87-.09,1.3Z" style="fill: #fff;" />
      <path d="m619.99,729.42c.42.43.88.84,1.27,1.29.46.53.42,1.19-.02,1.63-.92.94-1.43-.17-1.92-.6-.73-.64-.23-1.51-.11-2.29.26.08.53.07.79-.03Z" style="fill: #fff;" />
      <path d="m66.64,502.91c-.86-2.21-.06-2.87,2.09-2.26l-.03-.05c.01.4.05.81.13,1.2v.02c-.48.39-.96.78-1.43,1.17l-.36-.18-.39.09Z" style="fill: #fff;" />
      <path d="m642.63,280.47c-.02-.81-.04-1.63-.06-2.44.96-.05,1.81.15,2.38,1.02-.41.48-.82.96-1.24,1.45l-.54-.04h-.54Z" style="fill: #fff;" />
      <path d="m118.33,283.36c-.13.68.45,1.68-.59,1.93-.4.09-.95-.49-1.43-.76h-.16c.54-.46,1.08-.92,1.62-1.38.13.24.31.31.56.21Z" style="fill: #fff;" />
      <path d="m127.2,285.42c-.06-.95.25-1.75,1.01-2.35.49.39.97.78,1.46,1.17-.07.35-.09.71-.06,1.06l-2.41.12Z" style="fill: #fff;" />
      <path d="m97.46,528.02c-.02-.71-.18-1.65.79-1.69.82-.03,1.18.75,1.23,1.57-.67.04-1.35.08-2.02.12Z" style="fill: #fff;" />
      <path d="m518.34,323.09l-.24-1.38c.19-.31.31-.65.34-1.01.34-.06.68-.11,1.02-.15.43.49.87.98,1.3,1.48-.09.21-.09.43-.02.65-.8.14-1.6.28-2.4.41Z" style="fill: #fff;" />
      <path d="m488.54,551.75c.43.44.87.88,1.3,1.32l-1.29,1.26-.02-.02c-.41-.41-.82-.82-1.23-1.22l-.03-.03c0-.42.02-.84.02-1.26h0c.41-.03.82-.04,1.23-.05Z" style="fill: #fff;" />
      <path d="m606.51,366.8c.5-.95,1.25-1.65,2.11-.61.52.64-.11,1.38-.81,1.81-.44-.4-.87-.8-1.31-1.2Z" style="fill: #fff;" />
      <path d="m428.88,581.74c-1.04.05-2.28.53-2.46-1.2l.02-.03c.46-.39.91-.78,1.37-1.17.33,0,.66,0,.99,0,.01.81.03,1.62.04,2.43l.05-.03Z" style="fill: #fff;" />
      <path d="m91.5,583.16c.62-.32,1.04-1.35,1.93-.68.21.15.25.85.09,1.12-.56.9-1.38.39-2.11.24.2-.2.23-.43.09-.68Z" style="fill: #fff;" />
      <path d="m596.58,586.87c-.14-1.06.17-1.91,1.08-2.51.46.43.93.87,1.39,1.3-.04.32-.05.64-.02.96-.81.08-1.63.17-2.44.25Z" style="fill: #fff;" />
      <path d="m390.48,590.56c-.56-.14-1.51-.15-1.61-.45-.43-1.27.7-1.59,1.54-2.04.03.83.05,1.66.07,2.49Z" style="fill: #fff;" />
      <path d="m202.93,809.35c-.79-.44-1.39-1.13-.64-1.89.75-.76,1.43-.17,1.88.63-.41.42-.83.84-1.24,1.26Z" style="fill: #fff;" />
      <path d="m93.31,600.28c-1.31-.96-.93-2.11-.37-3.29l.12-.05c.95,1.08.84,2.24.2,3.42l.05-.09Z" style="fill: #fff;" />
      <path d="m237.71,146.68c0-.42-.01-.84-.02-1.26.43-.4.86-.79,1.28-1.18,1.15.46,1.23,1.44,1.21,2.48-.82-.01-1.65-.03-2.47-.04Z" style="fill: #fff;" />
      <path d="m166.11,154.35l.52-.04c.5.42,1.01.84,1.51,1.26-.06.31-.07.63-.03.94-.81.08-1.62.16-2.43.24h-.01c.15-.81.3-1.61.45-2.4Z" style="fill: #fff;" />
      <path d="m412.66,200.46c-.87.03-1.64-.2-2.25-.84.48-.51.96-1.02,1.44-1.54l.54.03c.09.79.17,1.57.26,2.35Z" style="fill: #fff;" />
      <path d="m517.77,452.36c-.32.16-.67.49-.94.44-.66-.12-.89-.67-.57-1.25.1-.18.72-.27.93-.14.28.18.4.62.59.95Z" style="fill: #fff;" />
      <path d="m303.52,668.05c-.45-.4-.9-.81-1.35-1.21.03-.44.06-.87.1-1.31.82.04,1.64.08,2.47.12-.03,1-.15,1.94-1.22,2.4Z" style="fill: #fff;" />
      <path d="m251.39,811.95c-.81-.11-1.61-.22-2.42-.32.08-.24.08-.49-.01-.73.44-.5.87-1.01,1.31-1.51.29.03.59.03.88.01.1.82.2,1.65.3,2.47l-.06.08Z" style="fill: #fff;" />
      <path d="m333.31,668.04c.41-.05.82-.05,1.23.01,0,.79.42,1.16,1.19,1.17.15.17.3.35.45.53-.17.25-.28.53-.34.82-.73-.03-1.45-.07-2.18-.1-.12-.81-.25-1.61-.37-2.42l.03-.02Z" style="fill: #fff;" />
      <path d="m150.79,465.44c-.02-.38-.02-.76-.02-1.14.44-.41.88-.81,1.32-1.22l-.04.05.57.03.57-.02v-.07c.02.82.03,1.64.04,2.46h0c-.82-.04-1.64-.07-2.46-.09Z" style="fill: #fff;" />
      <path d="m482.37,673.17c.78-.49,1.31-1.46,2.43-1.32q.26,2.7-2.38,2.27c.09-.32.07-.64-.05-.95Z" style="fill: #fff;" />
      <path d="m447.29,471.7c-.17.34-.25.85-.52.97-.25.11-.68-.18-1.04-.3.2-.34.33-.75.61-.99.4-.36.77-.2.95.32Z" style="fill: #fff;" />
      <path d="m449.98,241.77c.45-.46.89-.93,1.34-1.39.41.04.81.07,1.22.09v1.3c-.4.41-.8.82-1.2,1.23l-.04.04c-.44-.43-.88-.85-1.32-1.28Z" style="fill: #fff;" />
      <path d="m94.91,244.29c.8.46,1.6.91,2.39,1.37-.13.25-.14.5-.02.76-.8.12-1.59.23-2.39.35h0c.02-.83.04-1.66.06-2.49l-.03.02Z" style="fill: #fff;" />
      <path d="m582.93,483c.61-.82,1.39-1.62,2.17-.4.45.7-.2,1.41-1,1.7-.39-.43-.78-.87-1.17-1.3Z" style="fill: #fff;" />
      <path d="m232.68,793.27c-.04.35-.03.69.04,1.04-.58.39-1.16.77-1.74,1.16-.29-.38-.57-.76-.86-1.14.04-.41.08-.82.14-1.23h-.01c.81.06,1.62.12,2.43.17Z" style="fill: #fff;" />
      <path d="m286.14,494.24c.44-.78,1.12-1.34,1.86-.63.75.72.18,1.42-.54,1.9-.44-.42-.88-.85-1.32-1.27Z" style="fill: #fff;" />
      <path d="m257.61,728.19l-2.48-.19c.93-1.33,1.78-1.53,2.48.19Z" style="fill: #fff;" />
      <path d="m519.55,726.72c-.67,0-1.35-.17-1.15-1,.23-1,.81-.57,1.3-.13-.08.37-.13.75-.15,1.13Z" style="fill: #fff;" />
      <path d="m317.23,112.95c0-.82-.02-1.63-.03-2.45.41-.04.82-.05,1.23-.01,0,.44,0,.88,0,1.33.03.38,0,.76-.12,1.13h-.54s-.54,0-.54,0Z" style="fill: #fff;" />
      <path d="m312.2,122.96c.82.02,1.65.03,2.47.05,0,.36,0,.72-.02,1.08-.82.04-1.63.08-2.45.12-.02-.42-.02-.83,0-1.25Z" style="fill: #fff;" />
      <path d="m196.74,125.52c.82-.01,1.64-.03,2.47-.05,0,.43,0,.87,0,1.3-.82-.06-1.64-.12-2.46-.18,0-.36-.01-.72-.02-1.08Z" style="fill: #fff;" />
      <path d="m130.81,714.37c.06.83.11,1.66.17,2.49-.45,0-.89-.01-1.34-.02.05-.83.11-1.65.16-2.47.34.02.67.02,1.01,0Z" style="fill: #fff;" />
      <path d="m291.59,135.27c-.18-.78-.37-1.55-.55-2.33,2.88-.11.86,1.43.78,2.32h-.23Z" style="fill: #fff;" />
      <path d="m383.02,139.3c.75.15,1.5.3,2.25.45l.07.15c-.77.16-1.54.31-2.31.46-.02-.36-.02-.71,0-1.07Z" style="fill: #fff;" />
      <path d="m381.36,156.63c-.61-.92-1.33-1.86.38-2.4-.13.8-.26,1.6-.38,2.4Z" style="fill: #fff;" />
      <path d="m139.69,165.43c-.07-1.02-.07-2,1.13-2.4,0,.98-.07,1.93-1.13,2.4Z" style="fill: #fff;" />
      <path d="m243.97,174.39c.81-.06,1.62-.13,2.43-.19v1.34c-.82-.07-1.64-.14-2.46-.21.03-.31.04-.62.03-.94Z" style="fill: #fff;" />
      <path d="m306.01,181.76c.83,0,1.65-.02,2.47-.02v1.26c-.82-.03-1.65-.05-2.47-.07,0-.39,0-.78,0-1.16Z" style="fill: #fff;" />
      <path d="m432.58,196.73c-1.33-.91-1.62-1.76.14-2.49-.05.83-.09,1.66-.14,2.49Z" style="fill: #fff;" />
      <path d="m224.1,201.91c.9.06,1.4.55,1.23,1.44-.11.59-.66.83-1.26.82,0-.75.02-1.5.03-2.26Z" style="fill: #fff;" />
      <path d="m654.9,212.85c-1.09-.23-1.77-.79-.86-1.82.34-.38.89.23,1.12.72-.15.35-.24.72-.26,1.1Z" style="fill: #fff;" />
      <path d="m339.61,214.45l2.39-.17c0,.44.02.87.02,1.31-.82-.09-1.63-.18-2.45-.28.04-.28.05-.57.04-.86Z" style="fill: #fff;" />
      <path d="m233.98,229.25c.79.07,1.59.14,2.38.21,0,.28.01.56.05.84l-2.44.26c0-.44,0-.88,0-1.32Z" style="fill: #fff;" />
      <path d="m222.83,233.06c.82-.03,1.64-.05,2.46-.08.02.41.01.82-.01,1.24-.81-.04-1.63-.08-2.44-.12,0-.35,0-.69,0-1.04Z" style="fill: #fff;" />
      <path d="m263.78,239.25c0-.83,0-1.66.01-2.49.39,0,.78,0,1.17,0,.01.83.02,1.66.04,2.48h-.61s-.61,0-.61,0Z" style="fill: #fff;" />
      <path d="m455.02,237.99c.42-.01.84-.03,1.27-.05-.01.85-.02,1.7-.03,2.55h0c-.41.04-.81,0-1.2-.13-.01-.79-.03-1.58-.04-2.38Z" style="fill: #fff;" />
      <path d="m461.25,247.99c0-.83-.02-1.66-.03-2.49,1.43.81,1.41,1.65.03,2.49Z" style="fill: #fff;" />
      <path d="m215.33,250.43c.79.11,1.58.23,2.38.34-.03.23-.02.46.05.69l-2.42.4c0-.48,0-.95-.01-1.43Z" style="fill: #fff;" />
      <path d="m168.15,265.51c.01-.83.03-1.66.04-2.48,1.34.85,1.38,1.68-.04,2.48Z" style="fill: #fff;" />
      <path d="m575.51,263.06c1.74.15,1.38,1.31,1.14,2.41-.74-.11-1.1-.63-1.39-1.25.11-.39.2-.79.27-1.2l-.03.03Z" style="fill: #fff;" />
      <path d="m131.65,698.33c.17.75.33,1.5.5,2.25-1.89-.22-.95-1.34-.71-2.24h.21Z" style="fill: #fff;" />
      <path d="m354.45,277.89c-.04.85-.08,1.7-.12,2.56-1.32-.92-1.29-1.77.12-2.56Z" style="fill: #fff;" />
      <path d="m639,279.7c.92-.17,2.08-1.02,2.31.81h-.01c-.79-.16-1.57-.32-2.36-.49l.06-.32Z" style="fill: #fff;" />
      <path d="m127.37,294.17c-.08-.81-.16-1.62-.24-2.43,0,0,.03-.03.03-.03.42-.02.85-.03,1.27-.05l.09.08c-.1.82-.2,1.64-.3,2.46-.28-.04-.57-.05-.85-.04Z" style="fill: #fff;" />
      <path d="m523.29,694.27c-.82.02-1.64.05-2.46.07v-1.31c.82.05,1.64.1,2.46.15,0,.36,0,.73,0,1.09Z" style="fill: #fff;" />
      <path d="m68.72,301.79c.09-.81.19-1.63.28-2.44.29.03.58.02.86-.04.08.82.17,1.64.25,2.47l-1.4.02Z" style="fill: #fff;" />
      <path d="m636.39,302.99c.03-.8.07-1.61.1-2.41.33,0,.65-.02.98-.05.09.83.18,1.67.26,2.5-.45-.01-.9-.03-1.35-.04Z" style="fill: #fff;" />
      <path d="m225.28,305.5c.83,0,1.66.01,2.48.02,0,.39,0,.78-.01,1.17l-2.46.06c0-.42,0-.83,0-1.25Z" style="fill: #fff;" />
      <path d="m165.73,326.74v-2.45c1.46.82,1.46,1.63,0,2.45Z" style="fill: #fff;" />
      <path d="m175.55,329.1c-.38.09-.76.17-1.14.27-.68.17-1.06-.25-1.43-.71.47-.27.92-.63,1.42-.78.34-.1.76.09,1.14.16-.05.36-.05.71,0,1.07Z" style="fill: #fff;" />
      <path d="m92.39,329.25c.82.03,1.64.07,2.46.1-.4.44-.79.88-1.19,1.31-.67-.25-1.12-.69-1.27-1.41Z" style="fill: #fff;" />
      <path d="m318.42,346.78c.83,0,1.65,0,2.47,0,0,.4,0,.79,0,1.18-.82.01-1.65.02-2.47.03,0-.41,0-.82,0-1.22Z" style="fill: #fff;" />
      <path d="m523.3,350.52c.03-.82.07-1.65.1-2.47.31.02.62.03.93.02.07.81.15,1.63.22,2.44h0c-.42,0-.83,0-1.25.02h0Z" style="fill: #fff;" />
      <path d="m462.51,685.56c-.04.83-.07,1.66-.11,2.49-1.39-.89-1.56-1.73.11-2.49Z" style="fill: #fff;" />
      <path d="m447.38,686.4c-.76.12-1.51.24-2.27.35-.02-.36-.03-.73,0-1.09.78.14,1.55.27,2.33.41l-.06.32Z" style="fill: #fff;" />
      <path d="m156.25,355.31c-.16-.35-.32-.71-.48-1.06-.33-.69.12-1.27.6-1.27.47,0,.92.57.57,1.26-.18.35-.32.71-.48,1.06h-.21Z" style="fill: #fff;" />
      <path d="m318.81,356.51c-.13-.75-.26-1.49-.39-2.24h0c.41-.04.81,0,1.21.13.03.82-.21,1.54-.82,2.11Z" style="fill: #fff;" />
      <path d="m190.52,358.04c.82.01,1.63.03,2.45.04,0,.34-.01.69-.01,1.03-.81.02-1.62.04-2.42.06-.03-.37-.03-.75-.01-1.12Z" style="fill: #fff;" />
      <path d="m563.08,360.52c-1.23-.41-1.2-1.44-1.2-2.46l-.02.02c.36,0,.71-.01,1.07-.03.05.82.1,1.65.15,2.47Z" style="fill: #fff;" />
      <path d="m606.54,359.32c.82-.01,1.64-.02,2.46-.03.02.41.02.82,0,1.23-.82-.03-1.64-.06-2.47-.08,0-.37,0-.74,0-1.11Z" style="fill: #fff;" />
      <path d="m363.16,364.25c-.01-.83-.03-1.65-.04-2.48,1.58.8,1.57,1.63.04,2.48Z" style="fill: #fff;" />
      <path d="m364.27,367.78c-1.33-.26-1.37-1.22-1.21-2.28,1.44.21,1.23,1.3,1.21,2.28Z" style="fill: #fff;" />
      <path d="m171.89,370.52c-1.56-.82-1.52-1.66-.02-2.5,0,.83.01,1.67.02,2.5Z" style="fill: #fff;" />
      <path d="m65.1,369.3c1.24.39,1.23,1.39,1.14,2.42-1.04-.49-1.15-1.42-1.14-2.42Z" style="fill: #fff;" />
      <path d="m388.18,392.93c-.03-.71-.67-1.95.17-1.99,1.58-.08.48,1.27.61,1.99h-.39s-.39,0-.39,0Z" style="fill: #fff;" />
      <path d="m229.1,397.98c-.03-.82-.05-1.64-.08-2.45,1.72.76,1.46,1.59.08,2.45Z" style="fill: #fff;" />
      <path d="m330.88,406.88c.82-.03,1.63-.07,2.45-.1,0,.42,0,.84,0,1.26-.82-.03-1.64-.05-2.46-.09,0-.36,0-.72.01-1.07Z" style="fill: #fff;" />
      <path d="m75.02,421.78c.82.01,1.65.02,2.47.04,0,.38,0,.75-.01,1.12-.82.04-1.64.08-2.46.12,0-.43,0-.86,0-1.28Z" style="fill: #fff;" />
      <path d="m195.48,424.28c0-.83,0-1.66.01-2.49.39,0,.79,0,1.18,0,.02.83.05,1.66.07,2.5-.42,0-.84,0-1.26,0Z" style="fill: #fff;" />
      <path d="m379.49,428.48c.75-.14,1.5-.28,2.25-.41,0,.36-.01.71-.02,1.07-.77-.13-1.55-.25-2.32-.38l.09-.28Z" style="fill: #fff;" />
      <path d="m74.97,434.27c-1.58-.78-1.36-1.61-.07-2.46.02.82.05,1.64.07,2.46Z" style="fill: #fff;" />
      <path d="m466.21,434.31l2.47-.03c0,.42,0,.84,0,1.26-.83-.01-1.65-.02-2.48-.03,0-.4,0-.8,0-1.2Z" style="fill: #fff;" />
      <path d="m468.64,439.3c.04-.77.07-1.55.11-2.32,1.33.83,1.58,1.62-.11,2.32Z" style="fill: #fff;" />
      <path d="m70.18,444.24c-.06-.82-.12-1.65-.18-2.47l1.27.02c-.06.81-.13,1.63-.19,2.44l-.45-.02-.46.02Z" style="fill: #fff;" />
      <path d="m471.21,446.79c-1.79-.69-1.37-1.55-.2-2.48.07.83.13,1.65.2,2.48Z" style="fill: #fff;" />
      <path d="m384.26,446.85c.75-.09,1.87-.17,1.83.67-.03.69-1.22.64-1.98.55.09-.4.14-.81.16-1.22Z" style="fill: #fff;" />
      <path d="m392.92,451.79c-1.5-.76-1.33-1.6-.1-2.47.03.82.07,1.65.1,2.47Z" style="fill: #fff;" />
      <path d="m457.5,449.28c.82.01,1.65.02,2.47.03,0,.37,0,.74-.02,1.11-.82.05-1.64.11-2.46.16,0-.43,0-.87,0-1.3Z" style="fill: #fff;" />
      <path d="m145.11,455.34c-.17-.76-.34-1.52-.5-2.27l-.03.02.61-.05h.62c.25.91-.23,1.62-.6,2.36l-.1-.06Z" style="fill: #fff;" />
      <path d="m153.18,470.59c.03.83.06,1.67.09,2.5-1.36-.79-1.42-1.62-.09-2.5Z" style="fill: #fff;" />
      <path d="m457.58,470.76c1.44.81,1.5,1.58-.08,2.28.03-.76.06-1.52.08-2.28Z" style="fill: #fff;" />
      <path d="m117.24,473.06c.03.41.03.81,0,1.22-.82-.03-1.64-.07-2.46-.1.41-.42.83-.83,1.24-1.25.4.05.81.09,1.21.14Z" style="fill: #fff;" />
      <path d="m311.52,480.34c-.27-.9-1.35-2.04.67-2.25l-.03-.03c-.18.78-.37,1.55-.55,2.33l-.09-.05Z" style="fill: #fff;" />
      <path d="m138.41,479.42l2.42-.1c.05.4.05.81,0,1.21-.81-.06-1.62-.12-2.44-.18.01-.31.01-.62,0-.93Z" style="fill: #fff;" />
      <path d="m369.47,481.63c-.04-.78-.08-1.55-.11-2.33.44-.01.87-.02,1.31-.03.3,1.14.28,2.12-1.19,2.36Z" style="fill: #fff;" />
      <path d="m507.18,479.31c.82,0,1.64.01,2.46.02,0,.38.01.76,0,1.15-.82.03-1.65.06-2.48.09,0-.42,0-.84.01-1.25Z" style="fill: #fff;" />
      <path d="m237.77,480.7c.81-.06,1.62-.12,2.42-.18,0,.42,0,.85,0,1.27-.81-.07-1.62-.15-2.43-.22.03-.29.03-.58.01-.88Z" style="fill: #fff;" />
      <path d="m75,482.98c.82.07,1.63.13,2.44.2-.02.3-.02.6,0,.9-.81.08-1.62.16-2.43.24l-.02-.02c-.01-.42-.03-.85-.04-1.27l.04-.05Z" style="fill: #fff;" />
      <path d="m84.99,483.03c-.02.82-.05,1.64-.07,2.46-1.31-.36-1.35-1.35-1.18-2.44.42,0,.84-.01,1.25-.02Z" style="fill: #fff;" />
      <path d="m579.1,484.27c.85.04,1.69.08,2.54.12-.01.33-.01.66,0,.99-.81.04-1.62.07-2.43.11-.03-.4-.06-.81-.11-1.22Z" style="fill: #fff;" />
      <path d="m195.42,491.78c-1.31-.85-1.38-1.68.04-2.48-.01.83-.03,1.66-.04,2.48Z" style="fill: #fff;" />
      <path d="m353.19,489.29c-.05.86-.1,1.72-.15,2.58-.32-.04-.63-.04-.95,0-.05-.86-.1-1.72-.15-2.58.42,0,.83,0,1.25,0Z" style="fill: #fff;" />
      <path d="m174.36,494.3c.03-.82.05-1.65.09-2.47.34,0,.68,0,1.02,0,.05.82.11,1.64.16,2.47-.42,0-.85,0-1.27,0Z" style="fill: #fff;" />
      <path d="m460,494.29c0-.83.01-1.65.02-2.48.37,0,.73,0,1.1,0l.05,2.46h-.58s-.58,0-.58,0Z" style="fill: #fff;" />
      <path d="m600.31,495.54c.83,0,1.65.02,2.48.03,0,.4,0,.79,0,1.19-.82,0-1.65.02-2.47.02-.01-.41-.01-.83,0-1.24Z" style="fill: #fff;" />
      <path d="m212.88,503.09c.79.06,1.58.12,2.37.19,0,.3.02.6.07.9-.83.09-1.65.18-2.47.26,0-.45.02-.9.03-1.35Z" style="fill: #fff;" />
      <path d="m229.03,663.06c-.09.79-.17,1.58-.26,2.37-.97-.91-1.34-1.75.26-2.37Z" style="fill: #fff;" />
      <path d="m307.5,531.68c-.09-.8-.18-1.59-.27-2.39h.01c.42,0,.84,0,1.25-.01h.01c-.1.82-.21,1.63-.31,2.44l-.34-.05h-.35Z" style="fill: #fff;" />
      <path d="m207.9,533.07c.83,0,1.65-.01,2.47-.02,0,.4,0,.81,0,1.21-.82-.01-1.64-.03-2.46-.04,0-.38-.01-.77,0-1.16Z" style="fill: #fff;" />
      <path d="m583.06,540.46c.43-1.12,1.31-1.31,2.36-1.18,0,.46.02.92.03,1.38-.83-.08-1.65-.15-2.48-.23l.09.03Z" style="fill: #fff;" />
      <path d="m287.38,659.33c-.81-.06-1.61-.12-2.42-.18.03-.29.03-.57-.01-.86.81-.09,1.63-.18,2.44-.27l.03.04c0,.42-.02.85-.03,1.27h0Z" style="fill: #fff;" />
      <path d="m156.94,544.29c-1.33-.86-1.41-1.69.05-2.49-.02.83-.03,1.66-.05,2.49Z" style="fill: #fff;" />
      <path d="m147.01,658c-.82.04-1.64.07-2.46.11.75-1.58,1.58-1.45,2.46-.11Z" style="fill: #fff;" />
      <path d="m135.63,657.53c-.57.11-1.17.38-1.7.28-.59-.12-.58-.73.02-.82.53-.08,1.12.23,1.68.36v.17Z" style="fill: #fff;" />
      <path d="m184.51,554.18c-.08-.8-.17-1.6-.25-2.4l.03-.02c.42.02.83.03,1.25.05.06.97-.08,1.85-1.03,2.36Z" style="fill: #fff;" />
      <path d="m176.87,553.11c.81.01,1.62.02,2.43.03.01.34.01.69,0,1.03-.81.02-1.63.04-2.44.07-.03-.38-.02-.75,0-1.13Z" style="fill: #fff;" />
      <path d="m433.89,553.02c.77.06,1.55.11,2.32.17-.44,1.06-1.32,1.26-2.33,1.2,0-.46,0-.92.01-1.37Z" style="fill: #fff;" />
      <path d="m169.46,563.2c.75-.11,1.95-.24,1.94.5-.01.76-1.19.59-1.94.46,0-.32,0-.65,0-.97Z" style="fill: #fff;" />
      <path d="m231.65,571.71c-.08-.81-.16-1.62-.24-2.43,1.62.66,1.42,1.5.24,2.43Z" style="fill: #fff;" />
      <path d="m438.85,574.32c.04-.82.07-1.64.11-2.46,1.27.88,1.35,1.7-.11,2.46Z" style="fill: #fff;" />
      <path d="m261.12,581.77c-1.07-.94-1.63-1.84.26-2.47-.09.82-.17,1.65-.26,2.47Z" style="fill: #fff;" />
      <path d="m357.1,585.98c.95-.38,2.04-1.14,2.21.77l.05-.04c-.77-.14-1.53-.29-2.3-.43l.04-.29Z" style="fill: #fff;" />
      <path d="m556.87,598.12c.82-.02,1.64-.04,2.46-.05-.79,1.46-1.61,1.43-2.46.05Z" style="fill: #fff;" />
      <path d="m352.13,602.24c.38-.11.76-.2,1.13-.33.75-.25,1.04.11.92.79-.09.51-.48.56-.94.32-.34-.18-.74-.25-1.12-.37v-.4Z" style="fill: #fff;" />
      <path d="m272.49,604.33c.42-.02.84-.03,1.26-.05.11.43.21.87.32,1.3-.53.37-1.06.75-1.59,1.12,0-.79,0-1.58.01-2.37Z" style="fill: #fff;" />
      <path d="m535.61,631.87c.12.79.22,2.05-.5,2.05-.71,0-.61-1.26-.49-2.05.33-.01.66-.01.99,0Z" style="fill: #fff;" />
      <path d="m530.78,636.84c.62.11,1.6-.37,1.56.81,0,.15-1.01.26-1.56.39-.03-.4-.03-.8,0-1.2Z" style="fill: #fff;" />
      <path d="m420.18,644.34c.06-.82.13-1.64.19-2.46,1.22.92,1.56,1.77-.19,2.46Z" style="fill: #fff;" />
      <path d="m493.62,644.28c-.02-.81-.04-1.63-.06-2.44.39-.03.78-.03,1.18,0,0,.82,0,1.64,0,2.46h-.56s-.56,0-.56,0Z" style="fill: #fff;" />
      <path d="m315.08,650.4c-.13-.77-.25-1.54-.37-2.31,1.9.18.96,1.37.8,2.29l-.42.02Z" style="fill: #fff;" />
      <path d="m431.43,829.35c-.03.83-.05,1.65-.08,2.48-.34,0-.69,0-1.03,0-.04-.82-.08-1.64-.12-2.46.41-.03.82-.03,1.23,0Z" style="fill: #fff;" />
      <path d="m293.58,826.85c-.06.81-.11,1.62-.17,2.42-.3,0-.6,0-.9.03-.07-.82-.13-1.64-.2-2.46.42,0,.84,0,1.27,0Z" style="fill: #fff;" />
      <path d="m281.16,795.6c-.05.81-.11,1.62-.16,2.42-.29,0-.59,0-.88.03l-.22-2.45.02-.02c.42.01.83.02,1.25.03h0Z" style="fill: #fff;" />
      <path d="m258.79,784.43c-.87,1.23-1.7,1.41-2.46-.11.82.03,1.64.07,2.46.11Z" style="fill: #fff;" />
      <path d="m289.9,779.33c-.1.8-.2,1.59-.31,2.39h-.36s-.35.05-.35.05c-.11-.81-.22-1.62-.33-2.44.45,0,.9,0,1.35,0Z" style="fill: #fff;" />
      <path d="m334.23,777.01c.1.77.2,1.55.31,2.32-.36,0-.72-.01-1.08-.02.09-.79.19-1.57.28-2.36l.49.06Z" style="fill: #fff;" />
      <path d="m228.98,775.65c-.85,1.32-1.67,1.37-2.46-.06.82.02,1.64.04,2.46.06Z" style="fill: #fff;" />
      <path d="m353.21,774.39c1.82.1,1.33,1.33,1.16,2.4l.04-.03c-.39,0-.77-.04-1.14-.14-.02-.74-.04-1.49-.06-2.23Z" style="fill: #fff;" />
      <path d="m124.48,768.19c.1.81.19,1.62.29,2.43-.45,0-.89-.01-1.34-.02.1-.81.19-1.62.28-2.43.25.05.5.06.76.03Z" style="fill: #fff;" />
      <path d="m79.97,761.79c-.82,0-1.64.02-2.45.03-.02-.39-.02-.78.01-1.16.81.01,1.62.02,2.42.03.02.37.02.73.02,1.1Z" style="fill: #fff;" />
      <path d="m387.88,749.39c-.11.76-.22,1.51-.33,2.27l-.43.07c-.15-.8-.3-1.6-.45-2.4l.03-.02c.41.01.81.05,1.21.11l-.04-.03Z" style="fill: #fff;" />
      <path d="m139.28,748.24c.1.78.19,1.56.29,2.33h-.58s-.58,0-.58,0c.07-.81.15-1.61.22-2.42.2.1.42.13.64.09Z" style="fill: #fff;" />
      <path d="m145.65,739.43c.07.81.14,1.62.21,2.42-1.61-.67-1.38-1.51-.21-2.42Z" style="fill: #fff;" />
      <path d="m274.98,738.15c1.79.11,1.5,1.26,1.19,2.42-1.31-.35-1.21-1.41-1.19-2.42Z" style="fill: #fff;" />
      <path d="m311.01,85.58c.3.12.83.19.87.36.16.7-.38.74-.89.73-.01-.36,0-.73.02-1.09Z" style="fill: #fff;" />
      <path d="m422.72,100.45c.84.01,1.27.44,1.28,1.29-.75-.1-1.18-.53-1.28-1.29Z" style="fill: #fff;" />
      <path d="m364.36,109.21c-.54.03-1.1,0-.94-.74.04-.18.59-.26.91-.38.02.37.03.75.03,1.12Z" style="fill: #fff;" />
      <path d="m456.23,117.99c.04.85-.35,1.27-1.2,1.23.06-.75.46-1.16,1.2-1.23Z" style="fill: #fff;" />
      <path d="m217.87,121.84c.38-.1.77-.13,1.16-.08-.02.78-.39,1.21-1.2,1.18-.01-.37,0-.74.03-1.1Z" style="fill: #fff;" />
      <path d="m423.94,144.15c-.49-.03-1.09,0-.92-.73.04-.18.6-.24.92-.35.03.36.03.72,0,1.08Z" style="fill: #fff;" />
      <path d="m404.09,150.44c.92-.07,1.33.38,1.27,1.29-.78-.07-1.2-.51-1.27-1.29Z" style="fill: #fff;" />
      <path d="m222.8,151.73c-.14.69-.55,1.09-1.23,1.23.15-.67.57-1.08,1.23-1.23Z" style="fill: #fff;" />
      <path d="m261.3,151.74c.57-.02,1.2-.02,1.03.79-.04.19-.66.26-1.01.38-.01-.39-.02-.78-.02-1.17Z" style="fill: #fff;" />
      <path d="m365.63,166.8c.34.12.93.18.97.36.17.77-.44.77-.98.78-.02-.38-.02-.76,0-1.14Z" style="fill: #fff;" />
      <path d="m89.93,176.75c.67.15,1.08.56,1.23,1.24-.66-.16-1.07-.57-1.23-1.24Z" style="fill: #fff;" />
      <path d="m82.45,190.42c-1.07-.38-1.05-.75,0-1.12.01.37.01.75,0,1.12Z" style="fill: #fff;" />
      <path d="m286.14,214.24c0-.41-.01-.83,0-1.24.41-.01.83-.01,1.24,0,0,.39,0,.77-.02,1.16-.4.06-.8.07-1.2.04v.05Z" style="fill: #fff;" />
      <path d="m73.75,237.92c-.3-.18-.59-.36-.89-.55.3-.18.59-.36.89-.55.02.36.02.73,0,1.09Z" style="fill: #fff;" />
      <path d="m457.51,238.04c-.44,0-.88,0-1.31,0-.03-.9.41-1.29,1.28-1.23,0,.41.02.81.04,1.22Z" style="fill: #fff;" />
      <path d="m258.84,239.27c.4-.02.79,0,1.18.06.02.37.03.74.01,1.11-.69-.09-1.08-.49-1.2-1.18Z" style="fill: #fff;" />
      <path d="m168.18,248.06c.35.12.96.18,1,.36.18.8-.46.78-1,.79-.02-.38-.02-.76,0-1.15Z" style="fill: #fff;" />
      <path d="m101.19,251.78c.38-.03.77-.05,1.16-.04.03.87-.39,1.28-1.25,1.25-.02-.41.01-.81.09-1.21Z" style="fill: #fff;" />
      <path d="m245.17,258.05c.67.12,1.06.51,1.18,1.19-.64-.15-1.03-.55-1.18-1.19Z" style="fill: #fff;" />
      <path d="m109.77,274.18c-.48-.01-1.02-.04-.86-.72.04-.17.56-.24.85-.35.03.35.03.71.01,1.06Z" style="fill: #fff;" />
      <path d="m135.84,291.77c-.02.79-.4,1.23-1.21,1.25.09-.72.49-1.14,1.21-1.25Z" style="fill: #fff;" />
      <path d="m430.18,296.75l-.97-.52.92-.58c.03.37.04.74.05,1.1Z" style="fill: #fff;" />
      <path d="m217.81,314.19c-.47,0-.98-.05-.84-.69.04-.17.53-.24.81-.36.03.35.04.7.02,1.05Z" style="fill: #fff;" />
      <path d="m324.63,314.26c0-.42,0-.83,0-1.25.41,0,.83,0,1.24,0,0,.4,0,.79-.01,1.18-.41.07-.81.08-1.22.06h0Z" style="fill: #fff;" />
      <path d="m418.96,315.39c-.3-.12-.82-.19-.86-.37-.15-.69.37-.75.89-.72,0,.37,0,.73-.03,1.1Z" style="fill: #fff;" />
      <path d="m297.34,329.25c-.05-.86.35-1.29,1.22-1.25h0c0,.42-.04.82-.16,1.21-.36.03-.71.04-1.07.03Z" style="fill: #fff;" />
      <path d="m414.04,330.53c.7.12,1.12.53,1.24,1.24-.66-.17-1.08-.57-1.24-1.24Z" style="fill: #fff;" />
      <path d="m97.35,339.21c-.32-.18-.64-.36-.96-.54.32-.18.63-.37.94-.55.02.36.03.73.01,1.09Z" style="fill: #fff;" />
      <path d="m374.31,338.04c.79.02,1.19.43,1.22,1.22h0c-.4,0-.8-.04-1.2-.14-.02-.36-.03-.72-.03-1.09Z" style="fill: #fff;" />
      <path d="m446.2,341.81c-.11.29-.17.81-.33.84-.66.15-.64-.4-.67-.85.34-.03.67-.03,1.01,0Z" style="fill: #fff;" />
      <path d="m564.28,341.77c-.03.8-.43,1.25-1.24,1.28.11-.72.52-1.16,1.24-1.28Z" style="fill: #fff;" />
      <path d="m170.65,345.54c.45.21.9.41,1.36.62-.32.5-.77.7-1.35.57,0-.4-.01-.79,0-1.19Z" style="fill: #fff;" />
      <path d="m453.81,353c0-.81.35-1.29,1.22-1.25-.01.38-.03.76-.05,1.14-.39.13-.78.16-1.19.08l.02.03Z" style="fill: #fff;" />
      <path d="m298.57,356.84c.5,0,1,.08.83.73-.04.18-.54.24-.82.36-.03-.36-.03-.72,0-1.08Z" style="fill: #fff;" />
      <path d="m365.65,363.15c.3.12.83.19.87.37.15.7-.41.7-.9.71,0-.36,0-.72.03-1.07Z" style="fill: #fff;" />
      <path d="m266.28,365.57c.34.12.95.19.99.38.18.79-.44.81-1,.81,0-.4,0-.79.01-1.19Z" style="fill: #fff;" />
      <path d="m395.43,370.59c.52,0,1.12,0,.95.75-.04.18-.62.24-.95.35-.03-.37-.03-.73,0-1.1Z" style="fill: #fff;" />
      <path d="m481.06,401.67c-.31-.11-.86-.17-.9-.34-.16-.72.42-.7.9-.72.03.35.03.71,0,1.06Z" style="fill: #fff;" />
      <path d="m98.66,409.17c-.04-.38-.05-.75-.03-1.13.87-.04,1.33.34,1.26,1.25-.41,0-.82-.03-1.23-.12Z" style="fill: #fff;" />
      <path d="m210.4,414.3c.4-.02.79,0,1.18.09.03.35.03.71,0,1.06-.71-.05-1.11-.43-1.19-1.14Z" style="fill: #fff;" />
      <path d="m284.81,425.56c-.02.5.01,1.11-.73.95-.17-.04-.23-.61-.34-.94.36-.03.71-.03,1.07,0Z" style="fill: #fff;" />
      <path d="m503.44,429.29c-.03.79-.44,1.21-1.23,1.24.11-.71.52-1.13,1.23-1.24Z" style="fill: #fff;" />
      <path d="m507.19,434.3c.4-.03.8,0,1.19.08.02.39.04.78.04,1.16-.81-.02-1.19-.46-1.23-1.25Z" style="fill: #fff;" />
      <path d="m127.18,446.8c.69.11,1.07.53,1.19,1.21h.03c-.4.02-.81,0-1.21-.05,0-.39-.01-.77-.01-1.16Z" style="fill: #fff;" />
      <path d="m306.02,454.34c.5.03,1.1,0,.94.74-.04.18-.6.24-.93.36-.02-.37-.03-.73-.02-1.1Z" style="fill: #fff;" />
      <path d="m340.8,466.86c.4-.06.79-.07,1.19-.05-.13.67-.51,1.09-1.2,1.19,0-.38,0-.76.01-1.14Z" style="fill: #fff;" />
      <path d="m222.8,478.04c0-.42,0-.83,0-1.25.41,0,.83,0,1.24,0v1.25s-.62,0-.62,0h-.62Z" style="fill: #fff;" />
      <path d="m548.19,483.16c.32.12.87.18.9.36.15.73-.42.73-.93.72-.01-.36,0-.72.02-1.08Z" style="fill: #fff;" />
      <path d="m84.93,511.72c-.47-.03-1.05-.01-.89-.71.04-.18.57-.24.88-.35.03.36.03.71,0,1.07Z" style="fill: #fff;" />
      <path d="m646.26,525.55c.83-.03,1.18.42,1.16,1.22-.72-.08-1.1-.5-1.16-1.22Z" style="fill: #fff;" />
      <path d="m168.2,528.16c.59.01,1.15.14.91.89-.06.19-.64.22-.98.32.03-.4.05-.81.06-1.21Z" style="fill: #fff;" />
      <path d="m569.34,530.58c.32.21.65.42.97.63-.34.19-.67.38-1.01.57-.03-.4-.02-.8.04-1.2Z" style="fill: #fff;" />
      <path d="m168.24,536.77c.4-1.19.78-1.06,1.15.02-.38,0-.76,0-1.15-.02Z" style="fill: #fff;" />
      <path d="m346.95,536.73c.81.07,1.19.53,1.25,1.32-.72-.15-1.11-.61-1.25-1.32Z" style="fill: #fff;" />
      <path d="m387.91,540.43c-.55-.02-1.1-.14-.87-.86.06-.19.61-.22.94-.32-.03.39-.05.79-.06,1.18Z" style="fill: #fff;" />
      <path d="m138.37,560.57c.4-.03.8,0,1.19.08.03.38.04.76.03,1.13-.84.04-1.24-.37-1.22-1.22Z" style="fill: #fff;" />
      <path d="m75.02,565.55c.85-.02,1.27.4,1.25,1.26-.39.01-.78-.02-1.17-.1l.02.02c-.08-.39-.11-.78-.1-1.18Z" style="fill: #fff;" />
      <path d="m139.61,571.83c.29.18.59.36.88.54-.28.19-.57.38-.85.57-.02-.37-.03-.74-.03-1.11Z" style="fill: #fff;" />
      <path d="m116.03,574.39c.4-.07.79-.1,1.19-.06-.1.7-.48,1.1-1.19,1.15-.02-.36-.02-.72,0-1.09Z" style="fill: #fff;" />
      <path d="m225.31,790.59c.13-.69.53-1.1,1.22-1.23-.16.65-.56,1.07-1.22,1.23Z" style="fill: #fff;" />
      <path d="m132.15,789.37c.8.03,1.27.41,1.3,1.25-.71-.12-1.17-.51-1.3-1.25Z" style="fill: #fff;" />
      <path d="m425.19,735.51c-.31-.2-.61-.39-.92-.59.31-.19.63-.38.94-.56,0,.38,0,.77-.02,1.15Z" style="fill: #fff;" />
      <path d="m302.31,781.95c.31.11.85.17.89.34.16.71-.41.71-.9.72-.03-.36-.02-.71,0-1.07Z" style="fill: #fff;" />
      <path d="m422.76,771.93c.3.11.8.16.85.34.19.65-.36.7-.82.79-.05-.38-.06-.75-.04-1.13Z" style="fill: #fff;" />
      <path d="m539.55,831.89c.32.21.65.42.98.63-.35.17-.69.33-1.04.5-.02-.38,0-.76.06-1.13Z" style="fill: #fff;" />
      <path d="m426.42,770.5c-.32-.12-.87-.19-.91-.37-.16-.73.44-.72.94-.75,0,.37,0,.75-.02,1.12Z" style="fill: #fff;" />
      <path d="m274.95,685.57c.67.15,1.07.56,1.2,1.24-.66-.15-1.05-.58-1.2-1.24Z" style="fill: #fff;" />
      <path d="m133.39,764.33c.83.02,1.28.42,1.3,1.28-.74-.11-1.19-.52-1.3-1.28Z" style="fill: #fff;" />
      <path d="m268.73,648.04c-.68-.12-1.08-.53-1.22-1.21h-.01c.41,0,.82.01,1.22.06,0,.38,0,.77,0,1.15Z" style="fill: #fff;" />
      <path d="m232.69,672.98l-.59.09h-.6c.05-.76.44-1.18,1.22-1.21,0,.37,0,.75-.03,1.12Z" style="fill: #fff;" />
      <path d="m117.27,759.42c.41.23.83.46,1.24.69-.43.19-.86.37-1.29.56.03-.42.05-.83.05-1.25Z" style="fill: #fff;" />
      <path d="m524.54,640.55l-.6.02s-.59-.09-.59-.09c-.03-.38-.04-.77-.03-1.15.85-.04,1.22.41,1.22,1.22Z" style="fill: #fff;" />
      <path d="m442.62,638.13c.52,0,1.11,0,.94.74-.04.18-.61.24-.93.35-.03-.36-.03-.73-.01-1.09Z" style="fill: #fff;" />
      <path d="m438.88,793.12c.82,0,1.26.38,1.26,1.23-.74-.09-1.17-.49-1.26-1.23Z" style="fill: #fff;" />
      <path d="m88.59,624.35c.07.4.1.8.08,1.2-.72-.1-1.14-.5-1.22-1.23.38,0,.76.01,1.14.03Z" style="fill: #fff;" />
      <path d="m406.65,623.04c0-.48.04-1.01.7-.86.17.04.24.55.36.84l-.53.03h-.53Z" style="fill: #fff;" />
      <path d="m124.66,752.99c-.39.09-.79.12-1.19.09.05-.76.45-1.16,1.21-1.19.01.37,0,.73-.02,1.1Z" style="fill: #fff;" />
      <path d="m107.3,611.77c.34.11.91.15.97.34.22.75-.33.88-.92.87,0-.4-.02-.81-.04-1.21Z" style="fill: #fff;" />
      <path d="m419.03,605.63c.28.18.57.36.85.55-.28.18-.56.37-.85.55-.02-.37-.02-.73,0-1.1Z" style="fill: #fff;" />
      <path d="m618.88,735.49c-.83.08-1.13-.37-1.14-1.13.79-.05,1.11.4,1.14,1.13Z" style="fill: #fff;" />
      <path d="m539.44,638.06c.05.79-.08,1.55-.74,2.05-.24.18-.76.25-1.02.12-.85-.43-.15-.88.09-1.29.18-.33.44-.62.67-.92h.51s.5.05.5.05Z" style="fill: #fff;" />
      <path d="m539.48,633.06c-.08.78-.17,1.56-1.29,1.19-.17-.06-.44-.28-.42-.37.23-.93.89-1.03,1.69-.83h0Z" style="fill: #fff;" />
      <path d="m537.03,643.04c.06-.53.28-.76.64-.63.01,0-.01.33-.1.4-.15.11-.37.14-.56.2l.02.03Z" style="fill: #fff;" />
      <path d="m534.42,640.6c.24-.31.47-.63.71-.94.74.99-.13.9-.68,1.01l-.03-.07Z" style="fill: #fff;" />
      <path d="m539.44,638.06l-.5-.06h-.51c-.07-.6.1-1.04.79-.83.15.04.15.58.22.89Z" style="fill: #fff;" />
      <path d="m94.76,586.73c.17.77.17,1.94-.49,1.97-.75.03-.8-1.08-.65-1.86.38.01.76-.02,1.14-.1Z" style="fill: #fff;" />
      <path d="m94.76,586.73c-.38.08-.75.11-1.14.1-.13-.98.34-1.35,1.26-1.25h0c.05.39.01.77-.11,1.15Z" style="fill: #fff;" />
      <path d="m102.3,290.44c-.73.02-1.8.74-2.07-.34-.26-1.06.63-2.01,1.7-1.75,1.03.26.29,1.38.35,2.12l.02-.03Z" style="fill: #fff;" />
      <path d="m498.47,648.05c-1.23-.13-1.73-.74-1.16-1.94.23-.48.57-.51.89-.23.77.65.22,1.45.25,2.18h.01Z" style="fill: #fff;" />
      <path d="m278.65,255.44c-.32-.16-.65-.31-.97-.47.18-.17.35-.33.53-.5.14.33.28.66.41.99l.03-.03Z" style="fill: #fff;" />
      <path d="m163.3,259.19c.19-1.05-.35-2.51,1.43-2.68.7-.07,1.07.45,1.11,1.04.06.89.59,2.1-.6,2.48-.51.17-1.31-.57-1.97-.89l.03.05Z" style="fill: #fff;" />
      <path d="m140.96,531.93c.71.04,1.41.08,2.12.13.08.92.73,2.25-.75,2.39-1.89.18-1.5-1.34-1.37-2.52Z" style="fill: #fff;" />
      <path d="m489.75,454.19c.6-.19,1.1-.1,1.35.53.04.11-.18.46-.3.48-.68.09-.97-.33-1.08-.94l.03-.07Z" style="fill: #fff;" />
      <path d="m403.04,429.47c.29.03.58.03.87.01.09,1.54.77,3.09-.04,5.09-1.85-1.76-.96-3.49-.83-5.1Z" style="fill: #fff;" />
      <path d="m603.95,546.77c.04-.38.1-.76.16-1.14.66-.16,1.06-.59,1.21-1.25,1.93.57,1.45,1.51.4,2.55-.59-.05-1.18-.1-1.77-.15Z" style="fill: #fff;" />
      <path d="m609.02,541.82c.67.15,1.07.58,1.24,1.24-.66-.16-1.06-.59-1.24-1.24Z" style="fill: #fff;" />
      <path d="m89.93,269.26c1.68,0,2.73.63,2.53,2.53-2.66.34-2.77.23-2.53-2.53Z" style="fill: #fff;" />
      <path d="m91.18,275.54c-.84.01-1.95.86-2.3-.65-.16-.7.48-1.13,1-1.22,1.56-.28,1.17,1.02,1.32,1.86l-.02.02Z" style="fill: #fff;" />
      <path d="m109.63,373.49c-.16.27-.31.53-.46.78-.13-.13-.39-.3-.36-.4.07-.28.25-.53.39-.79.14.13.27.26.43.4Z" style="fill: #fff;" />
      <path d="m422.73,419.28c-.34-.17-.67-.34-1-.5.19-.19.38-.38.57-.56.14.36.29.71.43,1.07h0Z" style="fill: #fff;" />
      <path d="m91.04,287.34c-.24.21-.56.71-.77.66-.51-.12-.97-.48-1.45-.74.49-.24.96-.58,1.47-.68.19-.04.49.49.74.75Z" style="fill: #fff;" />
      <path d="m128.25,223.16c-.04.36,0,.71.12,1.05-.71.48-1.02,1.83-2.2,1.21-.32-.17-.51-1.11-.35-1.55.44-1.21,1.52-.8,2.43-.72Z" style="fill: #fff;" />
      <path d="m328.32,107.93c-.18-.18-.37-.35-.55-.53.11.03.27.02.33.1.1.12.14.3.2.45l.02-.02Z" style="fill: #fff;" />
      <path d="m255.03,456.82c.02.78.38,1.67-.58,2.13-.14.07-.7-.35-.76-.62-.24-1.08.49-1.37,1.37-1.49l-.03-.03Z" style="fill: #fff;" />
      <path d="m256.3,461.76l-.59.02-.59-.02c.12-.69.52-1.08,1.2-1.21.03.4.03.8,0,1.2Z" style="fill: #fff;" />
      <path d="m211.66,465.5c-.05-.4-.06-.79-.01-1.19.52.01,1.06.1.88.79-.05.19-.57.27-.87.4Z" style="fill: #fff;" />
      <path d="m220.27,279.27c-.1-.63.06-1.13.73-1.29.12-.03.46.24.45.34-.07.67-.56.9-1.16.96h-.03Z" style="fill: #fff;" />
      <path d="m296.1,102.96c.19-.2.39-.41.58-.61-.03.13-.02.31-.1.38-.13.11-.33.15-.5.22l.02.02Z" style="fill: #fff;" />
      <path d="m92.36,291.57c-.13-.37-.12-.73.02-1.1,1.52.2,1.1,1.22.9,2.14l-.46.03s-.46-.03-.46-.03c-.03-.35-.03-.7,0-1.05Z" style="fill: #fff;" />
      <path d="m230.25,669.32c-.04.55-.25.99-.87,1.03-.11,0-.35-.3-.32-.4.17-.59.63-.72,1.19-.63h0Z" style="fill: #fff;" />
      <path d="m325.96,677.98c-.03-.81-.07-1.61-.1-2.42.73,0,1.48,0,1.46,1.04-.02.86-.56,1.27-1.35,1.38Z" style="fill: #fff;" />
      <path d="m91.2,394.35c.83.14,1.5.46,1.24,1.47-.07.25-.61.64-.72.57-.85-.5-.48-1.35-.49-2.09l-.03.04Z" style="fill: #fff;" />
      <path d="m323.43,399.24c.39-.84.78-1.68,1.16-2.52.86.27,1.5.85,1.29,1.77-.34,1.53-1.54.79-2.46.76Z" style="fill: #fff;" />
      <path d="m265.84,774.12c-.26-.14-.52-.28-.79-.43.13-.13.29-.4.4-.38.28.06.54.24.81.37-.13.13-.26.27-.42.43Z" style="fill: #fff;" />
      <path d="m278.46,628.62c-.07.12-.14.25-.2.37-.18-.13-.36-.27-.54-.41.13-.12.26-.24.39-.36.12.13.24.26.36.4Z" style="fill: #fff;" />
      <path d="m452.06,731.67c-.25-.14-.5-.29-.76-.43.13-.13.3-.38.4-.36.28.07.53.25.79.38-.14.13-.27.26-.43.41Z" style="fill: #fff;" />
      <path d="m253.32,624.15c-.24-.14-.48-.29-.72-.44.13-.12.29-.37.39-.35.27.07.5.25.75.39-.13.12-.26.25-.42.4Z" style="fill: #fff;" />
      <path d="m124.05,585.56c.12.26.28.52.34.79.02.1-.24.24-.37.37-.12-.26-.28-.52-.34-.79-.02-.1.24-.24.37-.37Z" style="fill: #fff;" />
      <path d="m108.23,740.91c.02.64.04,1.28.06,1.92-1.07.07-2.67.79-2.46-1.21.14-1.38,1.49-.79,2.41-.71Z" style="fill: #fff;" />
      <path d="m446.77,742.15c.13,0,.29-.04.37.03.32.24.24.52-.23.71-.06.02-.28-.22-.34-.38-.03-.09.12-.24.19-.36Z" style="fill: #fff;" />
      <path d="m442.14,817.87c-.26-.15-.52-.29-.78-.44.13-.13.29-.39.39-.37.28.06.53.24.79.37-.13.14-.26.27-.41.43Z" style="fill: #fff;" />
      <path d="m638.59,598.72c-.14.12-.29.34-.42.33-.13-.01-.25-.25-.37-.39.14-.12.29-.34.42-.33.13,0,.25.25.37.39Z" style="fill: #fff;" />
      <path d="m293.39,392.3c-.07.15-.14.3-.22.44-.2-.15-.41-.31-.61-.46.14-.15.28-.29.42-.44.13.15.27.31.4.46Z" style="fill: #fff;" />
      <path d="m356.38,406.65c-.13-.07-.27-.15-.4-.23.15-.2.29-.41.44-.61.13.15.37.3.36.44,0,.14-.26.27-.4.4Z" style="fill: #fff;" />
      <path d="m569.96,587.91c-.15-.07-.29-.15-.44-.22.16-.2.31-.4.47-.61.14.14.29.29.43.43l-.46.4Z" style="fill: #fff;" />
      <path d="m123.41,309.22c-.77-.03-1.53-.07-2.3-.1-.05-.93-.57-2.21.9-2.34,1.87-.17,1.62,1.22,1.4,2.44Z" style="fill: #fff;" />
      <path d="m348.33,640.68c.73.03,1.45.06,2.18.09.01.9.53,2.18-.9,2.32-1.95.18-1.39-1.31-1.28-2.41Z" style="fill: #fff;" />
      <path d="m632.44,643.52c-.14.25-.28.5-.42.76-.13-.13-.38-.3-.35-.4.06-.28.24-.53.37-.8.13.13.25.27.4.43Z" style="fill: #fff;" />
      <path d="m400.42,680.65c.29.14.58.28.88.43-.16.16-.32.31-.49.47-.12-.31-.24-.62-.36-.93l-.03.03Z" style="fill: #fff;" />
      <path d="m211.61,229.26c.01.43.02.85.03,1.28-1.18-.39-1.22-.82-.03-1.28Z" style="fill: #fff;" />
      <path d="m212.82,231.71l-.59.03h-.59c-.01-.43-.03-.85-.05-1.27.72.11,1.11.53,1.22,1.24Z" style="fill: #fff;" />
      <path d="m633.84,504.3c.42,0,.83,0,1.25,0-.01.83-.02,1.65-.03,2.48l-2.46.03c.42-.83.83-1.67,1.25-2.51Z" style="fill: #fff;" />
      <path d="m251.32,799.28c-.32-.14-.64-.28-.96-.43l.52-.52c.14.32.28.65.41.98,0,0,.03-.03.03-.03Z" style="fill: #fff;" />
      <path d="m487.26,630.59c-.2.21-.4.41-.6.62.03-.13.02-.32.11-.39.14-.11.34-.14.52-.21l-.02-.02Z" style="fill: #fff;" />
      <path d="m98.67,509.24c-.07-.38-.08-.77-.01-1.15.33.19.65.38.98.57-.32.19-.64.39-.96.58Z" style="fill: #fff;" />
      <path d="m360.64,635.57c.82.02,1.18.48,1.25,1.26-.87.04-1.22-.45-1.25-1.26Z" style="fill: #fff;" />
      <path d="m292.37,663.13c.33.17.65.35.98.52-.88.82-.82-.04-.95-.55l-.03.03Z" style="fill: #fff;" />
      <path d="m549.45,449.23c.09-.7.46-1.12,1.18-1.19-.08.71-.47,1.11-1.18,1.19Z" style="fill: #fff;" />
      <path d="m256.34,514.29c.15-.36.29-.71.44-1.07.18.19.37.39.56.58-.33.16-.67.32-1,.49h0Z" style="fill: #fff;" />
      <path d="m146.97,731.88c-.13.33-.25.67-.37,1-.18-.17-.35-.34-.53-.5.31-.15.63-.31.94-.46l-.04-.03Z" style="fill: #fff;" />
      <path d="m267.75,354.53c.24.1.48.11.73.02-.03.9.96,2.28-1.03,2.28.1-.77.2-1.54.31-2.31Z" style="fill: #fff;" />
      <path d="m315.95,626.85c.32.18.63.35.95.53-.93.89-.77-.11-.94-.54l-.02.02Z" style="fill: #fff;" />
      <path d="m90.85,300.22c-.69.1-1.1.48-1.21,1.18-2.88-1.52.04-2.12.48-3.12.85.42.51,1.29.73,1.94Z" style="fill: #fff;" />
      <path d="m463.73,741.81c0-.81.02-1.61.03-2.42.73.12,1.47.26,1.47,1.23,0,.98-.78,1.07-1.49,1.19Z" style="fill: #fff;" />
      <path d="m155.74,475.55c-.14.66-.53,1.08-1.2,1.21.13-.68.52-1.09,1.2-1.21Z" style="fill: #fff;" />
      <path d="m303.57,213.02c-.44.4-.87.8-1.31,1.2-.91-.04-1.83-.05-2.26-1.09.34-.47.69-.93,1.03-1.4,1.11-.09,2.56-.88,2.54,1.29Z" style="fill: #fff;" />
      <path d="m616.41,618.11c.04.39.04.77,0,1.16-.32-.12-.86-.19-.91-.38-.18-.72.39-.76.91-.78Z" style="fill: #fff;" />
      <path d="m94.93,728.12c1.26-.18,2.6-.65,3.34.96-1.3.34-2.78,1.31-3.34-.96Z" style="fill: #fff;" />
      <path d="m68.83,291.77c-.76-.07-1.52-.15-2.29-.22.03-.66.06-1.33.09-1.99,1.87-.4,2.88.05,2.19,2.22Z" style="fill: #fff;" />
      <path d="m238.87,291.7l-.57.07-.57-.03c.02-.5.04-1.07.74-.92.19.04.27.57.4.88Z" style="fill: #fff;" />
      <path d="m550.6,633.11c.03.39.03.78,0,1.18-.28-.2-.57-.39-.85-.58.28-.2.56-.4.85-.59Z" style="fill: #fff;" />
      <path d="m535.69,539.26l-.59.04-.59-.03c.05-.52.01-1.17.78-1,.19.04.26.64.39.98Z" style="fill: #fff;" />
      <path d="m339.48,133.25c-.41-.02-.81-.11-1.2-.26.02-.83.05-1.65.07-2.48,1.41.48,1.07,1.69,1.13,2.74Z" style="fill: #fff;" />
      <path d="m411.59,691.86c.38-.03.76-.02,1.13.03-.13.3-.21.8-.4.85-.67.15-.72-.38-.73-.88Z" style="fill: #fff;" />
      <path d="m320.81,109.28c.29-.27.42-.61.39-1.01.38.06.69-.06.92-.36.73.15,1.31.44,1.27,1.33-.86.01-1.73.03-2.59.05Z" style="fill: #fff;" />
      <path d="m319.62,109.18c.45,0,.89-.01,1.34-.02.17,1.08-.27,1.55-1.36,1.39,0-.46.01-.91.02-1.37Z" style="fill: #fff;" />
      <path d="m319.69,111.77c-.42.01-.85.03-1.27.05,0-.44,0-.88,0-1.33.43-.02.85-.04,1.28-.06,0,.45-.01.9-.01,1.34Z" style="fill: #fff;" />
      <path d="m391.61,102.53c.13-.27.15-.55.08-.83.56-.06,1.21.19,1.13.67-.09.51-.74.51-1.21.16Z" style="fill: #fff;" />
      <path d="m273.65,604.38c.02-.45.03-.89.04-1.34.42.22.85.45,1.28.67-.44.22-.88.45-1.32.67Z" style="fill: #fff;" />
      <path d="m287.39,263.02c.4-.03.8-.03,1.2,0-.4,1.08-.8,1.09-1.2,0Z" style="fill: #fff;" />
      <path d="m353.09,494.19l-.53.06s-.54-.03-.53-.03c.02-.78.05-1.57.07-2.35.32-.04.63-.05.95,0,.01.77.03,1.55.04,2.32Z" style="fill: #fff;" />
      <path d="m202.89,146.77c.06.86-.1,1.62-.92,2.08-.13-.89-.91-2.07.92-2.08Z" style="fill: #fff;" />
      <path d="m453.81,291.72c.11,1.05.42,2.2-1.17,2.42-.08-1.04-.84-2.41,1.17-2.42Z" style="fill: #fff;" />
      <path d="m92.36,291.57c-.03.35-.03.7,0,1.05-.98.52-1.1-.17-1.22-.88.39-.16.8-.21,1.22-.17Z" style="fill: #fff;" />
      <path d="m106.03,324.3c.18,1.11-.79,1.65-1.2,2.46-.88-.16-1.96.12-2.31-1.12,1-.9,1.97-1.87,3.51-1.33Z" style="fill: #fff;" />
      <path d="m251.37,813.09c-.02,1.02-.08,2.01-1.22,2.47-.02-1.04,0-2.05,1.22-2.47Z" style="fill: #fff;" />
      <path d="m283.63,505.54h-.6s-.6,0-.6,0c-.03-.41-.03-.81-.01-1.22.67.14,1.08.55,1.22,1.23Z" style="fill: #fff;" />
      <path d="m295.99,582.98l-.56.06s-.57-.02-.57-.02c0-.8.37-1.24,1.2-1.21.02.39,0,.78-.07,1.17Z" style="fill: #fff;" />
      <path d="m418.99,110.46c-.77-.05-1.15-.48-1.22-1.22.77.04,1.15.48,1.22,1.22Z" style="fill: #fff;" />
      <path d="m349.34,624.43c-.05.71-.1,1.42-.15,2.13-1.1.03-2.19.05-3.28.08-.03-.75-.06-1.5-.1-2.25,1.18-.51,2.36-.5,3.53.04Z" style="fill: #fff;" />
      <path d="m384.27,728.12c.82-.02,1.65-.03,2.47-.05-.03.82-.06,1.63-.09,2.45-.76-.02-1.52-.05-2.28-.07-.03-.78-.07-1.55-.1-2.33Z" style="fill: #fff;" />
      <path d="m154.56,463.1c.38-.07.75-.07,1.13,0-.11.69-.21,1.38-.32,2.07h-.53c-.09-.68-.18-1.37-.28-2.06Z" style="fill: #fff;" />
      <path d="m355.67,361.77h-.62s-.62,0-.62,0c0-.42,0-.83,0-1.25.41,0,.83,0,1.24,0,0,.42,0,.83,0,1.25Z" style="fill: #fff;" />
    </g>
  </g>
  <g id="Team_Color_Left" data-name="Team Color Left">
    <path d="m245.25,878.28l-6.66-1.74s.82-87.53,165.49-159.23l-5.3,9.29s-143.51,58.7-153.54,151.67Z" style="fill: url(#linear-gradient-28);" />
    <path d="m208.74,870.28l6.31,1.86s3.15-105.45,201.63-177.84l6.49-10.73s-195.7,63.23-214.43,186.71Z" style="fill: url(#linear-gradient-29);" />
    <path d="m182.68,862.69l-5.81-1.25s-3.31-113.72,256.41-203.5l-2.48,6.19s-231.26,75.56-248.12,198.56Z" style="fill: url(#linear-gradient-30);" />
    <path d="m153.58,856.52l-8.73-1.79s2.94-132.46,296.74-221.76l-2.65,6.93s-250.45,64.34-285.36,216.61Z" style="fill: url(#linear-gradient-31);" />
    <path d="m123.99,850.26l-10.02-2.13s-2.85-139.77,337.39-240.26l-3.21,8.5s-304.44,80.49-324.16,233.89Z" style="fill: url(#linear-gradient-32);" />
    <path d="m98.51,819.71s-3.16-8.14-6.17-12.65c0,0,23.56-114.53,367.22-224.12l-2.88,8.71s-309.04,90.07-358.17,228.05Z" style="fill: url(#linear-gradient-33);" />
    <path d="m79.82,790.51s-4.28-3.94-8.76-6.76c0,0,26.86-115.08,396.14-223.06l-2.52,7.95s-320.26,83.4-384.85,221.87Z" style="fill: url(#linear-gradient-34);" />
    <path d="m39.76,742.3v-14.73s114.97-118.11,437.93-205.87l-2.01,6.67s-277.9,70.33-435.92,213.93Z" style="fill: url(#linear-gradient-35);" />
    <path d="m39.8,691.95v11.46s221.99-146.44,440.31-192.33l2-7.88s-208.82,48.19-442.31,188.75Z" style="fill: url(#linear-gradient-36);" />
    <path d="m52.65,774.66s-7.4-2.33-10.72-2.7c0,0,47.28-121.13,430.45-231.14l-2.46,7.96s-299.37,68.11-417.27,225.88Z" style="fill: url(#linear-gradient-37);" />
    <path d="m39.81,676.1v-7.49s158.15-78.33,241.03-111.8c82.88-33.47,159.39-62.69,159.39-62.69h12.22s-217.07,77.1-412.64,181.99Z" style="fill: url(#linear-gradient-38);" />
    <path d="m39.84,646.14v8.38s148.92-73.24,242.57-107.45,131.21-52.71,131.21-52.71h-16.26s-194.58,80.19-202.43,83.55c-7.85,3.36-155.09,68.22-155.09,68.22Z" style="fill: url(#linear-gradient-39);" />
    <path d="m39.83,626.55v8.94s144.28-66.98,214.21-91.24c69.92-24.26,122.24-50.42,122.24-50.42h-17.6s-50.9,24.73-133.66,57.08c-82.76,32.34-185.19,75.64-185.19,75.64Z" style="fill: url(#linear-gradient-40);" />
    <polygon points="39.86 604.14 39.86 613.49 340.85 494.38 324.34 494.38 39.86 604.14" style="fill: url(#linear-gradient-41);" />
    <polygon points="39.82 588.33 39.82 594.78 299.35 494.07 287.1 494.07 39.82 588.33" style="fill: url(#linear-gradient-42);" />
    <path d="m39.81,570.01v7.4l222.43-83.52h-12.53s-119.59,45.98-209.9,76.12Z" style="fill: url(#linear-gradient-43);" />
    <path d="m39.81,556.44v5.56s183.96-65.77,188.15-67.86h-9.29l-178.86,62.3Z" style="fill: url(#linear-gradient-44);" />
    <path d="m39.78,543.3v5.31l150.92-54.51h-13.51s-82.73,30.88-137.41,49.2Z" style="fill: url(#linear-gradient-45);" />
    <polygon points="39.83 529.38 39.83 535.03 158.78 494.08 151.44 494.08 39.83 529.38" style="fill: url(#linear-gradient-46);" />
    <path d="m39.8,514.17v6.45s34.22-10.47,83.39-26.36h-9.35s-44.69,12.72-74.04,19.92Z" style="fill: url(#linear-gradient-47);" />
  </g>
  <g id="Team_Color_1" data-name="Team Color 1">
    <path d="m497.03,867.04c3.37-.72,6.73-1.45,10.1-2.17,6.41-15.02,12.64-30.81,18.56-47.38,17.05-47.73,28.31-92.83,35.73-133.7,1.45.27,2.89.55,4.34.82,5.12-29.47,9.8-60.12,13.92-91.87,5.73-44.19,9.83-86.64,12.66-127.12-4.13,1.15-8.26,2.3-12.39,3.45-3.25,51.38-8.05,94.83-12.41,128.16-4.97,37.93-8.9,67.3-17.79,107.13-11.13,49.83-23.38,86.2-28.02,99.59-8.86,25.54-17.61,46.9-24.69,63.09Z" style="fill: url(#linear-gradient-48);" />
    <path d="m511.03,511.7c2.01-.55,4.02-1.1,6.03-1.64-.9,55.77-8.34,132.91-36.8,219.78-21.07,64.31-47.96,116.59-72.18,156.21-3.12.66-6.23,1.32-9.35,1.98,4.67-7.15,9.24-14.46,13.71-21.94,68.39-114.4,94.73-237.97,98.58-354.38Z" style="fill: url(#linear-gradient-49);" />
    <path d="m450.42,876.97c3.06-.64,6.11-1.27,9.17-1.91,15.37-32.4,30.24-68.27,43.51-107.57,37.23-110.23,49.62-211.12,52.08-291.51-3.37.94-6.75,1.89-10.12,2.83-1.04,41.02-4.74,86.47-12.76,135.32-17.61,107.17-50.36,195.76-81.88,262.84Z" style="fill: url(#linear-gradient-50);" />
    <path d="m301.66,887.69c8.25-7.35,16.78-15.64,25.33-24.99,20.06-21.92,34.89-43.78,45.85-62.97-4.55,7.69-9.65,15.61-15.36,23.64-19.19,26.97-40.05,47.81-59,63.65,1.06.22,2.13.44,3.19.66Z" style="fill: url(#linear-gradient-51);" />
    <path d="m654.2,448.29l6.56-1.83v85.01l-26.74,166.05-5.09-.98c-4.6,26.43-10.42,54.47-17.8,83.82-5.88,23.38-12.22,45.53-18.8,66.4-3.61.74-7.22,1.48-10.83,2.22,0,0,52.96-150.07,72.7-400.69Z" style="fill: url(#linear-gradient-52);" />
    <path d="m616.34,458.87l15.58-4.29c-4.61,44.19-10.19,89.72-16.89,136.47-4.89,34.12-10.17,67.43-15.76,99.9-1.43-.27-2.87-.53-4.3-.8-3.39,17.66-7.26,35.82-11.7,54.43-9.46,39.74-20.33,76.73-31.84,110.85-3.54.74-7.08,1.48-10.63,2.23,0,0,50.59-96.07,75.53-398.78Z" style="fill: url(#linear-gradient-53);" />
    <path d="m345.72,896.99l5.06,1.06c13.22-15.38,26.95-33.2,40.3-53.61,27.09-41.45,44.45-81.18,55.81-114.16-5.75,15.62-12.68,32.08-21.06,49.07-24.44,49.58-53.7,88.44-80.11,117.65Z" style="fill: url(#linear-gradient-54);" />
  </g>
  <g id="TEXT_Name_position_number_" data-name="TEXT (Name, position, number)">
    <text transform="translate(107.59 564.04) scale(.98) skewX(-10)" style="fill: #fff; font-family: Arimo-Bold, Arimo; font-size: 55px; font-weight: 700;">
      <tspan x="0" y="0">PG</tspan>
    </text>
    <path d="m377.47,504.6H110.99c.87-3.43,1.74-6.86,2.61-10.29,89.03-.03,178.06-.06,267.1-.09-1.08,3.46-2.15,6.92-3.23,10.38Z" style="fill: #fff;" />
    <text transform="translate(107.16 383.09)" style="fill: #fff; font-family: Arimo-Bold, Arimo; font-size: 65px; font-weight: 700;">
      <tspan x="0" y="0">STEPHEN</tspan>
    </text>
    <text transform="translate(108.26 446.14)" style="fill: #fff; font-family: Arimo-Bold, Arimo; font-size: 65px; font-weight: 700;">
      <tspan x="0" y="0">CURRY</tspan>
    </text>
  </g>
  <g id="Logo">
    <path d="m330.49,153s-4.47-8.94-4.47-17.97v-36.21h67.76v37.26s.44,24.81-22.62,36.2l-11.48,5.69s-14.56-6.48-19.82-12.18l6.6-11.54h16.34l16.39-28.43-8.22-14.23-33.01-.11,8.45,14.34h16.53l-8.36,14.28h-16.52l-7.58,12.88Z" style="fill: #fff;" />
  </g>
</svg>